AnekKannada-CondensedMedium.ufo
<glyph name="dollar" format="2">
  <advance width="622"/>
  <unicode hex="0024"/>
  <outline>
    <component base="S"/>
    <contour>
      <point x="380" y="1444" type="line"/>
      <point x="228" y="1444" type="line"/>
      <point x="228" y="1200" type="line"/>
      <point x="380" y="1200" type="line"/>
    </contour>
    <contour>
      <point x="380" y="25" type="line"/>
      <point x="228" y="25" type="line"/>
      <point x="228" y="-175" type="line"/>
      <point x="380" y="-175" type="line"/>
    </contour>
  </outline>
</glyph>
<glyph name="quotesingle" format="2">
  <advance width="291"/>
  <unicode hex="0027"/>
  <outline>
    <contour>
      <point x="231" y="1329" type="line"/>
      <point x="60" y="1329" type="line"/>
      <point x="77" y="872" type="line"/>
      <point x="215" y="872" type="line"/>
    </contour>
  </outline>
</glyph>
<glyph name="equal" format="2">
  <advance width="695"/>
  <unicode hex="003D"/>
  <outline>
    <contour>
      <point x="626" y="406" type="line"/>
      <point x="626" y="553" type="line"/>
      <point x="69" y="553" type="line"/>
      <point x="69" y="406" type="line"/>
    </contour>
    <contour>
      <point x="626" y="720" type="line"/>
      <point x="626" y="867" type="line"/>
      <point x="69" y="867" type="line"/>
      <point x="69" y="720" type="line"/>
    </contour>
  </outline>
</glyph>
<glyph name="A" format="2">
  <advance width="751"/>
  <unicode hex="0041"/>
  <anchor x="376" y="0" name="bottom"/>
  <anchor x="755" y="0" name="ogonek"/>
  <anchor x="376" y="1278" name="top"/>
  <outline>
    <contour>
      <point x="213" y="0" type="line"/>
      <point x="363" y="1149" type="line"/>
      <point x="385" y="1149" type="line"/>
      <point x="538" y="0" type="line"/>
      <point x="713" y="0" type="line"/>
      <point x="517" y="1278" type="line"/>
      <point x="231" y="1278" type="line"/>
      <point x="38" y="0" type="line"/>
    </contour>
    <contour>
      <point x="544" y="343" type="line"/>
      <point x="544" y="494" type="line"/>
      <point x="205" y="494" type="line"/>
      <point x="205" y="343" type="line"/>
    </contour>
  </outline>
</glyph>
<glyph name="U" format="2">
  <advance width="804"/>
  <unicode hex="0055"/>
  <anchor x="402" y="0" name="bottom"/>
  <anchor x="582" y="5" name="ogonek"/>
  <anchor x="402" y="1278" name="top"/>
  <anchor x="798" y="1278" name="topright"/>
  <outline>
    <contour>
      <point x="402" y="-19" type="curve" smooth="yes"/>
      <point x="612" y="-19"/>
      <point x="713" y="106"/>
      <point x="713" y="342" type="curve" smooth="yes"/>
      <point x="713" y="1278" type="line"/>
      <point x="533" y="1278" type="line"/>
      <point x="533" y="327" type="line" smooth="yes"/>
      <point x="533" y="200"/>
      <point x="496" y="135"/>
      <point x="402" y="135" type="curve" smooth="yes"/>
      <point x="308" y="135"/>
      <point x="271" y="200"/>
      <point x="271" y="327" type="curve" smooth="yes"/>
      <point x="271" y="1278" type="line"/>
      <point x="91" y="1278" type="line"/>
      <point x="91" y="342" type="line" smooth="yes"/>
      <point x="91" y="106"/>
      <point x="192" y="-19"/>
    </contour>
  </outline>
</glyph>
<glyph name="W" format="2">
  <advance width="1108"/>
  <unicode hex="0057"/>
  <anchor x="554" y="0" name="bottom"/>
  <anchor x="554" y="1278" name="top"/>
  <outline>
    <contour>
      <point x="453" y="0" type="line"/>
      <point x="509" y="616" type="line"/>
      <point x="549" y="1103" type="line"/>
      <point x="559" y="1103" type="line"/>
      <point x="599" y="616" type="line"/>
      <point x="655" y="0" type="line"/>
      <point x="937" y="0" type="line"/>
      <point x="1062" y="1278" type="line"/>
      <point x="883" y="1278" type="line"/>
      <point x="819" y="512" type="line"/>
      <point x="793" y="149" type="line"/>
      <point x="783" y="149" type="line"/>
      <point x="751" y="512" type="line"/>
      <point x="677" y="1251" type="line"/>
      <point x="431" y="1251" type="line"/>
      <point x="357" y="512" type="line"/>
      <point x="325" y="149" type="line"/>
      <point x="315" y="149" type="line"/>
      <point x="289" y="512" type="line"/>
      <point x="225" y="1278" type="line"/>
      <point x="46" y="1278" type="line"/>
      <point x="171" y="0" type="line"/>
    </contour>
  </outline>
</glyph>
<glyph name="Y" format="2">
  <advance width="701"/>
  <unicode hex="0059"/>
  <anchor x="351" y="0" name="bottom"/>
  <anchor x="351" y="1278" name="top"/>
  <anchor x="20" y="1278" name="topleft"/>
  <outline>
    <contour>
      <point x="435" y="379" type="line"/>
      <point x="680" y="1278" type="line"/>
      <point x="502" y="1278" type="line"/>
      <point x="405" y="840" type="line"/>
      <point x="357" y="613" type="line"/>
      <point x="346" y="613" type="line"/>
      <point x="299" y="840" type="line"/>
      <point x="199" y="1278" type="line"/>
      <point x="21" y="1278" type="line"/>
      <point x="268" y="379" type="line"/>
    </contour>
    <contour>
      <point x="437" y="0" type="line"/>
      <point x="437" y="563" type="line"/>
      <point x="266" y="563" type="line"/>
      <point x="266" y="0" type="line"/>
    </contour>
  </outline>
</glyph>
<glyph name="l" format="2">
  <advance width="356"/>
  <unicode hex="006C"/>
  <anchor x="179" y="0" name="bottom"/>
  <anchor x="179" y="667" name="center"/>
  <anchor x="179" y="1329" name="top"/>
  <anchor x="376" y="1329" name="topright"/>
  <outline>
    <contour>
      <point x="265" y="0" type="line"/>
      <point x="265" y="1329" type="line"/>
      <point x="91" y="1329" type="line"/>
      <point x="91" y="0" type="line"/>
    </contour>
  </outline>
</glyph>
<glyph name="r" format="2">
  <advance width="496"/>
  <unicode hex="0072"/>
  <anchor x="176" y="0" name="bottom"/>
  <anchor x="279" y="998" name="top"/>
  <outline>
    <contour>
      <point x="260" y="622" type="line"/>
      <point x="274" y="748"/>
      <point x="346" y="813"/>
      <point x="441" y="813" type="curve" smooth="yes"/>
      <point x="459" y="813"/>
      <point x="474" y="811"/>
      <point x="485" y="809" type="curve"/>
      <point x="478" y="1004" type="line"/>
      <point x="467" y="1005"/>
      <point x="459" y="1006"/>
      <point x="449" y="1006" type="curve" smooth="yes"/>
      <point x="332" y="1006"/>
      <point x="277" y="931"/>
      <point x="258" y="808" type="curve"/>
      <point x="217" y="808" type="line"/>
    </contour>
    <contour>
      <point x="262" y="0" type="line"/>
      <point x="262" y="721" type="line"/>
      <point x="245" y="754" type="line"/>
      <point x="255" y="998" type="line"/>
      <point x="88" y="998" type="line"/>
      <point x="88" y="0" type="line"/>
    </contour>
  </outline>
</glyph>
<glyph name="asciitilde" format="2">
  <advance width="796"/>
  <unicode hex="007E"/>
  <outline>
    <contour>
      <point x="544" y="526" type="curve" smooth="yes"/>
      <point x="664" y="526"/>
      <point x="712" y="601"/>
      <point x="712" y="733" type="curve" smooth="yes"/>
      <point x="712" y="770" type="line"/>
      <point x="582" y="770" type="line"/>
      <point x="582" y="752" type="line" smooth="yes"/>
      <point x="582" y="706"/>
      <point x="570" y="678"/>
      <point x="528" y="678" type="curve" smooth="yes"/>
      <point x="460" y="678"/>
      <point x="354" y="755"/>
      <point x="251" y="755" type="curve" smooth="yes"/>
      <point x="131" y="755"/>
      <point x="83" y="676"/>
      <point x="83" y="546" type="curve" smooth="yes"/>
      <point x="83" y="511" type="line"/>
      <point x="213" y="511" type="line"/>
      <point x="213" y="526" type="line" smooth="yes"/>
      <point x="213" y="571"/>
      <point x="225" y="603"/>
      <point x="267" y="603" type="curve" smooth="yes"/>
      <point x="339" y="603"/>
      <point x="441" y="526"/>
    </contour>
  </outline>
</glyph>
<glyph name="cent" format="2">
  <advance width="555"/>
  <unicode hex="00A2"/>
  <outline>
    <component base="c"/>
    <contour>
      <point x="396" y="1160" type="line"/>
      <point x="246" y="1160" type="line"/>
      <point x="246" y="936" type="line"/>
      <point x="396" y="936" type="line"/>
    </contour>
    <contour>
      <point x="396" y="55" type="line"/>
      <point x="246" y="55" type="line"/>
      <point x="246" y="-175" type="line"/>
      <point x="396" y="-175" type="line"/>
    </contour>
  </outline>
</glyph>
<glyph name="yen" format="2">
  <advance width="739"/>
  <unicode hex="00A5"/>
  <outline>
    <component base="Y" xOffset="17"/>
    <contour>
      <point x="653" y="528" type="line"/>
      <point x="662" y="669" type="line"/>
      <point x="441" y="669" type="line"/>
      <point x="414" y="528" type="line"/>
    </contour>
    <contour>
      <point x="81" y="241" type="line"/>
      <point x="653" y="241" type="line"/>
      <point x="662" y="379" type="line"/>
      <point x="90" y="379" type="line"/>
    </contour>
    <contour>
      <point x="90" y="669" type="line"/>
      <point x="81" y="528" type="line"/>
      <point x="313" y="528" type="line"/>
      <point x="284" y="669" type="line"/>
    </contour>
  </outline>
</glyph>
<glyph name="section" format="2">
  <advance width="616"/>
  <unicode hex="00A7"/>
  <outline>
    <contour>
      <point x="422" y="333" type="line"/>
      <point x="422" y="371" type="line"/>
      <point x="505" y="412"/>
      <point x="545" y="490"/>
      <point x="545" y="578" type="curve" smooth="yes"/>
      <point x="545" y="602" type="line" smooth="yes"/>
      <point x="545" y="742"/>
      <point x="479" y="798"/>
      <point x="360" y="880" type="curve" smooth="yes"/>
      <point x="277" y="937"/>
      <point x="236" y="970"/>
      <point x="236" y="1038" type="curve" smooth="yes"/>
      <point x="236" y="1049" type="line" smooth="yes"/>
      <point x="236" y="1113"/>
      <point x="270" y="1150"/>
      <point x="349" y="1150" type="curve" smooth="yes"/>
      <point x="423" y="1150"/>
      <point x="481" y="1121"/>
      <point x="527" y="1084" type="curve"/>
      <point x="515" y="1237" type="line"/>
      <point x="471" y="1268"/>
      <point x="405" y="1297"/>
      <point x="313" y="1297" type="curve" smooth="yes"/>
      <point x="154" y="1297"/>
      <point x="66" y="1210"/>
      <point x="66" y="1058" type="curve" smooth="yes"/>
      <point x="66" y="1045" type="line" smooth="yes"/>
      <point x="66" y="931"/>
      <point x="113" y="858"/>
      <point x="247" y="775" type="curve" smooth="yes"/>
      <point x="357" y="706"/>
      <point x="387" y="670"/>
      <point x="387" y="574" type="curve" smooth="yes"/>
      <point x="387" y="527" type="line" smooth="yes"/>
      <point x="387" y="482"/>
      <point x="373" y="429"/>
      <point x="330" y="404" type="curve"/>
    </contour>
    <contour>
      <point x="190" y="847" type="line"/>
      <point x="191" y="807" type="line"/>
      <point x="103" y="763"/>
      <point x="67" y="689"/>
      <point x="67" y="600" type="curve" smooth="yes"/>
      <point x="67" y="587" type="line" smooth="yes"/>
      <point x="67" y="449"/>
      <point x="121" y="389"/>
      <point x="251" y="299" type="curve" smooth="yes"/>
      <point x="337" y="240"/>
      <point x="376" y="203"/>
      <point x="376" y="131" type="curve" smooth="yes"/>
      <point x="376" y="120" type="line" smooth="yes"/>
      <point x="376" y="57"/>
      <point x="341" y="11"/>
      <point x="259" y="11" type="curve" smooth="yes"/>
      <point x="181" y="11"/>
      <point x="116" y="40"/>
      <point x="66" y="78" type="curve"/>
      <point x="77" y="-80" type="line"/>
      <point x="123" y="-111"/>
      <point x="195" y="-140"/>
      <point x="284" y="-140" type="curve" smooth="yes"/>
      <point x="459" y="-140"/>
      <point x="545" y="-46"/>
      <point x="545" y="112" type="curve" smooth="yes"/>
      <point x="545" y="127" type="line" smooth="yes"/>
      <point x="545" y="248"/>
      <point x="502" y="315"/>
      <point x="374" y="398" type="curve" smooth="yes"/>
      <point x="270" y="466"/>
      <point x="225" y="507"/>
      <point x="225" y="610" type="curve" smooth="yes"/>
      <point x="225" y="647" type="line" smooth="yes"/>
      <point x="225" y="696"/>
      <point x="239" y="748"/>
      <point x="282" y="773" type="curve"/>
    </contour>
  </outline>
</glyph>
<glyph name="AE" format="2">
  <advance width="1041"/>
  <unicode hex="00C6"/>
  <anchor x="521" y="0" name="bottom"/>
  <anchor x="521" y="1278" name="top"/>
  <outline>
    <contour>
      <point x="211" y="0" type="line"/>
      <point x="460" y="1149" type="line"/>
      <point x="523" y="1149" type="line"/>
      <point x="523" y="1278" type="line"/>
      <point x="328" y="1278" type="line"/>
      <point x="36" y="0" type="line"/>
    </contour>
    <contour>
      <point x="546" y="343" type="line"/>
      <point x="546" y="494" type="line"/>
      <point x="221" y="494" type="line"/>
      <point x="221" y="343" type="line"/>
    </contour>
    <contour>
      <point x="982" y="0" type="line"/>
      <point x="982" y="158" type="line"/>
      <point x="609" y="158" type="line"/>
      <point x="609" y="0" type="line"/>
    </contour>
    <contour>
      <point x="676" y="0" type="line"/>
      <point x="676" y="1278" type="line"/>
      <point x="502" y="1278" type="line"/>
      <point x="502" y="0" type="line"/>
    </contour>
    <contour>
      <point x="974" y="574" type="line"/>
      <point x="974" y="731" type="line"/>
      <point x="616" y="731" type="line"/>
      <point x="616" y="574" type="line"/>
    </contour>
    <contour>
      <point x="982" y="1120" type="line"/>
      <point x="982" y="1278" type="line"/>
      <point x="607" y="1278" type="line"/>
      <point x="607" y="1120" type="line"/>
    </contour>
  </outline>
</glyph>
<glyph name="Eth" format="2">
  <advance width="789"/>
  <unicode hex="00D0"/>
  <outline>
    <component base="D"/>
    <contour>
      <point x="411" y="589" type="line"/>
      <point x="411" y="725" type="line"/>
      <point x="12" y="725" type="line"/>
      <point x="12" y="589" type="line"/>
    </contour>
  </outline>
</glyph>
<glyph name="multiply" format="2">
  <advance width="648"/>
  <unicode hex="00D7"/>
  <outline>
    <contour>
      <point x="155" y="938" type="line"/>
      <point x="53" y="853" type="line"/>
      <point x="498" y="337" type="line"/>
      <point x="600" y="423" type="line"/>
    </contour>
    <contour>
      <point x="150" y="337" type="line"/>
      <point x="595" y="853" type="line"/>
      <point x="493" y="938" type="line"/>
      <point x="48" y="423" type="line"/>
    </contour>
  </outline>
</glyph>
<glyph name="divide" format="2">
  <advance width="671"/>
  <unicode hex="00F7"/>
  <outline>
    <component base="period" xScale="0.85" yScale="0.85" xOffset="217" yOffset="273"/>
    <component base="period" xScale="0.85" yScale="0.85" xOffset="217" yOffset="811"/>
    <contour>
      <point x="614" y="563" type="line"/>
      <point x="614" y="710" type="line"/>
      <point x="57" y="710" type="line"/>
      <point x="57" y="563" type="line"/>
    </contour>
  </outline>
</glyph>
<glyph name="oe" format="2">
  <advance width="1098"/>
  <unicode hex="0153"/>
  <anchor x="550" y="0" name="bottom"/>
  <anchor x="550" y="998" name="top"/>
  <outline>
    <contour>
      <point x="337" y="-17" type="curve" smooth="yes"/>
      <point x="462" y="-17"/>
      <point x="531" y="38"/>
      <point x="562" y="141" type="curve"/>
      <point x="569" y="141" type="line"/>
      <point x="605" y="42"/>
      <point x="690" y="-14"/>
      <point x="813" y="-14" type="curve" smooth="yes"/>
      <point x="899" y="-14"/>
      <point x="969" y="11"/>
      <point x="1018" y="41" type="curve"/>
      <point x="1030" y="195" type="line"/>
      <point x="977" y="162"/>
      <point x="913" y="138"/>
      <point x="841" y="138" type="curve" smooth="yes"/>
      <point x="720" y="138"/>
      <point x="656" y="203"/>
      <point x="656" y="346" type="curve" smooth="yes"/>
      <point x="656" y="469" type="line"/>
      <point x="656" y="499" type="line"/>
      <point x="656" y="708" type="line" smooth="yes"/>
      <point x="656" y="819"/>
      <point x="687" y="871"/>
      <point x="765" y="871" type="curve" smooth="yes"/>
      <point x="841" y="871"/>
      <point x="874" y="819"/>
      <point x="874" y="708" type="curve" smooth="yes"/>
      <point x="874" y="625"/>
      <point x="874" y="535"/>
      <point x="874" y="417" type="curve"/>
      <point x="1031" y="417" type="line"/>
      <point x="1039" y="474"/>
      <point x="1041" y="526"/>
      <point x="1041" y="581" type="curve" smooth="yes"/>
      <point x="1041" y="689" type="line" smooth="yes"/>
      <point x="1041" y="903"/>
      <point x="958" y="1015"/>
      <point x="785" y="1015" type="curve" smooth="yes"/>
      <point x="677" y="1015"/>
      <point x="599" y="960"/>
      <point x="569" y="857" type="curve"/>
      <point x="562" y="857" type="line"/>
      <point x="531" y="960"/>
      <point x="463" y="1015"/>
      <point x="337" y="1015" type="curve" smooth="yes"/>
      <point x="160" y="1015"/>
      <point x="69" y="900"/>
      <point x="69" y="685" type="curve"/>
      <point x="69" y="314" type="line"/>
      <point x="69" y="99"/>
      <point x="160" y="-17"/>
    </contour>
    <contour>
      <point x="991" y="417" type="line"/>
      <point x="991" y="555" type="line"/>
      <point x="590" y="555" type="line"/>
      <point x="590" y="417" type="line"/>
    </contour>
    <contour>
      <point x="363" y="127" type="curve" smooth="yes"/>
      <point x="280" y="127"/>
      <point x="243" y="185"/>
      <point x="243" y="301" type="curve" smooth="yes"/>
      <point x="243" y="698" type="line" smooth="yes"/>
      <point x="243" y="814"/>
      <point x="280" y="871"/>
      <point x="363" y="871" type="curve" smooth="yes"/>
      <point x="445" y="871"/>
      <point x="482" y="814"/>
      <point x="482" y="698" type="curve" smooth="yes"/>
      <point x="482" y="301" type="line" smooth="yes"/>
      <point x="482" y="185"/>
      <point x="445" y="127"/>
    </contour>
  </outline>
</glyph>
<glyph name="Danda.dv" format="2">
  <advance width="579"/>
  <unicode hex="0964"/>
  <outline>
    <contour>
      <point x="372" y="1326" type="line"/>
      <point x="372" y="0" type="line"/>
      <point x="207" y="0" type="line"/>
      <point x="207" y="1348" type="line"/>
    </contour>
  </outline>
</glyph>
<glyph name="Candrabindu_Spacing.ka" format="2">
  <advance width="890"/>
  <unicode hex="0C80"/>
  <unicode hex="0D04"/>
  <outline>
    <contour>
      <point x="445" y="851" type="curve" smooth="yes"/>
      <point x="502.547" y="851"/>
      <point x="528" y="810.979"/>
      <point x="528" y="737" type="curve" smooth="yes"/>
      <point x="528" y="592" type="line" smooth="yes"/>
      <point x="528" y="520.312"/>
      <point x="502.547" y="479"/>
      <point x="445" y="479" type="curve" smooth="yes"/>
      <point x="388.486" y="479"/>
      <point x="363" y="520.312"/>
      <point x="363" y="592" type="curve" smooth="yes"/>
      <point x="363" y="737" type="line" smooth="yes"/>
      <point x="363" y="810.979"/>
      <point x="388.486" y="851"/>
    </contour>
    <contour>
      <point x="445" y="143" type="curve" smooth="yes"/>
      <point x="691" y="143"/>
      <point x="812" y="280.722"/>
      <point x="812" y="551" type="curve" smooth="yes"/>
      <point x="812" y="623.71"/>
      <point x="807.533" y="667.29"/>
      <point x="796" y="740" type="curve"/>
      <point x="650" y="740" type="line"/>
      <point x="650" y="577" type="line" smooth="yes"/>
      <point x="650" y="388.525"/>
      <point x="586.222" y="299"/>
      <point x="445" y="299" type="curve" smooth="yes"/>
      <point x="304.75" y="299"/>
      <point x="241" y="388.525"/>
      <point x="241" y="577" type="curve" smooth="yes"/>
      <point x="241" y="740" type="line"/>
      <point x="94" y="740" type="line"/>
      <point x="82.4667" y="667.29"/>
      <point x="78" y="623.71"/>
      <point x="78" y="551" type="curve" smooth="yes"/>
      <point x="78" y="280.722"/>
      <point x="199" y="143"/>
    </contour>
  </outline>
</glyph>
<glyph name="Anuswara.kn" format="2">
  <advance width="726"/>
  <unicode hex="0C82"/>
  <outline>
    <contour>
      <point x="81" y="370" type="line" smooth="yes"/>
      <point x="81" y="152"/>
      <point x="174" y="47"/>
      <point x="363" y="47" type="curve" smooth="yes"/>
      <point x="552" y="47"/>
      <point x="645" y="152"/>
      <point x="645" y="370" type="curve" smooth="yes"/>
      <point x="645" y="761" type="line" smooth="yes"/>
      <point x="645" y="979"/>
      <point x="552" y="1083"/>
      <point x="363" y="1083" type="curve" smooth="yes"/>
      <point x="174" y="1083"/>
      <point x="81" y="979"/>
      <point x="81" y="761" type="curve" smooth="yes"/>
    </contour>
    <contour>
      <point x="363" y="202" type="curve" smooth="yes"/>
      <point x="284" y="202"/>
      <point x="249" y="257"/>
      <point x="249" y="373" type="curve" smooth="yes"/>
      <point x="249" y="757" type="line" smooth="yes"/>
      <point x="249" y="873"/>
      <point x="284" y="929"/>
      <point x="363" y="929" type="curve" smooth="yes"/>
      <point x="441.313" y="929"/>
      <point x="477" y="873"/>
      <point x="477" y="757" type="curve" smooth="yes"/>
      <point x="477" y="373" type="line" smooth="yes"/>
      <point x="477" y="257"/>
      <point x="441.313" y="202"/>
    </contour>
  </outline>
  <guideline angle="90" x="292" y="0"/>
  <guideline angle="0" x="0" y="1114"/>
</glyph>
<glyph name="Visarga.kn" format="2">
  <advance width="531"/>
  <unicode hex="0C83"/>
  <outline>
    <contour>
      <point x="266" y="6" type="curve" smooth="yes"/>
      <point x="411.258" y="6"/>
      <point x="487" y="82.9732"/>
      <point x="487" y="239" type="curve" smooth="yes"/>
      <point x="487" y="308" type="line" smooth="yes"/>
      <point x="487" y="462.987"/>
      <point x="411.258" y="541"/>
      <point x="266" y="541" type="curve" smooth="yes"/>
      <point x="121.804" y="541"/>
      <point x="44" y="462.987"/>
      <point x="44" y="308" type="curve" smooth="yes"/>
      <point x="44" y="239" type="line" smooth="yes"/>
      <point x="44" y="82.9732"/>
      <point x="121.804" y="6"/>
    </contour>
    <contour>
      <point x="266" y="399" type="curve" smooth="yes"/>
      <point x="309.063" y="399"/>
      <point x="331" y="367.294"/>
      <point x="331" y="303" type="curve" smooth="yes"/>
      <point x="331" y="244" type="line" smooth="yes"/>
      <point x="331" y="177.257"/>
      <point x="309.063" y="147"/>
      <point x="266" y="147" type="curve" smooth="yes"/>
      <point x="223.63" y="147"/>
      <point x="200" y="177.257"/>
      <point x="200" y="244" type="curve" smooth="yes"/>
      <point x="200" y="303" type="line" smooth="yes"/>
      <point x="200" y="367.294"/>
      <point x="223.63" y="399"/>
    </contour>
    <contour>
      <point x="266" y="607" type="curve" smooth="yes"/>
      <point x="411.258" y="607"/>
      <point x="487" y="683.973"/>
      <point x="487" y="840" type="curve" smooth="yes"/>
      <point x="487" y="909" type="line" smooth="yes"/>
      <point x="487" y="1063.99"/>
      <point x="411.258" y="1142"/>
      <point x="266" y="1142" type="curve" smooth="yes"/>
      <point x="121.804" y="1142"/>
      <point x="44" y="1063.99"/>
      <point x="44" y="909" type="curve" smooth="yes"/>
      <point x="44" y="840" type="line" smooth="yes"/>
      <point x="44" y="683.973"/>
      <point x="121.804" y="607"/>
    </contour>
    <contour>
      <point x="266" y="1000" type="curve" smooth="yes"/>
      <point x="309.063" y="1000"/>
      <point x="331" y="968.294"/>
      <point x="331" y="904" type="curve" smooth="yes"/>
      <point x="331" y="845" type="line" smooth="yes"/>
      <point x="331" y="778.257"/>
      <point x="309.063" y="748"/>
      <point x="266" y="748" type="curve" smooth="yes"/>
      <point x="223.63" y="748"/>
      <point x="200" y="778.257"/>
      <point x="200" y="845" type="curve" smooth="yes"/>
      <point x="200" y="904" type="line" smooth="yes"/>
      <point x="200" y="968.294"/>
      <point x="223.63" y="1000"/>
    </contour>
  </outline>
</glyph>
<glyph name="vowelA.kn" format="2">
  <advance width="1235"/>
  <unicode hex="0C85"/>
  <outline>
    <contour>
      <point x="920" y="456" type="line"/>
      <point x="920" y="598" type="line"/>
      <point x="539" y="598" type="line"/>
      <point x="539" y="456" type="line"/>
    </contour>
    <contour>
      <point x="910" y="1220" type="curve" smooth="yes"/>
      <point x="746" y="1220"/>
      <point x="664" y="1128.02"/>
      <point x="664" y="943" type="curve" smooth="yes"/>
      <point x="664" y="791" type="line" smooth="yes"/>
      <point x="664" y="672.387"/>
      <point x="703.933" y="619.081"/>
      <point x="772" y="604" type="curve"/>
      <point x="772" y="580" type="line"/>
      <point x="908" y="591" type="line"/>
      <point x="908" y="598" type="line"/>
      <point x="859.25" y="598"/>
      <point x="830" y="642.908"/>
      <point x="830" y="737" type="curve" smooth="yes"/>
      <point x="830" y="941" type="line" smooth="yes"/>
      <point x="830" y="1030.16"/>
      <point x="855.094" y="1070"/>
      <point x="909" y="1070" type="curve" smooth="yes"/>
      <point x="964.172" y="1070"/>
      <point x="989" y="1030.16"/>
      <point x="989" y="941" type="curve" smooth="yes"/>
      <point x="989" y="518" type="line" smooth="yes"/>
      <point x="989" y="260.325"/>
      <point x="863.027" y="136"/>
      <point x="621" y="136" type="curve" smooth="yes"/>
      <point x="371.984" y="136"/>
      <point x="246" y="267.338"/>
      <point x="246" y="525" type="curve" smooth="yes"/>
      <point x="246" y="647" type="line"/>
      <point x="79" y="651" type="line"/>
      <point x="79" y="525" type="line" smooth="yes"/>
      <point x="79" y="165"/>
      <point x="262.309" y="-22"/>
      <point x="621" y="-22" type="curve" smooth="yes"/>
      <point x="973.03" y="-22"/>
      <point x="1157" y="160"/>
      <point x="1157" y="523" type="curve" smooth="yes"/>
      <point x="1157" y="921" type="line" smooth="yes"/>
      <point x="1157" y="1123.32"/>
      <point x="1073.37" y="1220"/>
    </contour>
    <contour>
      <point x="328" y="1220" type="curve" smooth="yes"/>
      <point x="163.307" y="1220"/>
      <point x="79" y="1123.3"/>
      <point x="79" y="923" type="curve" smooth="yes"/>
      <point x="79" y="637" type="line"/>
      <point x="244" y="643" type="line"/>
      <point x="244" y="940" type="line" smooth="yes"/>
      <point x="244" y="1029.2"/>
      <point x="268.852" y="1070"/>
      <point x="325" y="1070" type="curve" smooth="yes"/>
      <point x="380.455" y="1070"/>
      <point x="405" y="1029.2"/>
      <point x="405" y="940" type="curve" smooth="yes"/>
      <point x="405" y="737" type="line" smooth="yes"/>
      <point x="405" y="655.487"/>
      <point x="377.062" y="628"/>
      <point x="332" y="628" type="curve" smooth="yes"/>
      <point x="270.909" y="628"/>
      <point x="238.455" y="668.919"/>
      <point x="227" y="746" type="curve"/>
      <point x="227" y="586" type="line"/>
      <point x="252" y="586" type="line"/>
      <point x="269.875" y="526.309"/>
      <point x="316.914" y="488"/>
      <point x="395" y="488" type="curve" smooth="yes"/>
      <point x="513" y="488"/>
      <point x="571" y="565.021"/>
      <point x="571" y="724" type="curve" smooth="yes"/>
      <point x="571" y="940" type="line" smooth="yes"/>
      <point x="571" y="1127.32"/>
      <point x="490.328" y="1220"/>
    </contour>
  </outline>
</glyph>
<glyph name="vowelAa.kn" format="2">
  <advance width="1220"/>
  <unicode hex="0C86"/>
  <outline>
    <contour>
      <point x="851" y="456" type="line" smooth="yes"/>
      <point x="920.314" y="456"/>
      <point x="952" y="419.382"/>
      <point x="952" y="350" type="curve" smooth="yes"/>
      <point x="952" y="341" type="line" smooth="yes"/>
      <point x="952" y="205"/>
      <point x="848.682" y="137"/>
      <point x="649" y="137" type="curve" smooth="yes"/>
      <point x="380.995" y="137"/>
      <point x="246" y="267"/>
      <point x="246" y="524" type="curve" smooth="yes"/>
      <point x="246" y="645" type="line"/>
      <point x="79" y="645" type="line"/>
      <point x="79" y="524" type="line" smooth="yes"/>
      <point x="79" y="164"/>
      <point x="272.322" y="-22"/>
      <point x="649" y="-22" type="curve" smooth="yes"/>
      <point x="961.686" y="-22"/>
      <point x="1125" y="97.4088"/>
      <point x="1125" y="325" type="curve" smooth="yes"/>
      <point x="1125" y="334" type="line" smooth="yes"/>
      <point x="1125" y="430.739"/>
      <point x="1087.5" y="497.489"/>
      <point x="1018" y="512" type="curve"/>
      <point x="1018" y="518" type="line"/>
      <point x="1111.28" y="537.325"/>
      <point x="1157" y="613.658"/>
      <point x="1157" y="747" type="curve" smooth="yes"/>
      <point x="1157" y="935" type="line" smooth="yes"/>
      <point x="1157" y="1128"/>
      <point x="1073.02" y="1220"/>
      <point x="909" y="1220" type="curve" smooth="yes"/>
      <point x="745.667" y="1220"/>
      <point x="664" y="1128.02"/>
      <point x="664" y="943" type="curve" smooth="yes"/>
      <point x="664" y="790" type="line" smooth="yes"/>
      <point x="664" y="672.455"/>
      <point x="703.692" y="618.03"/>
      <point x="772" y="604" type="curve"/>
      <point x="772" y="598" type="line"/>
      <point x="539" y="598" type="line"/>
      <point x="539" y="456" type="line"/>
    </contour>
    <contour>
      <point x="990" y="733" type="line" smooth="yes"/>
      <point x="990" y="640.372"/>
      <point x="965.238" y="598"/>
      <point x="910" y="598" type="curve" smooth="yes"/>
      <point x="854.889" y="598"/>
      <point x="830" y="640.372"/>
      <point x="830" y="733" type="curve" smooth="yes"/>
      <point x="830" y="936" type="line" smooth="yes"/>
      <point x="830" y="1027.94"/>
      <point x="855.116" y="1070"/>
      <point x="910" y="1070" type="curve" smooth="yes"/>
      <point x="965.455" y="1070"/>
      <point x="990" y="1027.94"/>
      <point x="990" y="936" type="curve" smooth="yes"/>
    </contour>
    <contour>
      <point x="328" y="1220" type="curve" smooth="yes"/>
      <point x="163.307" y="1220"/>
      <point x="79" y="1123.3"/>
      <point x="79" y="923" type="curve" smooth="yes"/>
      <point x="79" y="637" type="line"/>
      <point x="244" y="643" type="line"/>
      <point x="244" y="940" type="line" smooth="yes"/>
      <point x="244" y="1029.2"/>
      <point x="268.852" y="1070"/>
      <point x="325" y="1070" type="curve" smooth="yes"/>
      <point x="380.455" y="1070"/>
      <point x="405" y="1029.2"/>
      <point x="405" y="940" type="curve" smooth="yes"/>
      <point x="405" y="737" type="line" smooth="yes"/>
      <point x="405" y="655.487"/>
      <point x="377.062" y="628"/>
      <point x="332" y="628" type="curve" smooth="yes"/>
      <point x="270.909" y="628"/>
      <point x="238.455" y="668.919"/>
      <point x="227" y="746" type="curve"/>
      <point x="227" y="586" type="line"/>
      <point x="252" y="586" type="line"/>
      <point x="269.875" y="526.309"/>
      <point x="316.914" y="488"/>
      <point x="395" y="488" type="curve" smooth="yes"/>
      <point x="513" y="488"/>
      <point x="571" y="565.021"/>
      <point x="571" y="724" type="curve" smooth="yes"/>
      <point x="571" y="940" type="line" smooth="yes"/>
      <point x="571" y="1127.32"/>
      <point x="490.328" y="1220"/>
    </contour>
  </outline>
</glyph>
<glyph name="vowelII.kn" format="2">
  <advance width="1249"/>
  <unicode hex="0C88"/>
  <outline>
    <contour>
      <point x="291" y="1074" type="line"/>
      <point x="291" y="1041" type="line"/>
      <point x="190.688" y="1013.07"/>
      <point x="141" y="925.566"/>
      <point x="141" y="758" type="curve" smooth="yes"/>
      <point x="141" y="365" type="line" smooth="yes"/>
      <point x="141" y="104"/>
      <point x="254" y="-24"/>
      <point x="482" y="-24" type="curve" smooth="yes"/>
      <point x="711" y="-24"/>
      <point x="822" y="104"/>
      <point x="822" y="365" type="curve" smooth="yes"/>
      <point x="822" y="758" type="line" smooth="yes"/>
      <point x="822" y="924.382"/>
      <point x="773.306" y="1012.27"/>
      <point x="675" y="1040" type="curve"/>
      <point x="675" y="1074" type="line"/>
    </contour>
    <contour>
      <point x="482" y="134" type="curve" smooth="yes"/>
      <point x="368.327" y="134"/>
      <point x="313" y="212"/>
      <point x="313" y="369" type="curve" smooth="yes"/>
      <point x="313" y="812" type="line" smooth="yes"/>
      <point x="313" y="968.332"/>
      <point x="368.327" y="1046"/>
      <point x="482" y="1046" type="curve" smooth="yes"/>
      <point x="596" y="1046"/>
      <point x="650" y="968.332"/>
      <point x="650" y="812" type="curve" smooth="yes"/>
      <point x="650" y="369" type="line" smooth="yes"/>
      <point x="650" y="212"/>
      <point x="596" y="134"/>
    </contour>
    <contour>
      <point x="632" y="1046" type="line"/>
      <point x="632" y="1193" type="line"/>
      <point x="141" y="1193" type="line"/>
      <point x="141" y="1046" type="line"/>
    </contour>
    <contour>
      <point x="1015" y="276" type="line" smooth="yes"/>
      <point x="1015" y="179.168"/>
      <point x="987.301" y="142"/>
      <point x="923" y="142" type="curve" smooth="yes"/>
      <point x="903" y="142"/>
      <point x="880" y="145"/>
      <point x="864" y="151" type="curve"/>
      <point x="880" y="2" type="line"/>
      <point x="916" y="-7"/>
      <point x="949" y="-11"/>
      <point x="975" y="-11" type="curve" smooth="yes"/>
      <point x="1118" y="-11"/>
      <point x="1184" y="64"/>
      <point x="1184" y="233" type="curve" smooth="yes"/>
      <point x="1184" y="350" type="line" smooth="yes"/>
      <point x="1184" y="463.04"/>
      <point x="1155.1" y="529.99"/>
      <point x="1078" y="552" type="curve"/>
      <point x="1078" y="571" type="line"/>
      <point x="902" y="571" type="line"/>
      <point x="902" y="527" type="line"/>
      <point x="931" y="527" type="line" smooth="yes"/>
      <point x="992.354" y="527"/>
      <point x="1015" y="486.55"/>
      <point x="1015" y="390" type="curve" smooth="yes"/>
    </contour>
    <contour>
      <point x="1015" y="558" type="line"/>
      <point x="1078" y="558" type="line" smooth="yes"/>
      <point x="1152.44" y="558"/>
      <point x="1188" y="602.763"/>
      <point x="1188" y="697" type="curve" smooth="yes"/>
      <point x="1188" y="788.995"/>
      <point x="1162.19" y="931.017"/>
      <point x="1129" y="1025" type="curve"/>
      <point x="1004" y="1025" type="line"/>
      <point x="1004" y="674" type="line"/>
      <point x="723" y="674" type="line"/>
      <point x="690" y="675" type="line"/>
      <point x="229" y="675" type="line"/>
      <point x="206" y="676" type="line"/>
      <point x="23" y="676" type="line"/>
      <point x="23" y="525" type="line"/>
      <point x="206" y="525" type="line"/>
      <point x="229" y="528" type="line"/>
      <point x="690" y="528" type="line"/>
      <point x="723" y="527" type="line"/>
      <point x="997" y="527" type="line"/>
    </contour>
    <contour>
      <point x="681" y="1513" type="line"/>
      <point x="703" y="1442"/>
      <point x="715" y="1375"/>
      <point x="715" y="1302" type="curve" smooth="yes"/>
      <point x="715" y="1225"/>
      <point x="688" y="1193"/>
      <point x="615" y="1193" type="curve" smooth="yes"/>
      <point x="580" y="1193" type="line"/>
      <point x="608" y="1045" type="line"/>
      <point x="682" y="1045" type="line" smooth="yes"/>
      <point x="805" y="1045"/>
      <point x="872" y="1121.33"/>
      <point x="872" y="1270" type="curve" smooth="yes"/>
      <point x="872" y="1357"/>
      <point x="854" y="1438"/>
      <point x="819" y="1513" type="curve"/>
    </contour>
  </outline>
  <guideline angle="90" x="1743" y="0"/>
  <guideline angle="0" x="0" y="583"/>
</glyph>
<glyph name="vowelU.kn" format="2">
  <advance width="1750"/>
  <unicode hex="0C89"/>
  <outline>
    <contour>
      <point x="339" y="1220" type="curve" smooth="yes"/>
      <point x="503" y="1220"/>
      <point x="585" y="1126"/>
      <point x="585" y="937" type="curve" smooth="yes"/>
      <point x="585" y="726" type="line" smooth="yes"/>
      <point x="585" y="566"/>
      <point x="526" y="488"/>
      <point x="406" y="488" type="curve" smooth="yes"/>
      <point x="326" y="488"/>
      <point x="278" y="527"/>
      <point x="260" y="588" type="curve"/>
      <point x="233" y="588" type="line"/>
      <point x="235" y="748" type="line"/>
      <point x="247" y="670"/>
      <point x="280" y="628"/>
      <point x="343" y="628" type="curve" smooth="yes"/>
      <point x="389" y="628"/>
      <point x="418" y="656"/>
      <point x="418" y="739" type="curve" smooth="yes"/>
      <point x="418" y="937" type="line" smooth="yes"/>
      <point x="418" y="1028"/>
      <point x="393" y="1070"/>
      <point x="336" y="1070" type="curve" smooth="yes"/>
      <point x="278" y="1070"/>
      <point x="252" y="1028"/>
      <point x="252" y="937" type="curve" smooth="yes"/>
      <point x="252" y="643" type="line"/>
      <point x="86" y="637" type="line"/>
      <point x="86" y="920" type="line" smooth="yes"/>
      <point x="86" y="1122"/>
      <point x="172" y="1220"/>
    </contour>
    <contour>
      <point x="254" y="423" type="line" smooth="yes"/>
      <point x="254" y="232"/>
      <point x="331.661" y="137"/>
      <point x="483" y="137" type="curve" smooth="yes"/>
      <point x="627.335" y="137"/>
      <point x="700" y="234"/>
      <point x="700" y="423" type="curve" smooth="yes"/>
      <point x="700" y="929" type="line" smooth="yes"/>
      <point x="700" y="1124"/>
      <point x="789" y="1219"/>
      <point x="963" y="1219" type="curve" smooth="yes"/>
      <point x="1138" y="1219"/>
      <point x="1226" y="1124"/>
      <point x="1226" y="929" type="curve" smooth="yes"/>
      <point x="1226" y="593" type="line"/>
      <point x="1057" y="593" type="line"/>
      <point x="1057" y="931" type="line" smooth="yes"/>
      <point x="1057" y="1024"/>
      <point x="1027" y="1065"/>
      <point x="963" y="1065" type="curve" smooth="yes"/>
      <point x="898" y="1065"/>
      <point x="869" y="1024"/>
      <point x="869" y="931" type="curve" smooth="yes"/>
      <point x="869" y="415" type="line" smooth="yes"/>
      <point x="869" y="125"/>
      <point x="741.331" y="-21"/>
      <point x="483" y="-21" type="curve" smooth="yes"/>
      <point x="218.666" y="-21"/>
      <point x="86" y="126"/>
      <point x="86" y="423" type="curve" smooth="yes"/>
      <point x="86" y="649" type="line"/>
      <point x="254" y="655" type="line"/>
    </contour>
    <contour>
      <point x="1661" y="324" type="line" smooth="yes"/>
      <point x="1661" y="94.6706"/>
      <point x="1561.34" y="-21"/>
      <point x="1358" y="-21" type="curve" smooth="yes"/>
      <point x="1158.01" y="-21"/>
      <point x="1057" y="92.6726"/>
      <point x="1057" y="317" type="curve" smooth="yes"/>
      <point x="1057" y="647" type="line"/>
      <point x="1226" y="647" type="line"/>
      <point x="1226" y="320" type="line" smooth="yes"/>
      <point x="1226" y="197.663"/>
      <point x="1267.64" y="137"/>
      <point x="1357" y="137" type="curve" smooth="yes"/>
      <point x="1446.35" y="137"/>
      <point x="1489" y="197.663"/>
      <point x="1489" y="320" type="curve" smooth="yes"/>
      <point x="1489" y="887" type="line" smooth="yes"/>
      <point x="1489" y="998.529"/>
      <point x="1452.67" y="1045"/>
      <point x="1380" y="1045" type="curve" smooth="yes"/>
      <point x="1375.06" y="1045"/>
      <point x="1368.88" y="1045"/>
      <point x="1359" y="1044" type="curve"/>
      <point x="1359" y="1203" type="line"/>
      <point x="1379.49" y="1205"/>
      <point x="1393.51" y="1205"/>
      <point x="1414" y="1205" type="curve" smooth="yes"/>
      <point x="1583.75" y="1205"/>
      <point x="1661" y="1104.04"/>
      <point x="1661" y="888" type="curve" smooth="yes"/>
    </contour>
  </outline>
</glyph>
<glyph name="vowelLru.kn" format="2">
  <advance width="1058"/>
  <unicode hex="0C8C"/>
  <outline>
    <contour>
      <point x="326" y="0" type="line"/>
      <point x="270" y="109"/>
      <point x="249" y="249"/>
      <point x="249" y="362" type="curve" smooth="yes"/>
      <point x="249" y="547" type="line" smooth="yes"/>
      <point x="249" y="647"/>
      <point x="280.68" y="693"/>
      <point x="348" y="693" type="curve" smooth="yes"/>
      <point x="411.7" y="693"/>
      <point x="444.325" y="646.997"/>
      <point x="445" y="554" type="curve" smooth="yes"/>
      <point x="449" y="3" type="line"/>
      <point x="609" y="3" type="line"/>
      <point x="613" y="554" type="line" smooth="yes"/>
      <point x="613.675" y="647.003"/>
      <point x="645.657" y="693"/>
      <point x="710" y="693" type="curve" smooth="yes"/>
      <point x="776.653" y="693"/>
      <point x="809" y="647"/>
      <point x="809" y="547" type="curve" smooth="yes"/>
      <point x="809" y="362" type="line" smooth="yes"/>
      <point x="809" y="249"/>
      <point x="788" y="109"/>
      <point x="732" y="0" type="curve"/>
      <point x="901" y="0" type="line"/>
      <point x="958" y="97"/>
      <point x="978" y="232"/>
      <point x="978" y="359" type="curve" smooth="yes"/>
      <point x="978" y="547" type="line" smooth="yes"/>
      <point x="978" y="745.913"/>
      <point x="905.83" y="848"/>
      <point x="753" y="848" type="curve" smooth="yes"/>
      <point x="670.016" y="848"/>
      <point x="623.973" y="812.315"/>
      <point x="600" y="754" type="curve"/>
      <point x="594" y="755" type="line"/>
      <point x="605.875" y="827.705"/>
      <point x="613" y="898.522"/>
      <point x="613" y="992" type="curve" smooth="yes"/>
      <point x="613" y="1193" type="line"/>
      <point x="445" y="1193" type="line"/>
      <point x="445" y="991" type="line" smooth="yes"/>
      <point x="445" y="898.488"/>
      <point x="453.312" y="827.688"/>
      <point x="464" y="755" type="curve"/>
      <point x="458" y="754" type="line"/>
      <point x="434.94" y="812.315"/>
      <point x="388.015" y="848"/>
      <point x="305" y="848" type="curve" smooth="yes"/>
      <point x="153.231" y="848"/>
      <point x="80" y="745.913"/>
      <point x="80" y="547" type="curve" smooth="yes"/>
      <point x="80" y="359" type="line" smooth="yes"/>
      <point x="80" y="232"/>
      <point x="102" y="97"/>
      <point x="158" y="0" type="curve"/>
    </contour>
  </outline>
  <guideline angle="90" x="1352" y="0"/>
</glyph>
<glyph name="vowelE.kn" format="2">
  <advance width="1051"/>
  <unicode hex="0C8E"/>
  <outline>
    <contour>
      <point x="737" y="-21" type="curve" smooth="yes"/>
      <point x="886.687" y="-21"/>
      <point x="965" y="77.0066"/>
      <point x="965" y="274" type="curve" smooth="yes"/>
      <point x="965" y="533" type="line" smooth="yes"/>
      <point x="965" y="1004"/>
      <point x="778" y="1209"/>
      <point x="356" y="1209" type="curve" smooth="yes"/>
      <point x="344" y="1209"/>
      <point x="294" y="1209"/>
      <point x="285" y="1209" type="curve"/>
      <point x="244" y="1059" type="line"/>
      <point x="255.564" y="1059"/>
      <point x="314.436" y="1059"/>
      <point x="326" y="1059" type="curve" smooth="yes"/>
      <point x="664.823" y="1059"/>
      <point x="793" y="914.644"/>
      <point x="793" y="532" type="curve" smooth="yes"/>
      <point x="793" y="276" type="line" smooth="yes"/>
      <point x="793" y="184.114"/>
      <point x="764.032" y="142"/>
      <point x="707" y="142" type="curve" smooth="yes"/>
      <point x="643" y="142"/>
      <point x="613.816" y="186.052"/>
      <point x="610" y="282" type="curve" smooth="yes"/>
      <point x="603" y="458" type="line"/>
      <point x="447" y="458" type="line"/>
      <point x="440" y="283" type="line" smooth="yes"/>
      <point x="436.122" y="186.058"/>
      <point x="407.653" y="140"/>
      <point x="341" y="140" type="curve" smooth="yes"/>
      <point x="275.327" y="140"/>
      <point x="242" y="186"/>
      <point x="242" y="284" type="curve" smooth="yes"/>
      <point x="242" y="440" type="line" smooth="yes"/>
      <point x="242" y="520.633"/>
      <point x="267" y="558"/>
      <point x="324" y="558" type="curve" smooth="yes"/>
      <point x="348" y="558"/>
      <point x="366" y="552.632"/>
      <point x="388" y="541" type="curve"/>
      <point x="379" y="688" type="line"/>
      <point x="353" y="704"/>
      <point x="322" y="712"/>
      <point x="279" y="712" type="curve" smooth="yes"/>
      <point x="142" y="712"/>
      <point x="75" y="623"/>
      <point x="75" y="444" type="curve" smooth="yes"/>
      <point x="75" y="275" type="line" smooth="yes"/>
      <point x="75" y="77"/>
      <point x="157.723" y="-21"/>
      <point x="315" y="-21" type="curve" smooth="yes"/>
      <point x="440.958" y="-21"/>
      <point x="511.259" y="38.8684"/>
      <point x="522" y="154" type="curve"/>
      <point x="528" y="154" type="line"/>
      <point x="538.844" y="38.8684"/>
      <point x="611.797" y="-21"/>
    </contour>
  </outline>
  <guideline angle="0" x="0" y="304"/>
  <guideline angle="90" x="397" y="0"/>
</glyph>
<glyph name="vowelEe.kn" format="2">
  <advance width="1051"/>
  <unicode hex="0C8F"/>
  <outline>
    <contour>
      <point x="793" y="552" type="curve" smooth="yes"/>
      <point x="793" y="276" type="line" smooth="yes"/>
      <point x="793" y="184.114"/>
      <point x="764.032" y="142"/>
      <point x="707" y="142" type="curve" smooth="yes"/>
      <point x="643" y="142"/>
      <point x="613.816" y="186.052"/>
      <point x="610" y="282" type="curve" smooth="yes"/>
      <point x="603" y="458" type="line"/>
      <point x="447" y="458" type="line"/>
      <point x="440" y="283" type="line" smooth="yes"/>
      <point x="436.122" y="186.058"/>
      <point x="407.653" y="140"/>
      <point x="341" y="140" type="curve" smooth="yes"/>
      <point x="275.327" y="140"/>
      <point x="242" y="186"/>
      <point x="242" y="284" type="curve" smooth="yes"/>
      <point x="242" y="440" type="line" smooth="yes"/>
      <point x="242" y="520.633"/>
      <point x="267" y="558"/>
      <point x="324" y="558" type="curve" smooth="yes"/>
      <point x="348" y="558"/>
      <point x="366" y="552.632"/>
      <point x="388" y="541" type="curve"/>
      <point x="379" y="688" type="line"/>
      <point x="353" y="704"/>
      <point x="322" y="712"/>
      <point x="279" y="712" type="curve" smooth="yes"/>
      <point x="142" y="712"/>
      <point x="75" y="623"/>
      <point x="75" y="444" type="curve" smooth="yes"/>
      <point x="75" y="275" type="line" smooth="yes"/>
      <point x="75" y="77"/>
      <point x="157.723" y="-21"/>
      <point x="315" y="-21" type="curve" smooth="yes"/>
      <point x="440.958" y="-21"/>
      <point x="511.259" y="38.8684"/>
      <point x="522" y="154" type="curve"/>
      <point x="528" y="154" type="line"/>
      <point x="538.844" y="38.8684"/>
      <point x="611.797" y="-21"/>
      <point x="737" y="-21" type="curve" smooth="yes"/>
      <point x="886.687" y="-21"/>
      <point x="965" y="77.0066"/>
      <point x="965" y="274" type="curve" smooth="yes"/>
      <point x="965" y="553" type="line" smooth="yes"/>
      <point x="965" y="994"/>
      <point x="836" y="1190"/>
      <point x="534" y="1215" type="curve"/>
      <point x="548" y="1042" type="line"/>
      <point x="716.689" y="1027.24"/>
      <point x="793" y="886.538"/>
    </contour>
    <contour>
      <point x="410" y="876" type="curve" smooth="yes"/>
      <point x="575.306" y="876"/>
      <point x="660" y="975"/>
      <point x="660" y="1165" type="curve"/>
      <point x="534" y="1215" type="line"/>
      <point x="534" y="1190" type="line" smooth="yes"/>
      <point x="534" y="1082.04"/>
      <point x="495" y="1031"/>
      <point x="416" y="1031" type="curve" smooth="yes"/>
      <point x="337" y="1031"/>
      <point x="299" y="1082.04"/>
      <point x="299" y="1190" type="curve" smooth="yes"/>
      <point x="299" y="1219" type="line"/>
      <point x="138" y="1203" type="line"/>
      <point x="138" y="1178" type="line" smooth="yes"/>
      <point x="138" y="979.023"/>
      <point x="230.704" y="876"/>
    </contour>
  </outline>
</glyph>
<glyph name="vowelAi.kn" format="2">
  <advance width="1059"/>
  <unicode hex="0C90"/>
  <outline>
    <contour>
      <point x="730" y="1220" type="curve" smooth="yes"/>
      <point x="613.368" y="1220"/>
      <point x="547.762" y="1168.78"/>
      <point x="533" y="1069" type="curve"/>
      <point x="527" y="1069" type="line"/>
      <point x="513.22" y="1168.78"/>
      <point x="448.634" y="1220"/>
      <point x="333" y="1220" type="curve" smooth="yes"/>
      <point x="175.643" y="1220"/>
      <point x="98" y="1130"/>
      <point x="98" y="932" type="curve" smooth="yes"/>
      <point x="98" y="776" type="line"/>
      <point x="265" y="776" type="line"/>
      <point x="265" y="926" type="line" smooth="yes"/>
      <point x="265" y="1017"/>
      <point x="296" y="1058"/>
      <point x="356" y="1058" type="curve" smooth="yes"/>
      <point x="415.659" y="1058"/>
      <point x="442.172" y="1017.89"/>
      <point x="444.949" y="929.042" type="curve" smooth="yes"/>
      <point x="450.949" y="737.042" type="line"/>
      <point x="609" y="737" type="line"/>
      <point x="615" y="929" type="line" smooth="yes"/>
      <point x="617.779" y="1017.91"/>
      <point x="645.326" y="1058"/>
      <point x="705" y="1058" type="curve" smooth="yes"/>
      <point x="767.341" y="1058"/>
      <point x="798" y="1016"/>
      <point x="798" y="923" type="curve" smooth="yes"/>
      <point x="798" y="276" type="line" smooth="yes"/>
      <point x="798" y="184.114"/>
      <point x="769.032" y="142"/>
      <point x="712" y="142" type="curve" smooth="yes"/>
      <point x="648" y="142"/>
      <point x="618.816" y="186.052"/>
      <point x="615" y="282" type="curve" smooth="yes"/>
      <point x="608" y="458" type="line"/>
      <point x="452" y="458" type="line"/>
      <point x="445" y="283" type="line" smooth="yes"/>
      <point x="441.122" y="186.058"/>
      <point x="412.653" y="140"/>
      <point x="346" y="140" type="curve" smooth="yes"/>
      <point x="280.99" y="140"/>
      <point x="248" y="186"/>
      <point x="248" y="284" type="curve" smooth="yes"/>
      <point x="248" y="440" type="line" smooth="yes"/>
      <point x="248" y="520.633"/>
      <point x="273" y="558"/>
      <point x="330" y="558" type="curve" smooth="yes"/>
      <point x="354" y="558"/>
      <point x="372" y="552.632"/>
      <point x="394" y="541" type="curve"/>
      <point x="385" y="688" type="line"/>
      <point x="359" y="704"/>
      <point x="328" y="712"/>
      <point x="285" y="712" type="curve" smooth="yes"/>
      <point x="148" y="712"/>
      <point x="81" y="623"/>
      <point x="81" y="444" type="curve" smooth="yes"/>
      <point x="81" y="275" type="line" smooth="yes"/>
      <point x="81" y="77"/>
      <point x="163.379" y="-21"/>
      <point x="320" y="-21" type="curve" smooth="yes"/>
      <point x="445.958" y="-21"/>
      <point x="516.259" y="38.8684"/>
      <point x="527" y="154" type="curve"/>
      <point x="533" y="154" type="line"/>
      <point x="543.844" y="38.8684"/>
      <point x="616.797" y="-21"/>
      <point x="742" y="-21" type="curve" smooth="yes"/>
      <point x="891.687" y="-21"/>
      <point x="970" y="77.0067"/>
      <point x="970" y="274" type="curve" smooth="yes"/>
      <point x="970" y="924" type="line" smooth="yes"/>
      <point x="970" y="1127"/>
      <point x="893.448" y="1220"/>
    </contour>
  </outline>
</glyph>
<glyph name="vowelOo.kn" format="2">
  <advance width="1033"/>
  <unicode hex="0C93"/>
  <outline>
    <component base="vowelO.kn"/>
    <contour>
      <point x="406" y="1638" type="curve" smooth="yes"/>
      <point x="247" y="1638"/>
      <point x="163" y="1548.32"/>
      <point x="163" y="1394" type="curve" smooth="yes"/>
      <point x="163" y="1370" type="line" smooth="yes"/>
      <point x="163" y="1268.86"/>
      <point x="201" y="1193.49"/>
      <point x="299" y="1162" type="curve"/>
      <point x="389" y="1208" type="line"/>
      <point x="335" y="1239"/>
      <point x="319" y="1292"/>
      <point x="319" y="1355" type="curve" smooth="yes"/>
      <point x="319" y="1376" type="line" smooth="yes"/>
      <point x="319" y="1455"/>
      <point x="350.297" y="1493"/>
      <point x="408" y="1493" type="curve" smooth="yes"/>
      <point x="466.681" y="1493"/>
      <point x="497" y="1455"/>
      <point x="497" y="1376" type="curve" smooth="yes"/>
      <point x="497" y="1366" type="line" smooth="yes"/>
      <point x="497" y="1327"/>
      <point x="493" y="1297"/>
      <point x="485" y="1274" type="curve"/>
      <point x="633" y="1274" type="line"/>
      <point x="642" y="1301"/>
      <point x="647" y="1342"/>
      <point x="647" y="1383" type="curve" smooth="yes"/>
      <point x="647" y="1394" type="line" smooth="yes"/>
      <point x="647" y="1554"/>
      <point x="565" y="1638"/>
    </contour>
  </outline>
</glyph>
<glyph name="vowelAu.kn" format="2">
  <advance width="1171"/>
  <unicode hex="0C94"/>
  <outline>
    <contour>
      <point x="801" y="305" type="curve" smooth="yes"/>
      <point x="801" y="282" type="line" smooth="yes"/>
      <point x="801" y="188"/>
      <point x="769.973" y="142"/>
      <point x="704" y="142" type="curve" smooth="yes"/>
      <point x="639" y="142"/>
      <point x="608.629" y="186.044"/>
      <point x="605" y="281" type="curve" smooth="yes"/>
      <point x="599" y="438" type="line"/>
      <point x="516" y="438" type="line"/>
      <point x="521" y="170" type="line"/>
      <point x="528.838" y="43.2266"/>
      <point x="601.102" y="-21"/>
      <point x="732" y="-21" type="curve" smooth="yes"/>
      <point x="888.283" y="-21"/>
      <point x="970" y="73"/>
      <point x="970" y="264" type="curve" smooth="yes"/>
      <point x="970" y="287" type="line" smooth="yes"/>
      <point x="970" y="353"/>
      <point x="961" y="414"/>
      <point x="942" y="467" type="curve"/>
      <point x="781" y="467" type="line"/>
      <point x="795" y="418"/>
      <point x="801" y="358"/>
    </contour>
    <contour>
      <point x="322" y="1220" type="curve" smooth="yes"/>
      <point x="161.322" y="1220"/>
      <point x="79" y="1126.15"/>
      <point x="79" y="949" type="curve" smooth="yes"/>
      <point x="79" y="901" type="line" smooth="yes"/>
      <point x="79" y="820"/>
      <point x="94" y="748"/>
      <point x="117" y="705" type="curve"/>
      <point x="275" y="705" type="line"/>
      <point x="257.042" y="752.492"/>
      <point x="243" y="816.152"/>
      <point x="243" y="898" type="curve" smooth="yes"/>
      <point x="243" y="948" type="line" smooth="yes"/>
      <point x="243" y="1029.64"/>
      <point x="269.957" y="1068"/>
      <point x="323" y="1068" type="curve" smooth="yes"/>
      <point x="376.043" y="1068"/>
      <point x="403" y="1028.66"/>
      <point x="403" y="948" type="curve" smooth="yes"/>
      <point x="403" y="906" type="line" smooth="yes"/>
      <point x="403" y="808.632"/>
      <point x="377.068" y="749.838"/>
      <point x="303" y="684" type="curve" smooth="yes"/>
      <point x="231" y="620" type="line" smooth="yes"/>
      <point x="118.452" y="519.957"/>
      <point x="61" y="429.893"/>
      <point x="61" y="285" type="curve" smooth="yes"/>
      <point x="61" y="262" type="line" smooth="yes"/>
      <point x="61" y="72"/>
      <point x="145.708" y="-21"/>
      <point x="309" y="-21" type="curve" smooth="yes"/>
      <point x="434.585" y="-21"/>
      <point x="506.208" y="37.8936"/>
      <point x="517" y="152" type="curve"/>
      <point x="529" y="152" type="line"/>
      <point x="524" y="438" type="line"/>
      <point x="441" y="438" type="line"/>
      <point x="435" y="282" type="line" smooth="yes"/>
      <point x="431.31" y="186.051"/>
      <point x="399.686" y="142"/>
      <point x="332" y="142" type="curve" smooth="yes"/>
      <point x="264.667" y="142"/>
      <point x="231" y="185"/>
      <point x="231" y="277" type="curve" smooth="yes"/>
      <point x="231" y="294" type="line" smooth="yes"/>
      <point x="231" y="386.299"/>
      <point x="264.263" y="436.554"/>
      <point x="345" y="511" type="curve" smooth="yes"/>
      <point x="422" y="582" type="line" smooth="yes"/>
      <point x="519.222" y="671.646"/>
      <point x="569" y="768.044"/>
      <point x="569" y="904" type="curve" smooth="yes"/>
      <point x="569" y="946" type="line" smooth="yes"/>
      <point x="569" y="1127.28"/>
      <point x="485.322" y="1220"/>
    </contour>
    <contour>
      <point x="408" y="1112" type="line" smooth="yes"/>
      <point x="541.682" y="1112"/>
      <point x="604" y="1170.66"/>
      <point x="604" y="1284" type="curve" smooth="yes"/>
      <point x="604" y="1291" type="line" smooth="yes"/>
      <point x="604" y="1370.84"/>
      <point x="571.115" y="1420.13"/>
      <point x="509" y="1429" type="curve"/>
      <point x="509" y="1460" type="line"/>
      <point x="344" y="1460" type="line"/>
      <point x="342" y="1435" type="line"/>
      <point x="407.66" y="1435"/>
      <point x="440" y="1400"/>
      <point x="440" y="1331" type="curve" smooth="yes"/>
      <point x="440" y="1325" type="line" smooth="yes"/>
      <point x="440" y="1255.66"/>
      <point x="407.66" y="1220"/>
      <point x="342" y="1220" type="curve" smooth="yes"/>
      <point x="329" y="1220" type="line"/>
      <point x="333" y="1112" type="line"/>
    </contour>
    <contour>
      <point x="1131" y="1038" type="line"/>
      <point x="1131" y="1142" type="line" smooth="yes"/>
      <point x="1131" y="1443.12"/>
      <point x="996" y="1581"/>
      <point x="692" y="1581" type="curve" smooth="yes"/>
      <point x="132" y="1581" type="line"/>
      <point x="132" y="1435" type="line"/>
      <point x="689" y="1435" type="line" smooth="yes"/>
      <point x="885.606" y="1435"/>
      <point x="971" y="1346.89"/>
      <point x="971" y="1139" type="curve" smooth="yes"/>
      <point x="971" y="1048" type="line"/>
    </contour>
    <contour>
      <point x="971.738" y="1061.43" type="line"/>
      <point x="971.738" y="820.539" type="line" smooth="yes"/>
      <point x="971.738" y="742.2"/>
      <point x="949.229" y="706.364"/>
      <point x="900.193" y="706.364" type="curve" smooth="yes"/>
      <point x="850.599" y="706.364"/>
      <point x="828.647" y="742.2"/>
      <point x="828.647" y="820.539" type="curve" smooth="yes"/>
      <point x="828.647" y="961.002" type="line" smooth="yes"/>
      <point x="828.647" y="1034.46"/>
      <point x="854.422" y="1058.66"/>
      <point x="896.307" y="1058.66" type="curve" smooth="yes"/>
      <point x="945.646" y="1058.66"/>
      <point x="972.703" y="1022.35"/>
      <point x="982.253" y="952.259" type="curve"/>
      <point x="982.196" y="1097.83" type="line"/>
      <point x="964.966" y="1097.83" type="line"/>
      <point x="949.838" y="1160.1"/>
      <point x="913.985" y="1198.61"/>
      <point x="838.134" y="1198.61" type="curve" smooth="yes"/>
      <point x="725.415" y="1198.61"/>
      <point x="671.385" y="1124.77"/>
      <point x="671.385" y="967.745" type="curve" smooth="yes"/>
      <point x="671.385" y="828.453" type="line" smooth="yes"/>
      <point x="671.385" y="651.876"/>
      <point x="746.416" y="563.588"/>
      <point x="899.221" y="563.588" type="curve" smooth="yes"/>
      <point x="1052.83" y="563.588"/>
      <point x="1131" y="651.895"/>
      <point x="1131" y="832.968" type="curve" smooth="yes"/>
      <point x="1131" y="1050.8" type="line"/>
    </contour>
  </outline>
</glyph>
<glyph name="Ka.kn" format="2">
  <advance width="829"/>
  <unicode hex="0C95"/>
  <outline>
    <contour>
      <point x="62" y="800" type="line"/>
      <point x="62" y="652" type="line"/>
      <point x="286" y="652" type="line"/>
      <point x="286" y="672" type="line"/>
      <point x="546" y="672" type="line"/>
      <point x="546" y="652" type="line"/>
      <point x="765" y="652" type="line"/>
      <point x="765" y="800" type="line"/>
    </contour>
    <contour>
      <point x="329" y="1114" type="line"/>
      <point x="329" y="770" type="line"/>
      <point x="497" y="770" type="line"/>
      <point x="497" y="1114" type="line"/>
    </contour>
    <contour>
      <point x="62" y="1193" type="line"/>
      <point x="62" y="1045" type="line"/>
      <point x="543" y="1045" type="line"/>
      <point x="543" y="1193" type="line"/>
    </contour>
    <contour>
      <point x="413" y="132" type="curve" smooth="yes"/>
      <point x="323" y="132"/>
      <point x="278" y="190.983"/>
      <point x="278" y="312" type="curve" smooth="yes"/>
      <point x="278" y="472" type="line" smooth="yes"/>
      <point x="278" y="593.006"/>
      <point x="323" y="653"/>
      <point x="413" y="653" type="curve" smooth="yes"/>
      <point x="503.667" y="653"/>
      <point x="549" y="593.006"/>
      <point x="549" y="472" type="curve" smooth="yes"/>
      <point x="549" y="312" type="line" smooth="yes"/>
      <point x="549" y="190.983"/>
      <point x="503.667" y="132"/>
    </contour>
    <contour>
      <point x="224" y="684" type="line"/>
      <point x="224" y="646" type="line"/>
      <point x="158.68" y="628"/>
      <point x="108" y="561"/>
      <point x="108" y="419" type="curve" smooth="yes"/>
      <point x="108" y="297" type="line" smooth="yes"/>
      <point x="108" y="85.8182"/>
      <point x="213" y="-25"/>
      <point x="413" y="-25" type="curve" smooth="yes"/>
      <point x="614" y="-25"/>
      <point x="719" y="85.8182"/>
      <point x="719" y="297" type="curve" smooth="yes"/>
      <point x="719" y="419" type="line" smooth="yes"/>
      <point x="719" y="561"/>
      <point x="668.286" y="628"/>
      <point x="602" y="646" type="curve"/>
      <point x="602" y="684" type="line"/>
    </contour>
    <contour>
      <point x="584" y="1513" type="line"/>
      <point x="606" y="1442"/>
      <point x="618" y="1375"/>
      <point x="618" y="1302" type="curve" smooth="yes"/>
      <point x="618" y="1225"/>
      <point x="591" y="1193"/>
      <point x="518" y="1193" type="curve" smooth="yes"/>
      <point x="483" y="1193" type="line"/>
      <point x="511" y="1045" type="line"/>
      <point x="585" y="1045" type="line" smooth="yes"/>
      <point x="708" y="1045"/>
      <point x="775" y="1121.33"/>
      <point x="775" y="1270" type="curve" smooth="yes"/>
      <point x="775" y="1357"/>
      <point x="757" y="1438"/>
      <point x="722" y="1513" type="curve"/>
    </contour>
  </outline>
</glyph>
<glyph name="Kha.kn" format="2">
  <advance width="1112"/>
  <unicode hex="0C96"/>
  <outline>
    <contour>
      <point x="340" y="-21" type="curve" smooth="yes"/>
      <point x="508.038" y="-21"/>
      <point x="597" y="70.5626"/>
      <point x="597" y="281" type="curve"/>
      <point x="547" y="270" type="line"/>
      <point x="634" y="271" type="line"/>
      <point x="634" y="295"/>
      <point x="634" y="358"/>
      <point x="634" y="385" type="curve" smooth="yes"/>
      <point x="634" y="913" type="line" smooth="yes"/>
      <point x="634" y="1116.32"/>
      <point x="539.661" y="1220"/>
      <point x="356" y="1220" type="curve" smooth="yes"/>
      <point x="178" y="1220"/>
      <point x="85" y="1119.59"/>
      <point x="85" y="928" type="curve" smooth="yes"/>
      <point x="85" y="895" type="line" smooth="yes"/>
      <point x="85" y="804.832"/>
      <point x="98" y="740.199"/>
      <point x="121" y="694" type="curve"/>
      <point x="279" y="694" type="line"/>
      <point x="262" y="738.14"/>
      <point x="249" y="801.779"/>
      <point x="249" y="886" type="curve" smooth="yes"/>
      <point x="249" y="922" type="line" smooth="yes"/>
      <point x="249" y="1018.34"/>
      <point x="283.679" y="1068"/>
      <point x="357" y="1068" type="curve" smooth="yes"/>
      <point x="432.303" y="1068"/>
      <point x="465" y="1019.33"/>
      <point x="465" y="922" type="curve" smooth="yes"/>
      <point x="465" y="405" type="line"/>
      <point x="466.333" y="385"/>
      <point x="466.333" y="396"/>
      <point x="467" y="376" type="curve"/>
      <point x="467" y="368"/>
      <point x="467" y="302"/>
      <point x="467" y="296" type="curve" smooth="yes"/>
      <point x="467" y="182.069"/>
      <point x="429.317" y="128"/>
      <point x="348" y="128" type="curve" smooth="yes"/>
      <point x="270.017" y="128"/>
      <point x="232" y="176.675"/>
      <point x="232" y="275" type="curve" smooth="yes"/>
      <point x="232" y="322" type="line" smooth="yes"/>
      <point x="232" y="416.899"/>
      <point x="268.991" y="462"/>
      <point x="342" y="462" type="curve" smooth="yes"/>
      <point x="411" y="462"/>
      <point x="454" y="417.346"/>
      <point x="474" y="333" type="curve"/>
      <point x="481" y="448" type="line"/>
      <point x="470.969" y="542.023"/>
      <point x="414.489" y="605"/>
      <point x="305" y="605" type="curve" smooth="yes"/>
      <point x="148.43" y="605"/>
      <point x="68" y="513"/>
      <point x="68" y="332" type="curve" smooth="yes"/>
      <point x="68" y="269" type="line" smooth="yes"/>
      <point x="68" y="78.6875"/>
      <point x="160" y="-21"/>
    </contour>
    <contour>
      <point x="783" y="-21" type="curve" smooth="yes"/>
      <point x="943.354" y="-21"/>
      <point x="1023" y="81"/>
      <point x="1023" y="280" type="curve" smooth="yes"/>
      <point x="1023" y="892" type="line" smooth="yes"/>
      <point x="1023" y="1106"/>
      <point x="947" y="1205"/>
      <point x="782" y="1205" type="curve" smooth="yes"/>
      <point x="766" y="1205"/>
      <point x="751" y="1205"/>
      <point x="732" y="1203" type="curve"/>
      <point x="732" y="1044" type="line"/>
      <point x="739" y="1045"/>
      <point x="744" y="1045"/>
      <point x="748" y="1045" type="curve" smooth="yes"/>
      <point x="817.676" y="1045"/>
      <point x="851" y="999.412"/>
      <point x="851" y="890" type="curve" smooth="yes"/>
      <point x="851" y="294" type="line" smooth="yes"/>
      <point x="851" y="187"/>
      <point x="818.692" y="137"/>
      <point x="746" y="137" type="curve" smooth="yes"/>
      <point x="670.673" y="137"/>
      <point x="634" y="190"/>
      <point x="634" y="305" type="curve" smooth="yes"/>
      <point x="634" y="409" type="line"/>
      <point x="555" y="409" type="line"/>
      <point x="555" y="259" type="line" smooth="yes"/>
      <point x="555" y="69.5333"/>
      <point x="632.339" y="-21"/>
    </contour>
  </outline>
  <guideline angle="90" x="286" y="0"/>
  <guideline angle="90" x="274" y="0"/>
  <guideline angle="0" x="0" y="-14"/>
  <guideline angle="0" x="0" y="484"/>
  <guideline angle="90" x="-1496" y="0"/>
</glyph>
<glyph name="Ga.kn" format="2">
  <advance width="864"/>
  <unicode hex="0C97"/>
  <outline>
    <contour>
      <point x="242" y="1064" type="line"/>
      <point x="242" y="1039.66" type="line"/>
      <point x="145.494" y="1010.78"/>
      <point x="98" y="917.157"/>
      <point x="98" y="737" type="curve" smooth="yes"/>
      <point x="98" y="0" type="line"/>
      <point x="270" y="0" type="line"/>
      <point x="270" y="812" type="line" smooth="yes"/>
      <point x="270" y="969"/>
      <point x="322" y="1046"/>
      <point x="432" y="1046" type="curve" smooth="yes"/>
      <point x="542.7" y="1046"/>
      <point x="594" y="969"/>
      <point x="594" y="812" type="curve" smooth="yes"/>
      <point x="594" y="0" type="line"/>
      <point x="766" y="0" type="line"/>
      <point x="766" y="737" type="line" smooth="yes"/>
      <point x="766" y="917.171"/>
      <point x="718.007" y="1010.79"/>
      <point x="622" y="1039.66" type="curve"/>
      <point x="622" y="1064" type="line"/>
    </contour>
    <contour>
      <point x="78" y="1193" type="line"/>
      <point x="78" y="1046" type="line"/>
      <point x="602" y="1046" type="line"/>
      <point x="590" y="1193" type="line"/>
    </contour>
    <contour>
      <point x="607" y="1513" type="line"/>
      <point x="629" y="1442"/>
      <point x="641" y="1375"/>
      <point x="641" y="1302" type="curve" smooth="yes"/>
      <point x="641" y="1225"/>
      <point x="614" y="1193"/>
      <point x="541" y="1193" type="curve" smooth="yes"/>
      <point x="506" y="1193" type="line"/>
      <point x="534" y="1045" type="line"/>
      <point x="608" y="1045" type="line" smooth="yes"/>
      <point x="731" y="1045"/>
      <point x="798" y="1121.33"/>
      <point x="798" y="1270" type="curve" smooth="yes"/>
      <point x="798" y="1357"/>
      <point x="780" y="1438"/>
      <point x="745" y="1513" type="curve"/>
    </contour>
  </outline>
</glyph>
<glyph name="Nga.kn" format="2">
  <advance width="1034"/>
  <unicode hex="0C99"/>
  <outline>
    <contour>
      <point x="721" y="1220" type="curve" smooth="yes"/>
      <point x="573.018" y="1220"/>
      <point x="498" y="1134"/>
      <point x="498" y="953" type="curve"/>
      <point x="569" y="926" type="line"/>
      <point x="571" y="1021.95"/>
      <point x="609" y="1068"/>
      <point x="687" y="1068" type="curve" smooth="yes"/>
      <point x="759.069" y="1068"/>
      <point x="797" y="1021.92"/>
      <point x="797" y="924" type="curve" smooth="yes"/>
      <point x="797" y="888" type="line" smooth="yes"/>
      <point x="797" y="840"/>
      <point x="793" y="795"/>
      <point x="788" y="766" type="curve"/>
      <point x="950" y="766" type="line"/>
      <point x="957.636" y="795.404"/>
      <point x="962" y="848.522"/>
      <point x="962" y="895" type="curve" smooth="yes"/>
      <point x="962" y="932" type="line" smooth="yes"/>
      <point x="962" y="1120.55"/>
      <point x="879.524" y="1220"/>
    </contour>
    <contour>
      <point x="672" y="489" type="curve" smooth="yes"/>
      <point x="723.768" y="489"/>
      <point x="748" y="524.625"/>
      <point x="748" y="603" type="curve" smooth="yes"/>
      <point x="748" y="683" type="line" smooth="yes"/>
      <point x="748" y="762.393"/>
      <point x="723.768" y="797"/>
      <point x="672" y="797" type="curve" smooth="yes"/>
      <point x="620.971" y="797"/>
      <point x="596" y="762.393"/>
      <point x="596" y="683" type="curve" smooth="yes"/>
      <point x="596" y="604" type="line" smooth="yes"/>
      <point x="596" y="525.637"/>
      <point x="620.971" y="489"/>
    </contour>
    <contour>
      <point x="801" y="305" type="curve" smooth="yes"/>
      <point x="801" y="282" type="line" smooth="yes"/>
      <point x="801" y="188"/>
      <point x="769.973" y="142"/>
      <point x="704" y="142" type="curve" smooth="yes"/>
      <point x="639" y="142"/>
      <point x="608.629" y="186.044"/>
      <point x="605" y="281" type="curve" smooth="yes"/>
      <point x="599" y="438" type="line"/>
      <point x="516" y="438" type="line"/>
      <point x="521" y="170" type="line"/>
      <point x="528.838" y="43.2266"/>
      <point x="601.102" y="-21"/>
      <point x="732" y="-21" type="curve" smooth="yes"/>
      <point x="888.283" y="-21"/>
      <point x="970" y="73"/>
      <point x="970" y="264" type="curve" smooth="yes"/>
      <point x="970" y="287" type="line" smooth="yes"/>
      <point x="970" y="353"/>
      <point x="961" y="414"/>
      <point x="942" y="467" type="curve"/>
      <point x="781" y="467" type="line"/>
      <point x="795" y="418"/>
      <point x="801" y="358"/>
    </contour>
    <contour>
      <point x="322" y="1220" type="curve" smooth="yes"/>
      <point x="161.322" y="1220"/>
      <point x="79" y="1126.15"/>
      <point x="79" y="949" type="curve" smooth="yes"/>
      <point x="79" y="901" type="line" smooth="yes"/>
      <point x="79" y="820"/>
      <point x="94" y="748"/>
      <point x="117" y="705" type="curve"/>
      <point x="275" y="705" type="line"/>
      <point x="257.042" y="752.492"/>
      <point x="243" y="816.152"/>
      <point x="243" y="898" type="curve" smooth="yes"/>
      <point x="243" y="948" type="line" smooth="yes"/>
      <point x="243" y="1029.64"/>
      <point x="269.957" y="1068"/>
      <point x="323" y="1068" type="curve" smooth="yes"/>
      <point x="376.043" y="1068"/>
      <point x="403" y="1028.66"/>
      <point x="403" y="948" type="curve" smooth="yes"/>
      <point x="403" y="906" type="line" smooth="yes"/>
      <point x="403" y="808.632"/>
      <point x="377.068" y="749.838"/>
      <point x="303" y="684" type="curve" smooth="yes"/>
      <point x="231" y="620" type="line" smooth="yes"/>
      <point x="118.452" y="519.957"/>
      <point x="61" y="429.893"/>
      <point x="61" y="285" type="curve" smooth="yes"/>
      <point x="61" y="262" type="line" smooth="yes"/>
      <point x="61" y="72"/>
      <point x="145.708" y="-21"/>
      <point x="309" y="-21" type="curve" smooth="yes"/>
      <point x="434.585" y="-21"/>
      <point x="506.208" y="37.8936"/>
      <point x="517" y="152" type="curve"/>
      <point x="529" y="152" type="line"/>
      <point x="524" y="438" type="line"/>
      <point x="441" y="438" type="line"/>
      <point x="435" y="282" type="line" smooth="yes"/>
      <point x="431.31" y="186.051"/>
      <point x="399.686" y="142"/>
      <point x="332" y="142" type="curve" smooth="yes"/>
      <point x="264.667" y="142"/>
      <point x="231" y="185"/>
      <point x="231" y="277" type="curve" smooth="yes"/>
      <point x="231" y="294" type="line" smooth="yes"/>
      <point x="231" y="386.299"/>
      <point x="264.263" y="436.554"/>
      <point x="345" y="511" type="curve" smooth="yes"/>
      <point x="422" y="582" type="line" smooth="yes"/>
      <point x="519.222" y="671.646"/>
      <point x="569" y="768.044"/>
      <point x="569" y="904" type="curve" smooth="yes"/>
      <point x="569" y="946" type="line" smooth="yes"/>
      <point x="569" y="1127.28"/>
      <point x="485.322" y="1220"/>
    </contour>
  </outline>
</glyph>
<glyph name="Jha.kn" format="2">
  <advance width="1677"/>
  <unicode hex="0C9D"/>
  <outline>
    <component base="matraU.kn" xOffset="856"/>
    <component base="matraU.kn" xOffset="1266"/>
    <component base="Ra.kn"/>
    <contour>
      <point x="709" y="300" type="line"/>
      <point x="768" y="300" type="line"/>
      <point x="768" y="400" type="line"/>
      <point x="709" y="400" type="line"/>
    </contour>
    <contour>
      <point x="1146" y="-393" type="curve" smooth="yes"/>
      <point x="1204" y="-393"/>
      <point x="1232" y="-355.667"/>
      <point x="1232" y="-281" type="curve" smooth="yes"/>
      <point x="1232" y="-265" type="line" smooth="yes"/>
      <point x="1232" y="-146"/>
      <point x="1197" y="-44"/>
      <point x="1146" y="32" type="curve"/>
      <point x="1096" y="-44"/>
      <point x="1061" y="-146"/>
      <point x="1061" y="-265" type="curve" smooth="yes"/>
      <point x="1061" y="-281" type="line" smooth="yes"/>
      <point x="1061" y="-355.667"/>
      <point x="1089" y="-393"/>
    </contour>
  </outline>
</glyph>
<glyph name="Nya.kn" format="2">
  <advance width="1272"/>
  <unicode hex="0C9E"/>
  <outline>
    <contour>
      <point x="1068" y="931" type="curve" smooth="yes"/>
      <point x="1068" y="887" type="line" smooth="yes"/>
      <point x="1068" y="799"/>
      <point x="1055" y="736"/>
      <point x="1038" y="691" type="curve"/>
      <point x="1199" y="691" type="line"/>
      <point x="1222" y="738"/>
      <point x="1234" y="801"/>
      <point x="1234" y="889" type="curve" smooth="yes"/>
      <point x="1234" y="941" type="line" smooth="yes"/>
      <point x="1234" y="1132"/>
      <point x="1167" y="1220"/>
      <point x="1032" y="1220" type="curve" smooth="yes"/>
      <point x="933" y="1220"/>
      <point x="876" y="1176"/>
      <point x="861" y="1093" type="curve"/>
      <point x="837" y="1093" type="line"/>
      <point x="857" y="714" type="line"/>
      <point x="895" y="714" type="line"/>
      <point x="895" y="931" type="line" smooth="yes"/>
      <point x="895" y="1019"/>
      <point x="923" y="1058"/>
      <point x="982" y="1058" type="curve" smooth="yes"/>
      <point x="1039" y="1058"/>
      <point x="1068" y="1019"/>
    </contour>
    <contour>
      <point x="939" y="-166" type="line"/>
      <point x="899" y="19"/>
      <point x="845" y="212"/>
      <point x="794" y="331" type="curve"/>
      <point x="719" y="165" type="line"/>
      <point x="728" y="56"/>
      <point x="748" y="-63"/>
      <point x="758" y="-166" type="curve"/>
    </contour>
    <contour>
      <point x="637" y="1058" type="curve" smooth="yes"/>
      <point x="694" y="1058"/>
      <point x="723" y="1018"/>
      <point x="723" y="928" type="curve" smooth="yes"/>
      <point x="723" y="602" type="line" smooth="yes"/>
      <point x="723" y="518"/>
      <point x="720" y="433"/>
      <point x="709" y="363" type="curve"/>
      <point x="698" y="334" type="line"/>
      <point x="665" y="222"/>
      <point x="593" y="133"/>
      <point x="458" y="133" type="curve" smooth="yes"/>
      <point x="351" y="133"/>
      <point x="296" y="183"/>
      <point x="296" y="280" type="curve" smooth="yes"/>
      <point x="296" y="287" type="line" smooth="yes"/>
      <point x="296" y="384"/>
      <point x="352" y="434"/>
      <point x="460" y="434" type="curve" smooth="yes"/>
      <point x="579" y="434"/>
      <point x="654" y="369"/>
      <point x="691" y="240" type="curve"/>
      <point x="758" y="306" type="line"/>
      <point x="731" y="484"/>
      <point x="628" y="578"/>
      <point x="445" y="578" type="curve" smooth="yes"/>
      <point x="237" y="578"/>
      <point x="126" y="476"/>
      <point x="126" y="286" type="curve" smooth="yes"/>
      <point x="126" y="278" type="line" smooth="yes"/>
      <point x="126" y="84"/>
      <point x="239" y="-19"/>
      <point x="451" y="-19" type="curve" smooth="yes"/>
      <point x="614" y="-19"/>
      <point x="715" y="58"/>
      <point x="775" y="164" type="curve"/>
      <point x="820" y="206" type="line"/>
      <point x="880" y="310"/>
      <point x="895" y="452"/>
      <point x="895" y="597" type="curve" smooth="yes"/>
      <point x="895" y="928" type="line"/>
      <point x="895" y="980"/>
      <point x="869" y="1051"/>
      <point x="857" y="1093" type="curve" smooth="yes"/>
      <point x="834" y="1174"/>
      <point x="766" y="1220"/>
      <point x="663" y="1220" type="curve" smooth="yes"/>
      <point x="550" y="1220"/>
      <point x="484" y="1168"/>
      <point x="471" y="1069" type="curve"/>
      <point x="465" y="1069" type="line"/>
      <point x="452" y="1168"/>
      <point x="388" y="1220"/>
      <point x="276" y="1220" type="curve" smooth="yes"/>
      <point x="125" y="1220"/>
      <point x="50" y="1132"/>
      <point x="50" y="941" type="curve" smooth="yes"/>
      <point x="50" y="892" type="line" smooth="yes"/>
      <point x="50" y="804"/>
      <point x="62" y="741"/>
      <point x="85" y="694" type="curve"/>
      <point x="246" y="694" type="line"/>
      <point x="229" y="739"/>
      <point x="216" y="802"/>
      <point x="216" y="890" type="curve" smooth="yes"/>
      <point x="216" y="931" type="line" smooth="yes"/>
      <point x="216" y="1019"/>
      <point x="243" y="1058"/>
      <point x="299" y="1058" type="curve" smooth="yes"/>
      <point x="354" y="1058"/>
      <point x="380" y="1019"/>
      <point x="383" y="931" type="curve" smooth="yes"/>
      <point x="390" y="714" type="line"/>
      <point x="546" y="714" type="line"/>
      <point x="553" y="931" type="line" smooth="yes"/>
      <point x="556" y="1019"/>
      <point x="582" y="1058"/>
    </contour>
  </outline>
</glyph>
<glyph name="Tta.kn" format="2">
  <advance width="1060"/>
  <unicode hex="0C9F"/>
  <outline>
    <contour>
      <point x="338" y="1220" type="curve" smooth="yes"/>
      <point x="162" y="1220"/>
      <point x="78" y="1128.79"/>
      <point x="78" y="932" type="curve" smooth="yes"/>
      <point x="78" y="891" type="line" smooth="yes"/>
      <point x="78" y="746"/>
      <point x="126.521" y="668"/>
      <point x="242" y="654" type="curve"/>
      <point x="242" y="648" type="line"/>
      <point x="126.48" y="634.68"/>
      <point x="76" y="550.664"/>
      <point x="76" y="398" type="curve" smooth="yes"/>
      <point x="76" y="280" type="line" smooth="yes"/>
      <point x="76" y="76"/>
      <point x="155.612" y="-21"/>
      <point x="323" y="-21" type="curve" smooth="yes"/>
      <point x="443.057" y="-21"/>
      <point x="512.335" y="37.7541"/>
      <point x="526" y="147" type="curve"/>
      <point x="583" y="147" type="line"/>
      <point x="549" y="443" type="line"/>
      <point x="451" y="443" type="line"/>
      <point x="445" y="288" type="line" smooth="yes"/>
      <point x="441.131" y="188.054"/>
      <point x="410.34" y="142"/>
      <point x="343" y="142" type="curve" smooth="yes"/>
      <point x="276.706" y="142"/>
      <point x="245" y="189"/>
      <point x="245" y="288" type="curve" smooth="yes"/>
      <point x="245" y="403" type="line" smooth="yes"/>
      <point x="245" y="526.275"/>
      <point x="276.514" y="572.768"/>
      <point x="367" y="576" type="curve" smooth="yes"/>
      <point x="423" y="578" type="line"/>
      <point x="423" y="724" type="line"/>
      <point x="370" y="726" type="line" smooth="yes"/>
      <point x="280.465" y="729.379"/>
      <point x="247" y="772.5"/>
      <point x="247" y="881" type="curve" smooth="yes"/>
      <point x="247" y="921" type="line" smooth="yes"/>
      <point x="247" y="1029.62"/>
      <point x="284.382" y="1071"/>
      <point x="368" y="1071" type="curve" smooth="yes"/>
      <point x="397" y="1071"/>
      <point x="428" y="1068"/>
      <point x="452" y="1060" type="curve"/>
      <point x="438" y="1207" type="line"/>
      <point x="399" y="1217"/>
      <point x="366" y="1220"/>
    </contour>
    <contour>
      <point x="721" y="1220" type="curve" smooth="yes"/>
      <point x="694" y="1220"/>
      <point x="660" y="1217"/>
      <point x="621" y="1207" type="curve"/>
      <point x="607" y="1060" type="line"/>
      <point x="632" y="1068"/>
      <point x="663" y="1071"/>
      <point x="691" y="1071" type="curve" smooth="yes"/>
      <point x="774.618" y="1071"/>
      <point x="812" y="1029.62"/>
      <point x="812" y="921" type="curve" smooth="yes"/>
      <point x="812" y="881" type="line" smooth="yes"/>
      <point x="812" y="772.5"/>
      <point x="779.518" y="729.416"/>
      <point x="689" y="726" type="curve" smooth="yes"/>
      <point x="636" y="724" type="line"/>
      <point x="636" y="578" type="line"/>
      <point x="692" y="576" type="line" smooth="yes"/>
      <point x="782.486" y="572.768"/>
      <point x="814" y="526.276"/>
      <point x="814" y="403" type="curve" smooth="yes"/>
      <point x="814" y="288" type="line" smooth="yes"/>
      <point x="814" y="189"/>
      <point x="783.255" y="142"/>
      <point x="716" y="142" type="curve" smooth="yes"/>
      <point x="648.66" y="142"/>
      <point x="617.869" y="188.054"/>
      <point x="614" y="288" type="curve" smooth="yes"/>
      <point x="608" y="443" type="line"/>
      <point x="528" y="443" type="line"/>
      <point x="532" y="147" type="line"/>
      <point x="545.665" y="37.7541"/>
      <point x="615.943" y="-21"/>
      <point x="736" y="-21" type="curve" smooth="yes"/>
      <point x="904.409" y="-21"/>
      <point x="983" y="76"/>
      <point x="983" y="280" type="curve" smooth="yes"/>
      <point x="983" y="398" type="line" smooth="yes"/>
      <point x="983" y="550.664"/>
      <point x="933.491" y="634.68"/>
      <point x="817" y="648" type="curve"/>
      <point x="817" y="654" type="line"/>
      <point x="932.479" y="668"/>
      <point x="981" y="746"/>
      <point x="981" y="891" type="curve" smooth="yes"/>
      <point x="981" y="932" type="line" smooth="yes"/>
      <point x="981" y="1128.79"/>
      <point x="897" y="1220"/>
    </contour>
  </outline>
  <guideline angle="90" x="640" y="0"/>
</glyph>
<glyph name="Ddha.kn" format="2">
  <advance width="1034"/>
  <unicode hex="0CA2"/>
  <outline>
    <contour>
      <point x="789" y="278" type="line" smooth="yes"/>
      <point x="789" y="184"/>
      <point x="759" y="142"/>
      <point x="700" y="142" type="curve" smooth="yes"/>
      <point x="637" y="142"/>
      <point x="609" y="183"/>
      <point x="606" y="273" type="curve" smooth="yes"/>
      <point x="600" y="443" type="line"/>
      <point x="443" y="443" type="line"/>
      <point x="436" y="272" type="line" smooth="yes"/>
      <point x="432" y="183"/>
      <point x="407" y="142"/>
      <point x="348" y="142" type="curve" smooth="yes"/>
      <point x="290" y="142"/>
      <point x="260" y="183"/>
      <point x="260" y="273" type="curve" smooth="yes"/>
      <point x="260" y="695" type="line" smooth="yes"/>
      <point x="260" y="943.58"/>
      <point x="335" y="1046"/>
      <point x="518" y="1046" type="curve"/>
      <point x="515" y="1073" type="line"/>
      <point x="274" y="1073" type="line"/>
      <point x="274" y="1040" type="line"/>
      <point x="151" y="1012.16"/>
      <point x="88" y="908.73"/>
      <point x="88" y="682" type="curve" smooth="yes"/>
      <point x="88" y="272" type="line" smooth="yes"/>
      <point x="88" y="73"/>
      <point x="164" y="-21"/>
      <point x="320" y="-21" type="curve" smooth="yes"/>
      <point x="439" y="-21"/>
      <point x="507" y="36"/>
      <point x="518" y="144" type="curve"/>
      <point x="524" y="144" type="line"/>
      <point x="535" y="36"/>
      <point x="604" y="-21"/>
      <point x="724" y="-21" type="curve" smooth="yes"/>
      <point x="880" y="-21"/>
      <point x="958" y="72"/>
      <point x="958" y="272" type="curve" smooth="yes"/>
      <point x="958" y="383" type="line" smooth="yes"/>
      <point x="958" y="542"/>
      <point x="908" y="628"/>
      <point x="788" y="641" type="curve"/>
      <point x="788" y="647" type="line"/>
      <point x="884" y="658"/>
      <point x="928" y="718"/>
      <point x="928" y="825" type="curve" smooth="yes"/>
      <point x="928" y="836" type="line" smooth="yes"/>
      <point x="928" y="955.238"/>
      <point x="880.662" y="1023.25"/>
      <point x="785" y="1040" type="curve"/>
      <point x="785" y="1068" type="line"/>
      <point x="537" y="1068" type="line"/>
      <point x="523" y="1046" type="line"/>
      <point x="689" y="1046"/>
      <point x="760" y="986.634"/>
      <point x="760" y="861" type="curve" smooth="yes"/>
      <point x="760" y="850" type="line" smooth="yes"/>
      <point x="760" y="759.674"/>
      <point x="729.018" y="719.552"/>
      <point x="642" y="716" type="curve" smooth="yes"/>
      <point x="593" y="714" type="line"/>
      <point x="593" y="566" type="line"/>
      <point x="654" y="564" type="line" smooth="yes"/>
      <point x="754.99" y="560.689"/>
      <point x="789" y="515"/>
      <point x="789" y="387" type="curve" smooth="yes"/>
    </contour>
    <contour>
      <point x="756" y="1046" type="line"/>
      <point x="746" y="1193" type="line"/>
      <point x="90" y="1193" type="line"/>
      <point x="90" y="1046" type="line"/>
    </contour>
    <contour>
      <point x="521" y="-393" type="curve" smooth="yes"/>
      <point x="579" y="-393"/>
      <point x="607" y="-355.667"/>
      <point x="607" y="-281" type="curve" smooth="yes"/>
      <point x="607" y="-265" type="line" smooth="yes"/>
      <point x="607" y="-146"/>
      <point x="572" y="-44"/>
      <point x="521" y="32" type="curve"/>
      <point x="471" y="-44"/>
      <point x="436" y="-146"/>
      <point x="436" y="-265" type="curve" smooth="yes"/>
      <point x="436" y="-281" type="line" smooth="yes"/>
      <point x="436" y="-355.667"/>
      <point x="464" y="-393"/>
    </contour>
    <contour>
      <point x="777" y="1513" type="line"/>
      <point x="799" y="1442"/>
      <point x="811" y="1375"/>
      <point x="811" y="1302" type="curve" smooth="yes"/>
      <point x="811" y="1225"/>
      <point x="784" y="1193"/>
      <point x="711" y="1193" type="curve" smooth="yes"/>
      <point x="676" y="1193" type="line"/>
      <point x="704" y="1045" type="line"/>
      <point x="778" y="1045" type="line" smooth="yes"/>
      <point x="901" y="1045"/>
      <point x="968" y="1121.33"/>
      <point x="968" y="1270" type="curve" smooth="yes"/>
      <point x="968" y="1357"/>
      <point x="950" y="1438"/>
      <point x="915" y="1513" type="curve"/>
    </contour>
  </outline>
</glyph>
<glyph name="Nna.kn" format="2">
  <advance width="1086"/>
  <unicode hex="0CA3"/>
  <outline>
    <contour>
      <point x="997" y="515" type="line"/>
      <point x="997" y="911" type="line" smooth="yes"/>
      <point x="997" y="1123"/>
      <point x="916.394" y="1220"/>
      <point x="746" y="1220" type="curve" smooth="yes"/>
      <point x="623.962" y="1220"/>
      <point x="553.668" y="1164.81"/>
      <point x="540" y="1058" type="curve"/>
      <point x="534" y="1058" type="line"/>
      <point x="520.394" y="1164.81"/>
      <point x="448.479" y="1220"/>
      <point x="327" y="1220" type="curve" smooth="yes"/>
      <point x="158.646" y="1220"/>
      <point x="76" y="1122"/>
      <point x="76" y="912" type="curve" smooth="yes"/>
      <point x="76" y="819" type="line" smooth="yes"/>
      <point x="76" y="669.958"/>
      <point x="126.843" y="587.271"/>
      <point x="241" y="574" type="curve"/>
      <point x="241" y="568" type="line"/>
      <point x="125.884" y="554.784"/>
      <point x="76" y="474.473"/>
      <point x="76" y="323" type="curve" smooth="yes"/>
      <point x="76" y="242" type="line" smooth="yes"/>
      <point x="76" y="60"/>
      <point x="158" y="-21"/>
      <point x="335" y="-21" type="curve" smooth="yes"/>
      <point x="361" y="-21"/>
      <point x="391" y="-18"/>
      <point x="425" y="-9" type="curve"/>
      <point x="437" y="139" type="line"/>
      <point x="417" y="132"/>
      <point x="389" y="129"/>
      <point x="364" y="129" type="curve" smooth="yes"/>
      <point x="281.692" y="129"/>
      <point x="245" y="169"/>
      <point x="245" y="271" type="curve" smooth="yes"/>
      <point x="245" y="345" type="line" smooth="yes"/>
      <point x="245" y="451.702"/>
      <point x="279.777" y="492.656"/>
      <point x="371" y="497" type="curve" smooth="yes"/>
      <point x="413" y="499" type="line"/>
      <point x="413" y="645" type="line"/>
      <point x="368" y="647" type="line" smooth="yes"/>
      <point x="276.782" y="651.054"/>
      <point x="245" y="696"/>
      <point x="245" y="813" type="curve" smooth="yes"/>
      <point x="245" y="909" type="line" smooth="yes"/>
      <point x="245" y="1011"/>
      <point x="279.333" y="1058"/>
      <point x="348" y="1058" type="curve" smooth="yes"/>
      <point x="416.692" y="1058"/>
      <point x="449.825" y="1012.97"/>
      <point x="453" y="912" type="curve" smooth="yes"/>
      <point x="458" y="753" type="line"/>
      <point x="616" y="753" type="line"/>
      <point x="621" y="911" type="line" smooth="yes"/>
      <point x="624.195" y="1011.97"/>
      <point x="657.302" y="1058"/>
      <point x="725" y="1058" type="curve" smooth="yes"/>
      <point x="795.642" y="1058"/>
      <point x="829" y="1011"/>
      <point x="829" y="908" type="curve" smooth="yes"/>
      <point x="829" y="511" type="line"/>
    </contour>
    <contour>
      <point x="831" y="535" type="line"/>
      <point x="831" y="260" type="line" smooth="yes"/>
      <point x="831" y="170.117"/>
      <point x="805.202" y="129"/>
      <point x="749" y="129" type="curve" smooth="yes"/>
      <point x="692.159" y="129"/>
      <point x="667" y="170.117"/>
      <point x="667" y="260" type="curve" smooth="yes"/>
      <point x="667" y="421" type="line" smooth="yes"/>
      <point x="667" y="506.744"/>
      <point x="696.714" y="535"/>
      <point x="745" y="535" type="curve" smooth="yes"/>
      <point x="804.13" y="535"/>
      <point x="836.556" y="493.024"/>
      <point x="848" y="412" type="curve"/>
      <point x="850" y="567" type="line"/>
      <point x="823" y="567" type="line"/>
      <point x="806.062" y="636.203"/>
      <point x="764.812" y="679"/>
      <point x="681" y="679" type="curve" smooth="yes"/>
      <point x="559.324" y="679"/>
      <point x="501" y="600"/>
      <point x="501" y="432" type="curve" smooth="yes"/>
      <point x="501" y="261" type="line" smooth="yes"/>
      <point x="501" y="73"/>
      <point x="582.341" y="-21"/>
      <point x="748" y="-21" type="curve" smooth="yes"/>
      <point x="913.024" y="-21"/>
      <point x="997" y="77.0166"/>
      <point x="997" y="278" type="curve" smooth="yes"/>
      <point x="997" y="532" type="line"/>
    </contour>
  </outline>
</glyph>
<glyph name="Dha.kn" format="2">
  <advance width="1031"/>
  <unicode hex="0CA7"/>
  <outline>
    <contour>
      <point x="260" y="695" type="line" smooth="yes"/>
      <point x="260" y="942.585"/>
      <point x="335.295" y="1046"/>
      <point x="515" y="1046" type="curve"/>
      <point x="515" y="1071" type="line"/>
      <point x="274" y="1071" type="line"/>
      <point x="274" y="1040" type="line"/>
      <point x="151" y="1012.23"/>
      <point x="88" y="909.092"/>
      <point x="88" y="682" type="curve" smooth="yes"/>
      <point x="88" y="272" type="line" smooth="yes"/>
      <point x="88" y="74"/>
      <point x="165" y="-21"/>
      <point x="317" y="-21" type="curve" smooth="yes"/>
      <point x="433.638" y="-21"/>
      <point x="500.966" y="35.9698"/>
      <point x="512" y="144" type="curve"/>
      <point x="518" y="144" type="line"/>
      <point x="530" y="36.3054"/>
      <point x="597" y="-21"/>
      <point x="714" y="-21" type="curve" smooth="yes"/>
      <point x="867" y="-21"/>
      <point x="942" y="74"/>
      <point x="942" y="272" type="curve" smooth="yes"/>
      <point x="942" y="682" type="line" smooth="yes"/>
      <point x="942" y="908.456"/>
      <point x="880.667" y="1011.31"/>
      <point x="758" y="1039" type="curve"/>
      <point x="758" y="1071" type="line"/>
      <point x="515" y="1071" type="line"/>
      <point x="515" y="1046" type="line"/>
      <point x="695" y="1046"/>
      <point x="770" y="942.585"/>
      <point x="770" y="695" type="curve" smooth="yes"/>
      <point x="770" y="272" type="line" smooth="yes"/>
      <point x="770" y="183"/>
      <point x="742.329" y="142"/>
      <point x="686" y="142" type="curve" smooth="yes"/>
      <point x="629.655" y="142"/>
      <point x="603.293" y="183.039"/>
      <point x="600" y="271" type="curve" smooth="yes"/>
      <point x="593" y="458" type="line"/>
      <point x="437" y="458" type="line"/>
      <point x="430" y="271" type="line" smooth="yes"/>
      <point x="426.707" y="183.039"/>
      <point x="400.345" y="142"/>
      <point x="344" y="142" type="curve" smooth="yes"/>
      <point x="288" y="142"/>
      <point x="260" y="183"/>
      <point x="260" y="272" type="curve" smooth="yes"/>
    </contour>
    <contour>
      <point x="724" y="1046" type="line"/>
      <point x="724" y="1193" type="line"/>
      <point x="90" y="1193" type="line"/>
      <point x="90" y="1046" type="line"/>
    </contour>
    <contour>
      <point x="761" y="1513" type="line"/>
      <point x="783" y="1442"/>
      <point x="795" y="1375"/>
      <point x="795" y="1302" type="curve" smooth="yes"/>
      <point x="795" y="1225"/>
      <point x="768" y="1193"/>
      <point x="695" y="1193" type="curve" smooth="yes"/>
      <point x="660" y="1193" type="line"/>
      <point x="688" y="1045" type="line"/>
      <point x="762" y="1045" type="line" smooth="yes"/>
      <point x="885" y="1045"/>
      <point x="952" y="1121.33"/>
      <point x="952" y="1270" type="curve" smooth="yes"/>
      <point x="952" y="1357"/>
      <point x="934" y="1438"/>
      <point x="899" y="1513" type="curve"/>
    </contour>
    <contour>
      <point x="515" y="-393" type="curve" smooth="yes"/>
      <point x="573" y="-393"/>
      <point x="601" y="-355.667"/>
      <point x="601" y="-281" type="curve" smooth="yes"/>
      <point x="601" y="-265" type="line" smooth="yes"/>
      <point x="601" y="-146"/>
      <point x="566" y="-44"/>
      <point x="515" y="32" type="curve"/>
      <point x="465" y="-44"/>
      <point x="430" y="-146"/>
      <point x="430" y="-265" type="curve" smooth="yes"/>
      <point x="430" y="-281" type="line" smooth="yes"/>
      <point x="430" y="-355.667"/>
      <point x="458" y="-393"/>
    </contour>
  </outline>
</glyph>
<glyph name="Na.kn" format="2">
  <advance width="1011"/>
  <unicode hex="0CA8"/>
  <outline>
    <contour>
      <point x="675" y="-21" type="curve" smooth="yes"/>
      <point x="841" y="-21"/>
      <point x="924" y="80"/>
      <point x="924" y="275" type="curve" smooth="yes"/>
      <point x="924" y="528" type="line" smooth="yes"/>
      <point x="924" y="868.331"/>
      <point x="842.878" y="1010.22"/>
      <point x="669" y="1039" type="curve"/>
      <point x="669" y="1076" type="line"/>
      <point x="315" y="1074" type="line"/>
      <point x="315" y="1045" type="line"/>
      <point x="635" y="1045"/>
      <point x="752" y="914.753"/>
      <point x="752" y="529" type="curve" smooth="yes"/>
      <point x="752" y="272" type="line" smooth="yes"/>
      <point x="752" y="181.353"/>
      <point x="726.317" y="138"/>
      <point x="671" y="138" type="curve" smooth="yes"/>
      <point x="614.484" y="138"/>
      <point x="590.255" y="177.378"/>
      <point x="580" y="272" type="curve" smooth="yes"/>
      <point x="558" y="475" type="line" smooth="yes"/>
      <point x="538.812" y="652.049"/>
      <point x="467.393" y="736"/>
      <point x="317" y="736" type="curve" smooth="yes"/>
      <point x="157.652" y="736"/>
      <point x="79" y="641"/>
      <point x="79" y="449" type="curve" smooth="yes"/>
      <point x="79" y="343" type="line" smooth="yes"/>
      <point x="79" y="188"/>
      <point x="99" y="68"/>
      <point x="137" y="-9" type="curve"/>
      <point x="307" y="-9" type="line"/>
      <point x="270" y="79"/>
      <point x="247" y="206"/>
      <point x="247" y="344" type="curve" smooth="yes"/>
      <point x="247" y="458" type="line" smooth="yes"/>
      <point x="247" y="540.5"/>
      <point x="268.467" y="578"/>
      <point x="317" y="578" type="curve" smooth="yes"/>
      <point x="365.286" y="578"/>
      <point x="387.086" y="540.515"/>
      <point x="395" y="461" type="curve" smooth="yes"/>
      <point x="416" y="250" type="line" smooth="yes"/>
      <point x="434.127" y="67.8678"/>
      <point x="513.253" y="-21"/>
    </contour>
    <contour>
      <point x="699" y="1045" type="line"/>
      <point x="699" y="1193" type="line"/>
      <point x="101" y="1193" type="line"/>
      <point x="101" y="1045" type="line"/>
    </contour>
    <contour>
      <point x="747" y="1513" type="line"/>
      <point x="769" y="1442"/>
      <point x="781" y="1375"/>
      <point x="781" y="1302" type="curve" smooth="yes"/>
      <point x="781" y="1225"/>
      <point x="754" y="1193"/>
      <point x="681" y="1193" type="curve" smooth="yes"/>
      <point x="646" y="1193" type="line"/>
      <point x="674" y="1045" type="line"/>
      <point x="748" y="1045" type="line" smooth="yes"/>
      <point x="871" y="1045"/>
      <point x="938" y="1121.33"/>
      <point x="938" y="1270" type="curve" smooth="yes"/>
      <point x="938" y="1357"/>
      <point x="920" y="1438"/>
      <point x="885" y="1513" type="curve"/>
    </contour>
  </outline>
  <guideline angle="0" x="0" y="965"/>
</glyph>
<glyph name="Ba.kn" format="2">
  <advance width="1061"/>
  <unicode hex="0CAC"/>
  <outline>
    <contour>
      <point x="731" y="1205" type="curve" smooth="yes"/>
      <point x="716" y="1205"/>
      <point x="700" y="1205"/>
      <point x="680" y="1203" type="curve"/>
      <point x="680" y="1044" type="line"/>
      <point x="688" y="1045"/>
      <point x="693" y="1045"/>
      <point x="697" y="1045" type="curve" smooth="yes"/>
      <point x="766" y="1045"/>
      <point x="799" y="999.412"/>
      <point x="799" y="890" type="curve" smooth="yes"/>
      <point x="799" y="282" type="line" smooth="yes"/>
      <point x="799" y="188"/>
      <point x="767.323" y="142"/>
      <point x="701" y="142" type="curve" smooth="yes"/>
      <point x="637.97" y="142"/>
      <point x="608.629" y="186.05"/>
      <point x="605" y="281" type="curve" smooth="yes"/>
      <point x="599" y="438" type="line"/>
      <point x="516" y="438" type="line"/>
      <point x="523" y="152" type="line"/>
      <point x="534.72" y="37.8936"/>
      <point x="606.014" y="-21"/>
      <point x="732" y="-21" type="curve" smooth="yes"/>
      <point x="888.269" y="-21"/>
      <point x="971" y="78"/>
      <point x="971" y="279" type="curve" smooth="yes"/>
      <point x="971" y="892" type="line" smooth="yes"/>
      <point x="971" y="1106"/>
      <point x="896" y="1205"/>
    </contour>
    <contour>
      <point x="322" y="1220" type="curve" smooth="yes"/>
      <point x="161.322" y="1220"/>
      <point x="79" y="1126.15"/>
      <point x="79" y="949" type="curve" smooth="yes"/>
      <point x="79" y="901" type="line" smooth="yes"/>
      <point x="79" y="820"/>
      <point x="94" y="748"/>
      <point x="117" y="705" type="curve"/>
      <point x="275" y="705" type="line"/>
      <point x="257.042" y="752.492"/>
      <point x="243" y="816.152"/>
      <point x="243" y="898" type="curve" smooth="yes"/>
      <point x="243" y="948" type="line" smooth="yes"/>
      <point x="243" y="1029.64"/>
      <point x="269.957" y="1068"/>
      <point x="323" y="1068" type="curve" smooth="yes"/>
      <point x="376.043" y="1068"/>
      <point x="403" y="1028.66"/>
      <point x="403" y="948" type="curve" smooth="yes"/>
      <point x="403" y="906" type="line" smooth="yes"/>
      <point x="403" y="808.632"/>
      <point x="377.068" y="749.838"/>
      <point x="303" y="684" type="curve" smooth="yes"/>
      <point x="231" y="620" type="line" smooth="yes"/>
      <point x="118.452" y="519.957"/>
      <point x="61" y="429.893"/>
      <point x="61" y="285" type="curve" smooth="yes"/>
      <point x="61" y="262" type="line" smooth="yes"/>
      <point x="61" y="72"/>
      <point x="145.708" y="-21"/>
      <point x="309" y="-21" type="curve" smooth="yes"/>
      <point x="434.585" y="-21"/>
      <point x="506.208" y="37.8936"/>
      <point x="517" y="152" type="curve"/>
      <point x="529" y="152" type="line"/>
      <point x="524" y="438" type="line"/>
      <point x="441" y="438" type="line"/>
      <point x="435" y="282" type="line" smooth="yes"/>
      <point x="431.31" y="186.051"/>
      <point x="399.686" y="142"/>
      <point x="332" y="142" type="curve" smooth="yes"/>
      <point x="264.667" y="142"/>
      <point x="231" y="185"/>
      <point x="231" y="277" type="curve" smooth="yes"/>
      <point x="231" y="294" type="line" smooth="yes"/>
      <point x="231" y="386.299"/>
      <point x="264.263" y="436.554"/>
      <point x="345" y="511" type="curve" smooth="yes"/>
      <point x="422" y="582" type="line" smooth="yes"/>
      <point x="519.222" y="671.646"/>
      <point x="569" y="768.044"/>
      <point x="569" y="904" type="curve" smooth="yes"/>
      <point x="569" y="946" type="line" smooth="yes"/>
      <point x="569" y="1127.28"/>
      <point x="485.322" y="1220"/>
    </contour>
  </outline>
</glyph>
<glyph name="Ya.kn" format="2">
  <advance width="1630"/>
  <unicode hex="0CAF"/>
  <outline>
    <component base="matraU.kn" xOffset="1219"/>
    <contour>
      <point x="801" y="1063" type="line"/>
      <point x="801" y="1045" type="line"/>
      <point x="913" y="1045"/>
      <point x="960" y="976"/>
      <point x="960" y="814" type="curve" smooth="yes"/>
      <point x="960" y="303" type="line" smooth="yes"/>
      <point x="960" y="190.681"/>
      <point x="926" y="138"/>
      <point x="847" y="138" type="curve" smooth="yes"/>
      <point x="763" y="138"/>
      <point x="723" y="190.683"/>
      <point x="723" y="304" type="curve" smooth="yes"/>
      <point x="723" y="406" type="line"/>
      <point x="646" y="406" type="line"/>
      <point x="646" y="280" type="line" smooth="yes"/>
      <point x="646" y="80"/>
      <point x="726.035" y="-21"/>
      <point x="882" y="-21" type="curve" smooth="yes"/>
      <point x="1049.72" y="-21"/>
      <point x="1132" y="84.9975"/>
      <point x="1132" y="291" type="curve" smooth="yes"/>
      <point x="1132" y="765" type="line" smooth="yes"/>
      <point x="1132" y="936.706"/>
      <point x="1085.97" y="1020.29"/>
      <point x="993" y="1043" type="curve"/>
      <point x="993" y="1064" type="line"/>
    </contour>
    <contour>
      <point x="784" y="1193" type="line"/>
      <point x="784" y="1045" type="line"/>
      <point x="936" y="1045" type="line"/>
      <point x="933" y="1193" type="line"/>
    </contour>
    <contour>
      <point x="723" y="864" type="line" smooth="yes"/>
      <point x="723" y="1101"/>
      <point x="618" y="1219"/>
      <point x="406" y="1219" type="curve" smooth="yes"/>
      <point x="195" y="1219"/>
      <point x="89" y="1101"/>
      <point x="89" y="864" type="curve" smooth="yes"/>
      <point x="89" y="333" type="line" smooth="yes"/>
      <point x="89" y="97"/>
      <point x="196" y="-22"/>
      <point x="406" y="-22" type="curve" smooth="yes"/>
      <point x="617" y="-22"/>
      <point x="723" y="97"/>
      <point x="723" y="333" type="curve" smooth="yes"/>
    </contour>
    <contour>
      <point x="406" y="136" type="curve" smooth="yes"/>
      <point x="309" y="136"/>
      <point x="261" y="203"/>
      <point x="261" y="336" type="curve" smooth="yes"/>
      <point x="261" y="860" type="line" smooth="yes"/>
      <point x="261" y="993.337"/>
      <point x="309" y="1061"/>
      <point x="406" y="1061" type="curve" smooth="yes"/>
      <point x="502.336" y="1061"/>
      <point x="551" y="993.337"/>
      <point x="551" y="860" type="curve" smooth="yes"/>
      <point x="551" y="336" type="line" smooth="yes"/>
      <point x="551" y="203"/>
      <point x="502.336" y="136"/>
    </contour>
    <contour>
      <point x="947" y="1513" type="line"/>
      <point x="969" y="1442"/>
      <point x="981" y="1375"/>
      <point x="981" y="1302" type="curve" smooth="yes"/>
      <point x="981" y="1225"/>
      <point x="954" y="1193"/>
      <point x="881" y="1193" type="curve" smooth="yes"/>
      <point x="846" y="1193" type="line"/>
      <point x="874" y="1045" type="line"/>
      <point x="948" y="1045" type="line" smooth="yes"/>
      <point x="1071" y="1045"/>
      <point x="1138" y="1121.33"/>
      <point x="1138" y="1270" type="curve" smooth="yes"/>
      <point x="1138" y="1357"/>
      <point x="1120" y="1438"/>
      <point x="1085" y="1513" type="curve"/>
    </contour>
  </outline>
</glyph>
<glyph name="Ra.kn" format="2">
  <advance width="859"/>
  <unicode hex="0CB0"/>
  <outline>
    <contour>
      <point x="237" y="1073" type="line"/>
      <point x="237" y="1041" type="line"/>
      <point x="136.688" y="1012.97"/>
      <point x="87" y="924.158"/>
      <point x="87" y="756" type="curve" smooth="yes"/>
      <point x="87" y="365" type="line" smooth="yes"/>
      <point x="87" y="104"/>
      <point x="200.331" y="-24"/>
      <point x="429" y="-24" type="curve" smooth="yes"/>
      <point x="658.674" y="-24"/>
      <point x="770" y="104"/>
      <point x="770" y="365" type="curve" smooth="yes"/>
      <point x="770" y="756" type="line" smooth="yes"/>
      <point x="770" y="924.158"/>
      <point x="721.312" y="1011.97"/>
      <point x="621" y="1040" type="curve"/>
      <point x="621" y="1073" type="line"/>
    </contour>
    <contour>
      <point x="429" y="134" type="curve" smooth="yes"/>
      <point x="314.655" y="134"/>
      <point x="259" y="212"/>
      <point x="259" y="369" type="curve" smooth="yes"/>
      <point x="259" y="810" type="line" smooth="yes"/>
      <point x="259" y="967"/>
      <point x="314.655" y="1046"/>
      <point x="429" y="1046" type="curve" smooth="yes"/>
      <point x="543.679" y="1046"/>
      <point x="598" y="967"/>
      <point x="598" y="810" type="curve" smooth="yes"/>
      <point x="598" y="369" type="line" smooth="yes"/>
      <point x="598" y="212"/>
      <point x="543.679" y="134"/>
    </contour>
    <contour>
      <point x="580" y="1046" type="line"/>
      <point x="580" y="1193" type="line"/>
      <point x="87" y="1193" type="line"/>
      <point x="87" y="1046" type="line"/>
    </contour>
    <contour>
      <point x="598" y="1513" type="line"/>
      <point x="620" y="1442"/>
      <point x="632" y="1375"/>
      <point x="632" y="1302" type="curve" smooth="yes"/>
      <point x="632" y="1225"/>
      <point x="605" y="1193"/>
      <point x="532" y="1193" type="curve" smooth="yes"/>
      <point x="497" y="1193" type="line"/>
      <point x="525" y="1045" type="line"/>
      <point x="599" y="1045" type="line" smooth="yes"/>
      <point x="722" y="1045"/>
      <point x="789" y="1121.33"/>
      <point x="789" y="1270" type="curve" smooth="yes"/>
      <point x="789" y="1357"/>
      <point x="771" y="1438"/>
      <point x="736" y="1513" type="curve"/>
    </contour>
  </outline>
  <guideline angle="90" x="951" y="0"/>
  <guideline angle="90" x="1623" y="0"/>
  <guideline angle="90" x="252" y="0"/>
</glyph>
<glyph name="RraObsolete.kn" format="2">
  <advance width="1257"/>
  <unicode hex="0CB1"/>
  <outline>
    <contour>
      <point x="88" y="659" type="line"/>
      <point x="88" y="329" type="line" smooth="yes"/>
      <point x="88" y="89.9"/>
      <point x="182.65" y="-21"/>
      <point x="378" y="-21" type="curve" smooth="yes"/>
      <point x="526.2" y="-21"/>
      <point x="607.55" y="45.7212"/>
      <point x="625" y="175" type="curve"/>
      <point x="631" y="175" type="line"/>
      <point x="648.45" y="45.7212"/>
      <point x="729.8" y="-21"/>
      <point x="878" y="-21" type="curve" smooth="yes"/>
      <point x="1073.35" y="-21"/>
      <point x="1168" y="89.9"/>
      <point x="1168" y="329" type="curve" smooth="yes"/>
      <point x="1168" y="922" type="line" smooth="yes"/>
      <point x="1168" y="1124.3"/>
      <point x="1084.05" y="1220"/>
      <point x="920" y="1220" type="curve" smooth="yes"/>
      <point x="755.35" y="1220"/>
      <point x="673" y="1128"/>
      <point x="673" y="943" type="curve" smooth="yes"/>
      <point x="673" y="842" type="line" smooth="yes"/>
      <point x="673" y="723.4"/>
      <point x="713.3" y="660.1"/>
      <point x="782" y="645" type="curve"/>
      <point x="782" y="621" type="line"/>
      <point x="918" y="632" type="line"/>
      <point x="918" y="639" type="line"/>
      <point x="868.6" y="639"/>
      <point x="839" y="683.9"/>
      <point x="839" y="778" type="curve" smooth="yes"/>
      <point x="839" y="941" type="line" smooth="yes"/>
      <point x="839" y="1030.15"/>
      <point x="864.4" y="1070"/>
      <point x="919" y="1070" type="curve" smooth="yes"/>
      <point x="974.15" y="1070"/>
      <point x="999" y="1030.15"/>
      <point x="999" y="941" type="curve" smooth="yes"/>
      <point x="999" y="334" type="line" smooth="yes"/>
      <point x="999" y="201.6"/>
      <point x="952.35" y="142"/>
      <point x="859" y="142" type="curve" smooth="yes"/>
      <point x="762.15" y="142"/>
      <point x="718.5" y="199.85"/>
      <point x="712" y="327" type="curve" smooth="yes"/>
      <point x="707" y="425" type="line"/>
      <point x="548" y="425" type="line"/>
      <point x="543" y="327" type="line" smooth="yes"/>
      <point x="536.45" y="198.9"/>
      <point x="493.85" y="142"/>
      <point x="397" y="142" type="curve" smooth="yes"/>
      <point x="303.65" y="142"/>
      <point x="257" y="201.6"/>
      <point x="257" y="334" type="curve" smooth="yes"/>
      <point x="257" y="668" type="line"/>
    </contour>
    <contour>
      <point x="931" y="499" type="line"/>
      <point x="931" y="639" type="line"/>
      <point x="540" y="639" type="line"/>
      <point x="405.997" y="499" type="line"/>
    </contour>
    <contour>
      <point x="406" y="499" type="curve"/>
      <point x="524.67" y="543.847"/>
      <point x="583" y="614.285"/>
      <point x="583" y="745" type="curve" smooth="yes"/>
      <point x="583" y="939" type="line" smooth="yes"/>
      <point x="583" y="1126.99"/>
      <point x="501.996" y="1220"/>
      <point x="339" y="1220" type="curve" smooth="yes"/>
      <point x="172.984" y="1220"/>
      <point x="88" y="1122.98"/>
      <point x="88" y="922" type="curve" smooth="yes"/>
      <point x="88" y="627" type="line"/>
      <point x="254" y="632" type="line"/>
      <point x="254" y="939" type="line" smooth="yes"/>
      <point x="254" y="1028.88"/>
      <point x="279.159" y="1070"/>
      <point x="336" y="1070" type="curve" smooth="yes"/>
      <point x="391.455" y="1070"/>
      <point x="416" y="1028.88"/>
      <point x="416" y="939" type="curve" smooth="yes"/>
      <point x="416" y="748" type="line" smooth="yes"/>
      <point x="416" y="666.487"/>
      <point x="388.062" y="639"/>
      <point x="343" y="639" type="curve" smooth="yes"/>
      <point x="281.327" y="639"/>
      <point x="248.564" y="680.613"/>
      <point x="237" y="759" type="curve"/>
      <point x="235" y="599" type="line"/>
      <point x="263" y="599" type="line"/>
      <point x="280.875" y="538.091"/>
      <point x="327.914" y="499"/>
    </contour>
  </outline>
  <guideline angle="90" x="490" y="0"/>
  <guideline angle="90" x="911" y="0"/>
</glyph>
<glyph name="Lla.kn" format="2">
  <advance width="975"/>
  <unicode hex="0CB3"/>
  <outline>
    <contour>
      <point x="757" y="1045" type="line"/>
      <point x="757" y="1193" type="line"/>
      <point x="586" y="1193" type="line"/>
      <point x="586" y="1045" type="line"/>
    </contour>
    <contour>
      <point x="492" y="382" type="curve" smooth="yes"/>
      <point x="559.059" y="382"/>
      <point x="587" y="341.591"/>
      <point x="587" y="255" type="curve" smooth="yes"/>
      <point x="587" y="241" type="line" smooth="yes"/>
      <point x="587" y="154.409"/>
      <point x="559.059" y="114"/>
      <point x="492" y="114" type="curve" smooth="yes"/>
      <point x="425.825" y="114"/>
      <point x="396" y="154.409"/>
      <point x="396" y="241" type="curve" smooth="yes"/>
      <point x="396" y="255" type="line" smooth="yes"/>
      <point x="396" y="341.591"/>
      <point x="425.825" y="382"/>
    </contour>
    <contour>
      <point x="492" y="473" type="line"/>
      <point x="408" y="460" type="line" smooth="yes"/>
      <point x="289.843" y="441.714"/>
      <point x="233" y="371.837"/>
      <point x="233" y="238" type="curve" smooth="yes"/>
      <point x="233" y="215" type="line" smooth="yes"/>
      <point x="233" y="52.0123"/>
      <point x="321.02" y="-31"/>
      <point x="492" y="-31" type="curve" smooth="yes"/>
      <point x="662.988" y="-31"/>
      <point x="750" y="52.0123"/>
      <point x="750" y="215" type="curve" smooth="yes"/>
      <point x="750" y="238" type="line" smooth="yes"/>
      <point x="750" y="371.837"/>
      <point x="695.164" y="441.558"/>
      <point x="576" y="460" type="curve" smooth="yes"/>
    </contour>
    <contour>
      <point x="216" y="783" type="line"/>
      <point x="216" y="944" type="line" smooth="yes"/>
      <point x="216" y="1030.45"/>
      <point x="240.852" y="1070"/>
      <point x="297" y="1070" type="curve" smooth="yes"/>
      <point x="352.455" y="1070"/>
      <point x="377" y="1030.45"/>
      <point x="377" y="944" type="curve" smooth="yes"/>
      <point x="377" y="888" type="line" smooth="yes"/>
      <point x="377" y="807.983"/>
      <point x="349.062" y="781"/>
      <point x="304" y="781" type="curve" smooth="yes"/>
      <point x="242.909" y="781"/>
      <point x="210.455" y="821.919"/>
      <point x="199" y="899" type="curve"/>
      <point x="197" y="739" type="line"/>
      <point x="224" y="739" type="line"/>
      <point x="241.875" y="679.309"/>
      <point x="288.914" y="641"/>
      <point x="367" y="641" type="curve" smooth="yes"/>
      <point x="485" y="641"/>
      <point x="543" y="717.368"/>
      <point x="543" y="875" type="curve" smooth="yes"/>
      <point x="543" y="944" type="line" smooth="yes"/>
      <point x="543" y="1128.65"/>
      <point x="462.328" y="1220"/>
      <point x="300" y="1220" type="curve" smooth="yes"/>
      <point x="135.307" y="1220"/>
      <point x="51" y="1124.6"/>
      <point x="51" y="927" type="curve" smooth="yes"/>
      <point x="51" y="797" type="line"/>
    </contour>
    <contour>
      <point x="51" y="810" type="line"/>
      <point x="51" y="765" type="line" smooth="yes"/>
      <point x="51" y="536.55"/>
      <point x="173" y="401.098"/>
      <point x="404" y="392" type="curve"/>
      <point x="502" y="433" type="line"/>
      <point x="584" y="397" type="line"/>
      <point x="801" y="406.38"/>
      <point x="911" y="530.398"/>
      <point x="911" y="743" type="curve" smooth="yes"/>
      <point x="911" y="799" type="line" smooth="yes"/>
      <point x="911" y="956"/>
      <point x="862.104" y="1024"/>
      <point x="787" y="1041" type="curve"/>
      <point x="787" y="1074" type="line"/>
      <point x="591" y="1074" type="line"/>
      <point x="591" y="1045" type="line"/>
      <point x="697.296" y="1045"/>
      <point x="742" y="981.819"/>
      <point x="742" y="831" type="curve" smooth="yes"/>
      <point x="742" y="770" type="line" smooth="yes"/>
      <point x="742" y="608.972"/>
      <point x="657.331" y="525"/>
      <point x="486" y="525" type="curve" smooth="yes"/>
      <point x="307.993" y="525"/>
      <point x="218" y="600.541"/>
      <point x="218" y="740" type="curve" smooth="yes"/>
      <point x="218" y="787" type="line"/>
    </contour>
    <contour>
      <point x="750" y="1513" type="line"/>
      <point x="772" y="1442"/>
      <point x="784" y="1375"/>
      <point x="784" y="1302" type="curve" smooth="yes"/>
      <point x="784" y="1225"/>
      <point x="757" y="1193"/>
      <point x="684" y="1193" type="curve" smooth="yes"/>
      <point x="649" y="1193" type="line"/>
      <point x="677" y="1045" type="line"/>
      <point x="751" y="1045" type="line" smooth="yes"/>
      <point x="874" y="1045"/>
      <point x="941" y="1121.33"/>
      <point x="941" y="1270" type="curve" smooth="yes"/>
      <point x="941" y="1357"/>
      <point x="923" y="1438"/>
      <point x="888" y="1513" type="curve"/>
    </contour>
  </outline>
  <guideline angle="0" x="0" y="454"/>
</glyph>
<glyph name="Ha.kn" format="2">
  <advance width="1098"/>
  <unicode hex="0CB9"/>
  <outline>
    <contour>
      <point x="338" y="-21" type="curve" smooth="yes"/>
      <point x="459.671" y="-21"/>
      <point x="534.244" y="36.8895"/>
      <point x="547" y="148" type="curve"/>
      <point x="553" y="148" type="line"/>
      <point x="571.404" y="35.9558"/>
      <point x="646.955" y="-21"/>
      <point x="769" y="-21" type="curve" smooth="yes"/>
      <point x="933.34" y="-21"/>
      <point x="1015" y="78"/>
      <point x="1015" y="291" type="curve" smooth="yes"/>
      <point x="1015" y="587" type="line" smooth="yes"/>
      <point x="1015" y="787"/>
      <point x="939" y="885"/>
      <point x="785" y="885" type="curve" smooth="yes"/>
      <point x="657" y="885"/>
      <point x="592" y="815.427"/>
      <point x="580" y="682" type="curve"/>
      <point x="599" y="677" type="line"/>
      <point x="589" y="817" type="line" smooth="yes"/>
      <point x="577.851" y="973.08"/>
      <point x="523.172" y="1026"/>
      <point x="447" y="1041" type="curve"/>
      <point x="447" y="1059" type="line"/>
      <point x="214" y="1061" type="line"/>
      <point x="214" y="1045" type="line"/>
      <point x="369.426" y="1045"/>
      <point x="418.295" y="986.378"/>
      <point x="432" y="801" type="curve" smooth="yes"/>
      <point x="470" y="287" type="line"/>
      <point x="462.144" y="180"/>
      <point x="432.685" y="137"/>
      <point x="361" y="137" type="curve" smooth="yes"/>
      <point x="286.676" y="137"/>
      <point x="251" y="187"/>
      <point x="251" y="298" type="curve" smooth="yes"/>
      <point x="251" y="561" type="line" smooth="yes"/>
      <point x="251" y="675.303"/>
      <point x="289.69" y="725"/>
      <point x="376" y="725" type="curve" smooth="yes"/>
      <point x="405" y="725"/>
      <point x="433" y="725"/>
      <point x="462" y="725" type="curve"/>
      <point x="462" y="785" type="line"/>
      <point x="428" y="785" type="line"/>
      <point x="387" y="869" type="line"/>
      <point x="369.679" y="869"/>
      <point x="354.283" y="869"/>
      <point x="336" y="869" type="curve" smooth="yes"/>
      <point x="165" y="869"/>
      <point x="83" y="770"/>
      <point x="83" y="564" type="curve" smooth="yes"/>
      <point x="83" y="294" type="line" smooth="yes"/>
      <point x="83" y="79"/>
      <point x="167.66" y="-21"/>
    </contour>
    <contour>
      <point x="745" y="137" type="curve" smooth="yes"/>
      <point x="676.273" y="137"/>
      <point x="644.539" y="178.046"/>
      <point x="637" y="280" type="curve" smooth="yes"/>
      <point x="616" y="564" type="line"/>
      <point x="621.905" y="676"/>
      <point x="661.27" y="732"/>
      <point x="740" y="732" type="curve" smooth="yes"/>
      <point x="811.333" y="732"/>
      <point x="847" y="685"/>
      <point x="847" y="582" type="curve" smooth="yes"/>
      <point x="847" y="295" type="line" smooth="yes"/>
      <point x="847" y="185"/>
      <point x="814.32" y="137"/>
    </contour>
    <contour>
      <point x="805" y="1045" type="line"/>
      <point x="805" y="1193" type="line"/>
      <point x="78" y="1193" type="line"/>
      <point x="78" y="1045" type="line"/>
    </contour>
    <contour>
      <point x="833" y="1513" type="line"/>
      <point x="855" y="1442"/>
      <point x="867" y="1375"/>
      <point x="867" y="1302" type="curve" smooth="yes"/>
      <point x="867" y="1225"/>
      <point x="840" y="1193"/>
      <point x="767" y="1193" type="curve" smooth="yes"/>
      <point x="732" y="1193" type="line"/>
      <point x="760" y="1045" type="line"/>
      <point x="834" y="1045" type="line" smooth="yes"/>
      <point x="957" y="1045"/>
      <point x="1024" y="1121.33"/>
      <point x="1024" y="1270" type="curve" smooth="yes"/>
      <point x="1024" y="1357"/>
      <point x="1006" y="1438"/>
      <point x="971" y="1513" type="curve"/>
    </contour>
  </outline>
</glyph>
<glyph name="Nukta1.kn" format="2">
  <unicode hex="0CBC"/>
  <anchor x="0" y="0" name="_nukta"/>
  <outline>
    <contour>
      <point x="-153" y="-95" type="curve" smooth="yes"/>
      <point x="-208.364" y="-95"/>
      <point x="-240" y="-130.2"/>
      <point x="-240" y="-205" type="curve" smooth="yes"/>
      <point x="-240" y="-279.8"/>
      <point x="-208.364" y="-315"/>
      <point x="-153" y="-315" type="curve" smooth="yes"/>
      <point x="-98.8462" y="-315"/>
      <point x="-65" y="-279.8"/>
      <point x="-65" y="-205" type="curve" smooth="yes"/>
      <point x="-65" y="-130.2"/>
      <point x="-98.8462" y="-95"/>
    </contour>
    <contour>
      <point x="153" y="-95" type="curve" smooth="yes"/>
      <point x="98.8462" y="-95"/>
      <point x="65" y="-130.2"/>
      <point x="65" y="-205" type="curve" smooth="yes"/>
      <point x="65" y="-279.8"/>
      <point x="98.8462" y="-315"/>
      <point x="153" y="-315" type="curve" smooth="yes"/>
      <point x="208.364" y="-315"/>
      <point x="240" y="-279.8"/>
      <point x="240" y="-205" type="curve" smooth="yes"/>
      <point x="240" y="-130.2"/>
      <point x="208.364" y="-95"/>
    </contour>
  </outline>
</glyph>
<glyph name="matraAa.kn" format="2">
  <advance width="889"/>
  <unicode hex="0CBE"/>
  <outline>
    <contour>
      <point x="802" y="527" type="line"/>
      <point x="802" y="720" type="line" smooth="yes"/>
      <point x="802" y="1044"/>
      <point x="665.613" y="1193"/>
      <point x="357" y="1193" type="curve" smooth="yes"/>
      <point x="-59" y="1193" type="line"/>
      <point x="-59" y="1045" type="line"/>
      <point x="344" y="1045" type="line" smooth="yes"/>
      <point x="547.596" y="1045"/>
      <point x="634" y="947.075"/>
      <point x="634" y="717" type="curve" smooth="yes"/>
      <point x="634" y="540" type="line"/>
    </contour>
    <contour>
      <point x="550" y="-21" type="curve" smooth="yes"/>
      <point x="717.012" y="-21"/>
      <point x="802" y="78"/>
      <point x="802" y="281" type="curve" smooth="yes"/>
      <point x="802" y="542" type="line"/>
      <point x="636" y="545" type="line"/>
      <point x="636" y="263" type="line" smooth="yes"/>
      <point x="636" y="171.058"/>
      <point x="609.258" y="129"/>
      <point x="551" y="129" type="curve" smooth="yes"/>
      <point x="492.08" y="129"/>
      <point x="466" y="171.058"/>
      <point x="466" y="263" type="curve" smooth="yes"/>
      <point x="466" y="453" type="line" smooth="yes"/>
      <point x="466" y="541"/>
      <point x="496.857" y="570"/>
      <point x="547" y="570" type="curve" smooth="yes"/>
      <point x="607.852" y="570"/>
      <point x="641.222" y="527"/>
      <point x="653" y="444" type="curve"/>
      <point x="655" y="601" type="line"/>
      <point x="628" y="601" type="line"/>
      <point x="610.704" y="670.821"/>
      <point x="568.582" y="714"/>
      <point x="483" y="714" type="curve" smooth="yes"/>
      <point x="359.296" y="714"/>
      <point x="300" y="634.04"/>
      <point x="300" y="464" type="curve" smooth="yes"/>
      <point x="300" y="264" type="line" smooth="yes"/>
      <point x="300" y="74"/>
      <point x="382.329" y="-21"/>
    </contour>
  </outline>
</glyph>
<glyph name="matraI.kn" format="2">
  <advance width="548"/>
  <unicode hex="0CBF"/>
  <outline>
    <contour>
      <point x="509" y="1150" type="line" smooth="yes"/>
      <point x="509" y="1332.39"/>
      <point x="431.333" y="1419"/>
      <point x="276" y="1419" type="curve" smooth="yes"/>
      <point x="123.991" y="1419"/>
      <point x="49" y="1337.02"/>
      <point x="49" y="1168" type="curve" smooth="yes"/>
      <point x="49" y="1121" type="line" smooth="yes"/>
      <point x="49" y="979.9"/>
      <point x="109.345" y="909"/>
      <point x="227" y="909" type="curve" smooth="yes"/>
      <point x="295.395" y="909"/>
      <point x="332.011" y="941.764"/>
      <point x="345" y="990" type="curve"/>
      <point x="366" y="990" type="line"/>
      <point x="362" y="1136" type="line"/>
      <point x="351.567" y="1070.95"/>
      <point x="323.113" y="1036"/>
      <point x="270" y="1036" type="curve" smooth="yes"/>
      <point x="228.907" y="1036"/>
      <point x="203" y="1060"/>
      <point x="203" y="1130" type="curve" smooth="yes"/>
      <point x="203" y="1171" type="line" smooth="yes"/>
      <point x="203" y="1248.19"/>
      <point x="227.05" y="1281"/>
      <point x="277" y="1281" type="curve" smooth="yes"/>
      <point x="327.875" y="1281"/>
      <point x="351" y="1248.19"/>
      <point x="351" y="1171" type="curve" smooth="yes"/>
      <point x="351" y="974" type="line" smooth="yes"/>
      <point x="351" y="860.687"/>
      <point x="305.221" y="809"/>
      <point x="210" y="809" type="curve" smooth="yes"/>
      <point x="179.928" y="809"/>
      <point x="151.058" y="813"/>
      <point x="127" y="819" type="curve"/>
      <point x="165" y="683" type="line"/>
      <point x="188.605" y="677.6"/>
      <point x="215.289" y="674"/>
      <point x="243" y="674" type="curve" smooth="yes"/>
      <point x="424.085" y="674"/>
      <point x="509" y="779.325"/>
      <point x="509" y="992" type="curve" smooth="yes"/>
    </contour>
  </outline>
</glyph>
<glyph name="matraU.kn" format="2">
  <advance width="411"/>
  <unicode hex="0CC1"/>
  <outline>
    <contour>
      <point x="81" y="1205" type="curve" smooth="yes"/>
      <point x="62" y="1205"/>
      <point x="45" y="1204"/>
      <point x="31" y="1203" type="curve"/>
      <point x="31" y="1044" type="line"/>
      <point x="38" y="1045"/>
      <point x="43" y="1045"/>
      <point x="47" y="1045" type="curve" smooth="yes"/>
      <point x="116.676" y="1045"/>
      <point x="150" y="999.412"/>
      <point x="150" y="890" type="curve" smooth="yes"/>
      <point x="150" y="304" type="line" smooth="yes"/>
      <point x="150" y="191.681"/>
      <point x="115.699" y="139"/>
      <point x="36" y="139" type="curve" smooth="yes"/>
      <point x="-48" y="139"/>
      <point x="-88" y="191.683"/>
      <point x="-88" y="305" type="curve" smooth="yes"/>
      <point x="-88" y="316" type="line"/>
      <point x="-157" y="316" type="line"/>
      <point x="-157" y="280" type="line" smooth="yes"/>
      <point x="-157" y="80"/>
      <point x="-77.9826" y="-21"/>
      <point x="76" y="-21" type="curve" smooth="yes"/>
      <point x="240.363" y="-21"/>
      <point x="322" y="85"/>
      <point x="322" y="291" type="curve" smooth="yes"/>
      <point x="322" y="892" type="line" smooth="yes"/>
      <point x="322" y="1106"/>
      <point x="246" y="1205"/>
    </contour>
  </outline>
  <guideline angle="90" x="-38" y="0"/>
  <guideline angle="90" x="-110" y="0"/>
  <guideline angle="90" x="344" y="0"/>
</glyph>
<glyph name="matraUu.kn" format="2">
  <advance width="992"/>
  <unicode hex="0CC2"/>
  <outline>
    <contour>
      <point x="13" y="139" type="curve" smooth="yes"/>
      <point x="-56" y="139"/>
      <point x="-89" y="184"/>
      <point x="-89" y="281" type="curve" smooth="yes"/>
      <point x="-89" y="317" type="line"/>
      <point x="-155" y="317" type="line"/>
      <point x="-155" y="254" type="line" smooth="yes"/>
      <point x="-155" y="71.3358"/>
      <point x="-82.9612" y="-21"/>
      <point x="57" y="-21" type="curve" smooth="yes"/>
      <point x="201.45" y="-21"/>
      <point x="271" y="77.3415"/>
      <point x="271" y="267" type="curve" smooth="yes"/>
      <point x="271" y="598" type="line"/>
      <point x="102" y="598" type="line"/>
      <point x="102" y="280" type="line" smooth="yes"/>
      <point x="102" y="184"/>
      <point x="75.3" y="139"/>
    </contour>
    <contour>
      <point x="505" y="1220" type="curve" smooth="yes"/>
      <point x="238" y="1220"/>
      <point x="102" y="1072"/>
      <point x="102" y="782" type="curve" smooth="yes"/>
      <point x="102" y="579" type="line"/>
      <point x="271" y="579" type="line"/>
      <point x="271" y="779" type="line" smooth="yes"/>
      <point x="271" y="967"/>
      <point x="342" y="1063"/>
      <point x="505" y="1063" type="curve" smooth="yes"/>
      <point x="667" y="1063"/>
      <point x="737" y="964"/>
      <point x="737" y="778" type="curve" smooth="yes"/>
      <point x="737" y="538" type="line"/>
      <point x="905" y="534" type="line"/>
      <point x="905" y="782" type="line" smooth="yes"/>
      <point x="905" y="1072"/>
      <point x="769" y="1220"/>
    </contour>
    <contour>
      <point x="905" y="542" type="line"/>
      <point x="739" y="545" type="line"/>
      <point x="739" y="263" type="line" smooth="yes"/>
      <point x="739" y="171"/>
      <point x="712" y="129"/>
      <point x="654" y="129" type="curve" smooth="yes"/>
      <point x="595" y="129"/>
      <point x="569" y="171"/>
      <point x="569" y="263" type="curve" smooth="yes"/>
      <point x="569" y="453" type="line" smooth="yes"/>
      <point x="569" y="541"/>
      <point x="600" y="570"/>
      <point x="650" y="570" type="curve" smooth="yes"/>
      <point x="711" y="570"/>
      <point x="744" y="527"/>
      <point x="756" y="444" type="curve"/>
      <point x="758" y="601" type="line"/>
      <point x="731" y="601" type="line"/>
      <point x="714" y="671"/>
      <point x="672" y="714"/>
      <point x="586" y="714" type="curve" smooth="yes"/>
      <point x="462" y="714"/>
      <point x="403" y="634"/>
      <point x="403" y="464" type="curve" smooth="yes"/>
      <point x="403" y="264" type="line" smooth="yes"/>
      <point x="403" y="74"/>
      <point x="485" y="-21"/>
      <point x="653" y="-21" type="curve" smooth="yes"/>
      <point x="820" y="-21"/>
      <point x="905" y="78"/>
      <point x="905" y="281" type="curve" smooth="yes"/>
    </contour>
  </outline>
</glyph>
<glyph name="matraRu.kn" format="2">
  <advance width="120"/>
  <unicode hex="0CC3"/>
  <outline>
    <contour>
      <point x="-359" y="-398" type="line"/>
      <point x="-359" y="-455" type="line" smooth="yes"/>
      <point x="-359" y="-642.816"/>
      <point x="-264.862" y="-742"/>
      <point x="-89" y="-742" type="curve" smooth="yes"/>
      <point x="87.5134" y="-742"/>
      <point x="182" y="-642.816"/>
      <point x="182" y="-455" type="curve" smooth="yes"/>
      <point x="182" y="-225" type="line" smooth="yes"/>
      <point x="182" y="-34.1003"/>
      <point x="155" y="80.6427"/>
      <point x="110" y="170" type="curve"/>
      <point x="-17" y="170" type="line"/>
      <point x="28" y="71.5"/>
      <point x="56" y="-39.1856"/>
      <point x="56" y="-224" type="curve" smooth="yes"/>
      <point x="56" y="-452" type="line" smooth="yes"/>
      <point x="56" y="-570.667"/>
      <point x="7.98676" y="-630"/>
      <point x="-89" y="-630" type="curve" smooth="yes"/>
      <point x="-185.987" y="-630"/>
      <point x="-234" y="-570.667"/>
      <point x="-234" y="-452" type="curve" smooth="yes"/>
      <point x="-234" y="-394" type="line"/>
    </contour>
    <contour>
      <point x="-192" y="-111.167" type="curve" smooth="yes"/>
      <point x="-302.013" y="-111.167"/>
      <point x="-358.667" y="-169.333"/>
      <point x="-358.667" y="-294" type="curve" smooth="yes"/>
      <point x="-358.667" y="-401.333" type="line"/>
      <point x="-234.333" y="-398.667" type="line"/>
      <point x="-234.333" y="-283" type="line" smooth="yes"/>
      <point x="-234.333" y="-239.267"/>
      <point x="-222.111" y="-219"/>
      <point x="-194.333" y="-219" type="curve" smooth="yes"/>
      <point x="-165.968" y="-219"/>
      <point x="-153.167" y="-239.267"/>
      <point x="-153.167" y="-283" type="curve" smooth="yes"/>
      <point x="-153.167" y="-348.333" type="line" smooth="yes"/>
      <point x="-153.167" y="-387.965"/>
      <point x="-166.344" y="-402.333"/>
      <point x="-189.833" y="-402.333" type="curve" smooth="yes"/>
      <point x="-221.808" y="-402.333"/>
      <point x="-238.777" y="-381.667"/>
      <point x="-247.167" y="-340.333" type="curve"/>
      <point x="-257.5" y="-439.833" type="line"/>
      <point x="-229.5" y="-439.833" type="line"/>
      <point x="-219.253" y="-478.128"/>
      <point x="-188.513" y="-500.167"/>
      <point x="-142.167" y="-500.167" type="curve" smooth="yes"/>
      <point x="-68.1971" y="-500.167"/>
      <point x="-29.5" y="-453.009"/>
      <point x="-29.5" y="-350.833" type="curve" smooth="yes"/>
      <point x="-29.5" y="-281.167" type="line" smooth="yes"/>
      <point x="-29.5" y="-167"/>
      <point x="-84.3459" y="-111.167"/>
    </contour>
  </outline>
</glyph>
<glyph name="matraAu.kn" format="2">
  <advance width="988"/>
  <unicode hex="0CCC"/>
  <outline>
    <contour>
      <point x="168" y="1045" type="line" smooth="yes"/>
      <point x="305.015" y="1045"/>
      <point x="372" y="1122.32"/>
      <point x="372" y="1263" type="curve" smooth="yes"/>
      <point x="372" y="1272" type="line" smooth="yes"/>
      <point x="372" y="1363.43"/>
      <point x="334.504" y="1418.84"/>
      <point x="265" y="1429" type="curve"/>
      <point x="265" y="1460" type="line"/>
      <point x="101" y="1460" type="line"/>
      <point x="99" y="1435" type="line"/>
      <point x="172.346" y="1435"/>
      <point x="208" y="1395.67"/>
      <point x="208" y="1318" type="curve" smooth="yes"/>
      <point x="208" y="1311" type="line" smooth="yes"/>
      <point x="208" y="1233.66"/>
      <point x="173" y="1193"/>
      <point x="101" y="1193" type="curve" smooth="yes"/>
      <point x="48" y="1193" type="line"/>
      <point x="48" y="1045" type="line"/>
    </contour>
    <contour>
      <point x="704.221" y="498.588" type="curve" smooth="yes"/>
      <point x="863.796" y="498.588"/>
      <point x="945" y="588.862"/>
      <point x="945" y="773.968" type="curve" smooth="yes"/>
      <point x="945" y="1034.8" type="line"/>
      <point x="783.738" y="1045.43" type="line"/>
      <point x="783.738" y="763.539" type="line" smooth="yes"/>
      <point x="783.738" y="680.397"/>
      <point x="759.027" y="642.364"/>
      <point x="705.193" y="642.364" type="curve" smooth="yes"/>
      <point x="650.746" y="642.364"/>
      <point x="626.647" y="680.397"/>
      <point x="626.647" y="763.539" type="curve" smooth="yes"/>
      <point x="626.647" y="938.002" type="line" smooth="yes"/>
      <point x="626.647" y="1016.72"/>
      <point x="655.089" y="1042.66"/>
      <point x="701.307" y="1042.66" type="curve" smooth="yes"/>
      <point x="756.961" y="1042.66"/>
      <point x="787.481" y="1003.96"/>
      <point x="798.253" y="929.259" type="curve"/>
      <point x="802.196" y="1081.83" type="line"/>
      <point x="776.966" y="1081.83" type="line"/>
      <point x="761.003" y="1144.72"/>
      <point x="722.125" y="1183.61"/>
      <point x="643.134" y="1183.61" type="curve" smooth="yes"/>
      <point x="523.656" y="1183.61"/>
      <point x="466.385" y="1107.85"/>
      <point x="466.385" y="946.745" type="curve" smooth="yes"/>
      <point x="466.385" y="769.453" type="line" smooth="yes"/>
      <point x="466.385" y="588.876"/>
      <point x="544.709" y="498.588"/>
    </contour>
    <contour>
      <point x="945" y="1023" type="line"/>
      <point x="945" y="1125" type="line" smooth="yes"/>
      <point x="945" y="1437.48"/>
      <point x="806.308" y="1581"/>
      <point x="488" y="1581" type="curve" smooth="yes"/>
      <point x="-12" y="1581" type="line"/>
      <point x="-12" y="1435" type="line"/>
      <point x="482" y="1435" type="line" smooth="yes"/>
      <point x="691.391" y="1435"/>
      <point x="783" y="1342.89"/>
      <point x="783" y="1124" type="curve" smooth="yes"/>
      <point x="783" y="1025" type="line"/>
    </contour>
  </outline>
</glyph>
<glyph name="Halant.kn" format="2">
  <advance width="476"/>
  <unicode hex="0CCD"/>
  <outline>
    <contour>
      <point x="150" y="1115" type="line"/>
      <point x="150" y="1201" type="line" smooth="yes"/>
      <point x="150" y="1322.51"/>
      <point x="196.787" y="1378"/>
      <point x="298" y="1378" type="curve" smooth="yes"/>
      <point x="343" y="1378"/>
      <point x="386" y="1371"/>
      <point x="434" y="1350" type="curve"/>
      <point x="418" y="1491" type="line"/>
      <point x="380.135" y="1510"/>
      <point x="331.432" y="1520"/>
      <point x="274" y="1520" type="curve" smooth="yes"/>
      <point x="88.3382" y="1520"/>
      <point x="-5" y="1415.68"/>
      <point x="-5" y="1196" type="curve" smooth="yes"/>
      <point x="-5" y="1116" type="line"/>
    </contour>
    <contour>
      <point x="223" y="590" type="curve" smooth="yes"/>
      <point x="375.661" y="590"/>
      <point x="451" y="674"/>
      <point x="451" y="841" type="curve" smooth="yes"/>
      <point x="451" y="940" type="line" smooth="yes"/>
      <point x="451" y="1116.8"/>
      <point x="382" y="1193"/>
      <point x="211" y="1193" type="curve" smooth="yes"/>
      <point x="-405" y="1193" type="line"/>
      <point x="-405" y="1045" type="line"/>
      <point x="81" y="1045" type="line"/>
      <point x="87" y="1050" type="line"/>
      <point x="195" y="1050" type="line" smooth="yes"/>
      <point x="272.342" y="1050"/>
      <point x="296" y="1017.97"/>
      <point x="296" y="934" type="curve" smooth="yes"/>
      <point x="296" y="841" type="line" smooth="yes"/>
      <point x="296" y="766.122"/>
      <point x="274.127" y="732"/>
      <point x="224" y="732" type="curve" smooth="yes"/>
      <point x="173.418" y="732"/>
      <point x="150" y="766.122"/>
      <point x="150" y="841" type="curve" smooth="yes"/>
      <point x="150" y="1121" type="line"/>
      <point x="-5" y="1121" type="line"/>
      <point x="-5" y="846" type="line" smooth="yes"/>
      <point x="-5" y="674"/>
      <point x="72.6814" y="590"/>
    </contour>
  </outline>
</glyph>
<glyph name="Lengthmark.kn" format="2">
  <advance width="647"/>
  <unicode hex="0CD5"/>
  <outline>
    <contour>
      <point x="246" y="646" type="line"/>
      <point x="246" y="936" type="line" smooth="yes"/>
      <point x="246" y="1027.94"/>
      <point x="272.08" y="1070"/>
      <point x="331" y="1070" type="curve" smooth="yes"/>
      <point x="388.534" y="1070"/>
      <point x="414" y="1027.94"/>
      <point x="414" y="936" type="curve" smooth="yes"/>
      <point x="414" y="740" type="line" smooth="yes"/>
      <point x="414" y="656.243"/>
      <point x="384.914" y="628"/>
      <point x="338" y="628" type="curve" smooth="yes"/>
      <point x="274.582" y="628"/>
      <point x="240.891" y="669.96"/>
      <point x="229" y="749" type="curve"/>
      <point x="227" y="588" type="line"/>
      <point x="254" y="588" type="line"/>
      <point x="272.375" y="527.091"/>
      <point x="320.73" y="488"/>
      <point x="401" y="488" type="curve" smooth="yes"/>
      <point x="521.682" y="488"/>
      <point x="581" y="566"/>
      <point x="581" y="727" type="curve" smooth="yes"/>
      <point x="581" y="936" type="line" smooth="yes"/>
      <point x="581" y="1126"/>
      <point x="499" y="1220"/>
      <point x="334" y="1220" type="curve" smooth="yes"/>
      <point x="166" y="1220"/>
      <point x="80" y="1122"/>
      <point x="80" y="919" type="curve" smooth="yes"/>
      <point x="80" y="637" type="line"/>
    </contour>
    <contour>
      <point x="80" y="660" type="line"/>
      <point x="80" y="438" type="line" smooth="yes"/>
      <point x="80" y="121"/>
      <point x="202" y="-13"/>
      <point x="479" y="-13" type="curve" smooth="yes"/>
      <point x="533" y="-13" type="line"/>
      <point x="564" y="140" type="line"/>
      <point x="518" y="140" type="line" smooth="yes"/>
      <point x="328" y="140"/>
      <point x="248" y="224.872"/>
      <point x="248" y="441" type="curve" smooth="yes"/>
      <point x="248" y="656" type="line"/>
    </contour>
  </outline>
</glyph>
<glyph name="matraAiLengthmark.kn" format="2">
  <advance width="114"/>
  <unicode hex="0CD6"/>
  <outline>
    <contour>
      <point x="-278" y="-425" type="line"/>
      <point x="-402" y="-414" type="line"/>
      <point x="-402" y="-464" type="line" smooth="yes"/>
      <point x="-402" y="-645"/>
      <point x="-306" y="-742"/>
      <point x="-128" y="-742" type="curve" smooth="yes"/>
      <point x="49" y="-742"/>
      <point x="145" y="-644"/>
      <point x="145" y="-459" type="curve" smooth="yes"/>
      <point x="145" y="-326" type="line" smooth="yes"/>
      <point x="145" y="-207"/>
      <point x="107" y="-145"/>
      <point x="43" y="-129" type="curve"/>
      <point x="-95" y="-110" type="line"/>
      <point x="-95" y="-177" type="line"/>
      <point x="-68" y="-179" type="line" smooth="yes"/>
      <point x="-9" y="-182"/>
      <point x="19" y="-224"/>
      <point x="19" y="-316" type="curve" smooth="yes"/>
      <point x="19" y="-455" type="line" smooth="yes"/>
      <point x="19" y="-572"/>
      <point x="-30" y="-630"/>
      <point x="-128" y="-630" type="curve" smooth="yes"/>
      <point x="-230" y="-630"/>
      <point x="-278" y="-573.04"/>
      <point x="-278" y="-460" type="curve" smooth="yes"/>
    </contour>
    <contour>
      <point x="43" y="-125" type="line"/>
      <point x="107" y="-116"/>
      <point x="140" y="-67"/>
      <point x="140" y="22" type="curve" smooth="yes"/>
      <point x="140" y="72"/>
      <point x="126" y="123"/>
      <point x="103" y="169" type="curve"/>
      <point x="-12" y="169" type="line"/>
      <point x="7" y="125"/>
      <point x="16" y="79"/>
      <point x="16" y="30" type="curve" smooth="yes"/>
      <point x="16" y="-34"/>
      <point x="-10" y="-63"/>
      <point x="-65" y="-67" type="curve" smooth="yes"/>
      <point x="-95" y="-69" type="line"/>
      <point x="-95" y="-141" type="line"/>
      <point x="43" y="-141" type="line"/>
    </contour>
    <contour>
      <point x="-236" y="-172" type="curve" smooth="yes"/>
      <point x="-346" y="-172"/>
      <point x="-402" y="-230"/>
      <point x="-402" y="-355" type="curve" smooth="yes"/>
      <point x="-402" y="-438" type="line"/>
      <point x="-278" y="-435" type="line"/>
      <point x="-278" y="-344" type="line" smooth="yes"/>
      <point x="-278" y="-300"/>
      <point x="-266" y="-280"/>
      <point x="-238" y="-280" type="curve" smooth="yes"/>
      <point x="-210" y="-280"/>
      <point x="-197" y="-300"/>
      <point x="-197" y="-344" type="curve" smooth="yes"/>
      <point x="-197" y="-380" type="line" smooth="yes"/>
      <point x="-197" y="-420"/>
      <point x="-211" y="-434"/>
      <point x="-234" y="-434" type="curve" smooth="yes"/>
      <point x="-266" y="-434"/>
      <point x="-283" y="-413"/>
      <point x="-291" y="-372" type="curve"/>
      <point x="-301" y="-471" type="line"/>
      <point x="-273" y="-471" type="line"/>
      <point x="-263" y="-509"/>
      <point x="-232" y="-531"/>
      <point x="-186" y="-531" type="curve" smooth="yes"/>
      <point x="-112" y="-531"/>
      <point x="-73" y="-484"/>
      <point x="-73" y="-382" type="curve" smooth="yes"/>
      <point x="-73" y="-342" type="line" smooth="yes"/>
      <point x="-73" y="-228"/>
      <point x="-128" y="-172"/>
    </contour>
  </outline>
</glyph>
<glyph name="LllaObsolete.kn" format="2">
  <advance width="1257"/>
  <unicode hex="0CDE"/>
  <outline>
    <contour>
      <point x="88" y="669" type="line"/>
      <point x="88" y="329" type="line" smooth="yes"/>
      <point x="88" y="89.8911"/>
      <point x="182.644" y="-21"/>
      <point x="378" y="-21" type="curve" smooth="yes"/>
      <point x="526.2" y="-21"/>
      <point x="607.543" y="45.7234"/>
      <point x="625" y="175" type="curve"/>
      <point x="631" y="175" type="line"/>
      <point x="648.457" y="45.7234"/>
      <point x="729.8" y="-21"/>
      <point x="878" y="-21" type="curve" smooth="yes"/>
      <point x="1073.36" y="-21"/>
      <point x="1168" y="89.8911"/>
      <point x="1168" y="329" type="curve" smooth="yes"/>
      <point x="1168" y="669" type="line"/>
      <point x="999" y="678" type="line"/>
      <point x="999" y="334" type="line" smooth="yes"/>
      <point x="999" y="201.586"/>
      <point x="952.333" y="142"/>
      <point x="859" y="142" type="curve" smooth="yes"/>
      <point x="762.135" y="142"/>
      <point x="718.871" y="199.883"/>
      <point x="712" y="327" type="curve" smooth="yes"/>
      <point x="706" y="438" type="line"/>
      <point x="549" y="438" type="line"/>
      <point x="543" y="327" type="line" smooth="yes"/>
      <point x="536.078" y="198.944"/>
      <point x="493.865" y="142"/>
      <point x="397" y="142" type="curve" smooth="yes"/>
      <point x="303.667" y="142"/>
      <point x="257" y="201.586"/>
      <point x="257" y="334" type="curve" smooth="yes"/>
      <point x="257" y="678" type="line"/>
    </contour>
    <contour>
      <point x="339" y="1220" type="curve" smooth="yes"/>
      <point x="172.984" y="1220"/>
      <point x="88" y="1122.98"/>
      <point x="88" y="922" type="curve" smooth="yes"/>
      <point x="88" y="637" type="line"/>
      <point x="254" y="642" type="line"/>
      <point x="254" y="939" type="line" smooth="yes"/>
      <point x="254" y="1028.88"/>
      <point x="279.159" y="1070"/>
      <point x="336" y="1070" type="curve" smooth="yes"/>
      <point x="391.455" y="1070"/>
      <point x="416" y="1028.88"/>
      <point x="416" y="939" type="curve" smooth="yes"/>
      <point x="416" y="758" type="line" smooth="yes"/>
      <point x="416" y="676.487"/>
      <point x="388.062" y="649"/>
      <point x="343" y="649" type="curve" smooth="yes"/>
      <point x="281.327" y="649"/>
      <point x="248.564" y="690.613"/>
      <point x="237" y="769" type="curve"/>
      <point x="235" y="609" type="line"/>
      <point x="263" y="609" type="line"/>
      <point x="280.875" y="548.091"/>
      <point x="327.914" y="509"/>
      <point x="406" y="509" type="curve" smooth="yes"/>
      <point x="524.67" y="509"/>
      <point x="583" y="586.021"/>
      <point x="583" y="745" type="curve" smooth="yes"/>
      <point x="583" y="939" type="line" smooth="yes"/>
      <point x="583" y="1126.99"/>
      <point x="501.996" y="1220"/>
    </contour>
    <contour>
      <point x="917" y="1220" type="curve" smooth="yes"/>
      <point x="754.004" y="1220"/>
      <point x="673" y="1126.99"/>
      <point x="673" y="939" type="curve" smooth="yes"/>
      <point x="673" y="745" type="line" smooth="yes"/>
      <point x="673" y="586.021"/>
      <point x="731.33" y="509"/>
      <point x="850" y="509" type="curve" smooth="yes"/>
      <point x="928.086" y="509"/>
      <point x="975.125" y="548.091"/>
      <point x="993" y="609" type="curve"/>
      <point x="1021" y="609" type="line"/>
      <point x="1019" y="769" type="line"/>
      <point x="1007.44" y="690.613"/>
      <point x="974.673" y="649"/>
      <point x="913" y="649" type="curve" smooth="yes"/>
      <point x="867.938" y="649"/>
      <point x="840" y="676.487"/>
      <point x="840" y="758" type="curve" smooth="yes"/>
      <point x="840" y="939" type="line" smooth="yes"/>
      <point x="840" y="1028.88"/>
      <point x="864.545" y="1070"/>
      <point x="920" y="1070" type="curve" smooth="yes"/>
      <point x="976.841" y="1070"/>
      <point x="1002" y="1028.88"/>
      <point x="1002" y="939" type="curve" smooth="yes"/>
      <point x="1002" y="642" type="line"/>
      <point x="1168" y="637" type="line"/>
      <point x="1168" y="922" type="line" smooth="yes"/>
      <point x="1168" y="1122.98"/>
      <point x="1083.02" y="1220"/>
    </contour>
  </outline>
</glyph>
<glyph name="vowelLruu.kn" format="2">
  <advance width="1053"/>
  <unicode hex="0CE1"/>
  <outline>
    <contour>
      <point x="472" y="-36" type="line"/>
      <point x="443" y="-36" type="line"/>
      <point x="425.984" y="22.4536"/>
      <point x="390.336" y="54"/>
      <point x="322" y="54" type="curve" smooth="yes"/>
      <point x="208.436" y="54"/>
      <point x="149" y="-25.4389"/>
      <point x="149" y="-177" type="curve" smooth="yes"/>
      <point x="149" y="-236" type="line" smooth="yes"/>
      <point x="149" y="-392.416"/>
      <point x="207.738" y="-468"/>
      <point x="318" y="-468" type="curve" smooth="yes"/>
      <point x="387.349" y="-468"/>
      <point x="428.372" y="-438.918"/>
      <point x="444" y="-377" type="curve"/>
      <point x="466" y="-377" type="line"/>
      <point x="457" y="-262" type="line"/>
      <point x="446" y="-310.28"/>
      <point x="415" y="-333"/>
      <point x="373" y="-333" type="curve" smooth="yes"/>
      <point x="326.697" y="-333"/>
      <point x="304" y="-300.308"/>
      <point x="304" y="-233" type="curve" smooth="yes"/>
      <point x="304" y="-184" type="line" smooth="yes"/>
      <point x="304" y="-115.654"/>
      <point x="327.636" y="-81"/>
      <point x="374" y="-81" type="curve" smooth="yes"/>
      <point x="425" y="-81"/>
      <point x="450" y="-115.654"/>
      <point x="450" y="-184" type="curve"/>
    </contour>
    <contour>
      <point x="445" y="1193" type="line"/>
      <point x="445" y="991" type="line" smooth="yes"/>
      <point x="445" y="898.488"/>
      <point x="453.312" y="827.688"/>
      <point x="464" y="755" type="curve"/>
      <point x="458" y="754" type="line"/>
      <point x="434.94" y="812.315"/>
      <point x="388.015" y="848"/>
      <point x="305" y="848" type="curve" smooth="yes"/>
      <point x="153.231" y="848"/>
      <point x="80" y="745.913"/>
      <point x="80" y="547" type="curve" smooth="yes"/>
      <point x="80" y="459" type="line" smooth="yes"/>
      <point x="80" y="342.613"/>
      <point x="99.1795" y="218.894"/>
      <point x="148" y="130" type="curve"/>
      <point x="316" y="130" type="line"/>
      <point x="267.273" y="229.967"/>
      <point x="249" y="358.365"/>
      <point x="249" y="462" type="curve" smooth="yes"/>
      <point x="249" y="547" type="line" smooth="yes"/>
      <point x="249" y="647"/>
      <point x="280.68" y="693"/>
      <point x="348" y="693" type="curve" smooth="yes"/>
      <point x="411.7" y="693"/>
      <point x="444.495" y="646.999"/>
      <point x="445" y="554" type="curve" smooth="yes"/>
      <point x="451" y="-550.032" type="line"/>
      <point x="607" y="-550.032" type="line"/>
      <point x="613" y="554" type="line" smooth="yes"/>
      <point x="613.505" y="647.004"/>
      <point x="645.657" y="693"/>
      <point x="710" y="693" type="curve" smooth="yes"/>
      <point x="776.653" y="693"/>
      <point x="809" y="647"/>
      <point x="809" y="547" type="curve" smooth="yes"/>
      <point x="809" y="462" type="line" smooth="yes"/>
      <point x="809" y="358.365"/>
      <point x="790.727" y="229.967"/>
      <point x="742" y="130" type="curve"/>
      <point x="911" y="130" type="line"/>
      <point x="960.597" y="218.894"/>
      <point x="978" y="342.613"/>
      <point x="978" y="459" type="curve" smooth="yes"/>
      <point x="978" y="547" type="line" smooth="yes"/>
      <point x="978" y="745.913"/>
      <point x="905.83" y="848"/>
      <point x="753" y="848" type="curve" smooth="yes"/>
      <point x="670.016" y="848"/>
      <point x="623.973" y="812.315"/>
      <point x="600" y="754" type="curve"/>
      <point x="594" y="755" type="line"/>
      <point x="605.875" y="827.705"/>
      <point x="613" y="898.522"/>
      <point x="613" y="992" type="curve" smooth="yes"/>
      <point x="613" y="1193" type="line"/>
    </contour>
  </outline>
  <guideline angle="0" x="0" y="1519"/>
</glyph>
<glyph name="matraLru.kn" format="2">
  <unicode hex="0CE2"/>
  <outline>
    <contour>
      <point x="-207.833" y="-118.833" type="line"/>
      <point x="-207.833" y="-205.5" type="line" smooth="yes"/>
      <point x="-207.833" y="-257.472"/>
      <point x="-202.333" y="-301.975"/>
      <point x="-193.667" y="-346.167" type="curve"/>
      <point x="-198" y="-347.167" type="line"/>
      <point x="-211.717" y="-313.937"/>
      <point x="-235.801" y="-294.167"/>
      <point x="-287" y="-294.167" type="curve" smooth="yes"/>
      <point x="-376.626" y="-294.167"/>
      <point x="-423.5" y="-354.667"/>
      <point x="-423.5" y="-469.5" type="curve" smooth="yes"/>
      <point x="-423.5" y="-530.167" type="line" smooth="yes"/>
      <point x="-423.5" y="-607.833"/>
      <point x="-414" y="-671.833"/>
      <point x="-389.5" y="-720.167" type="curve"/>
      <point x="-270.333" y="-720.167" type="line"/>
      <point x="-290.5" y="-673.167"/>
      <point x="-301.667" y="-602"/>
      <point x="-301.667" y="-533.667" type="curve" smooth="yes"/>
      <point x="-301.667" y="-470.667" type="line" smooth="yes"/>
      <point x="-301.667" y="-425.504"/>
      <point x="-286" y="-403.333"/>
      <point x="-255.333" y="-403.333" type="curve" smooth="yes"/>
      <point x="-224.5" y="-403.333"/>
      <point x="-209.242" y="-425.66"/>
      <point x="-208.667" y="-470.5" type="curve" smooth="yes"/>
      <point x="-205.5" y="-717.167" type="line"/>
      <point x="-94.8333" y="-717.167" type="line"/>
      <point x="-91.6666" y="-470.5" type="line" smooth="yes"/>
      <point x="-91.0911" y="-425.671"/>
      <point x="-76.1665" y="-403.333"/>
      <point x="-45.1665" y="-403.333" type="curve" smooth="yes"/>
      <point x="-13.8259" y="-403.333"/>
      <point x="1.33346" y="-425.504"/>
      <point x="1.33346" y="-470.667" type="curve" smooth="yes"/>
      <point x="1.33346" y="-533.667" type="line" smooth="yes"/>
      <point x="1.33346" y="-602"/>
      <point x="-12.1665" y="-673.167"/>
      <point x="-37.3332" y="-720.167" type="curve"/>
      <point x="83.1668" y="-720.167" type="line"/>
      <point x="107.833" y="-671.833"/>
      <point x="123" y="-607.833"/>
      <point x="123" y="-530.167" type="curve" smooth="yes"/>
      <point x="123" y="-469.5" type="line" smooth="yes"/>
      <point x="123" y="-354.667"/>
      <point x="76.4698" y="-294.167"/>
      <point x="-12.5" y="-294.167" type="curve" smooth="yes"/>
      <point x="-64.4964" y="-294.167"/>
      <point x="-87.7832" y="-313.937"/>
      <point x="-101.5" y="-347.167" type="curve"/>
      <point x="-104.667" y="-346.167" type="line"/>
      <point x="-96" y="-301.975"/>
      <point x="-91.6667" y="-257.472"/>
      <point x="-91.6667" y="-205.5" type="curve" smooth="yes"/>
      <point x="-91.6667" y="-118.833" type="line"/>
    </contour>
  </outline>
</glyph>
<glyph name="matraLruu.kn" format="2">
  <unicode hex="0CE3"/>
  <outline>
    <contour>
      <point x="-276" y="-568.333" type="curve" smooth="yes"/>
      <point x="-349.534" y="-568.333"/>
      <point x="-383.5" y="-614.886"/>
      <point x="-383.5" y="-705.833" type="curve" smooth="yes"/>
      <point x="-383.5" y="-716.167" type="line" smooth="yes"/>
      <point x="-383.5" y="-807.071"/>
      <point x="-349.019" y="-849.667"/>
      <point x="-276.833" y="-849.667" type="curve" smooth="yes"/>
      <point x="-235.214" y="-849.667"/>
      <point x="-208.554" y="-831.167"/>
      <point x="-199.167" y="-792.167" type="curve"/>
      <point x="-185.667" y="-792.167" type="line"/>
      <point x="-193.167" y="-724.833" type="line"/>
      <point x="-199" y="-752.333"/>
      <point x="-216.167" y="-765.667"/>
      <point x="-239.167" y="-765.667" type="curve" smooth="yes"/>
      <point x="-266.667" y="-765.667"/>
      <point x="-279.833" y="-748"/>
      <point x="-279.833" y="-713.167" type="curve" smooth="yes"/>
      <point x="-279.833" y="-706.167" type="line" smooth="yes"/>
      <point x="-279.833" y="-671.167"/>
      <point x="-265.833" y="-652.333"/>
      <point x="-237.5" y="-652.333" type="curve" smooth="yes"/>
      <point x="-210.167" y="-652.333"/>
      <point x="-197" y="-670.333"/>
      <point x="-196" y="-703.667" type="curve"/>
      <point x="-181.5" y="-614.667" type="line"/>
      <point x="-200.333" y="-614.667" type="line"/>
      <point x="-209.801" y="-583.686"/>
      <point x="-232.32" y="-568.333"/>
    </contour>
    <contour>
      <point x="-198.167" y="-118.833" type="line"/>
      <point x="-198.167" y="-197.167" type="line" smooth="yes"/>
      <point x="-198.167" y="-237.545"/>
      <point x="-194.667" y="-272.877"/>
      <point x="-186" y="-308.667" type="curve"/>
      <point x="-190.333" y="-309.667" type="line"/>
      <point x="-204.05" y="-276.437"/>
      <point x="-226.134" y="-256.667"/>
      <point x="-277.333" y="-256.667" type="curve" smooth="yes"/>
      <point x="-366.96" y="-256.667"/>
      <point x="-413.833" y="-315.833"/>
      <point x="-413.833" y="-426.167" type="curve" smooth="yes"/>
      <point x="-413.833" y="-440.167" type="line" smooth="yes"/>
      <point x="-413.833" y="-479.5"/>
      <point x="-410" y="-514.833"/>
      <point x="-401.167" y="-546.167" type="curve"/>
      <point x="-282.667" y="-546.167" type="line"/>
      <point x="-289.167" y="-516"/>
      <point x="-292" y="-483"/>
      <point x="-292" y="-449.5" type="curve" smooth="yes"/>
      <point x="-292" y="-433.167" type="line" smooth="yes"/>
      <point x="-292" y="-387.333"/>
      <point x="-275.333" y="-364.833"/>
      <point x="-244.667" y="-364.833" type="curve" smooth="yes"/>
      <point x="-213.833" y="-364.833"/>
      <point x="-199.407" y="-387.502"/>
      <point x="-199" y="-433" type="curve" smooth="yes"/>
      <point x="-195" y="-879.667" type="line"/>
      <point x="-84.3333" y="-879.667" type="line"/>
      <point x="-82" y="-433" type="line" smooth="yes"/>
      <point x="-81.7623" y="-387.501"/>
      <point x="-68.4789" y="-364.833"/>
      <point x="-35.5" y="-364.833" type="curve" smooth="yes"/>
      <point x="-4.17145" y="-364.833"/>
      <point x="11.8333" y="-387.333"/>
      <point x="11.8333" y="-433.167" type="curve" smooth="yes"/>
      <point x="11.8333" y="-449.5" type="line" smooth="yes"/>
      <point x="11.8333" y="-483"/>
      <point x="7.16668" y="-516"/>
      <point x="-0.66665" y="-546.167" type="curve"/>
      <point x="118.5" y="-546.167" type="line"/>
      <point x="129.5" y="-514.833"/>
      <point x="133.667" y="-479.5"/>
      <point x="133.667" y="-440.167" type="curve" smooth="yes"/>
      <point x="133.667" y="-426.167" type="line" smooth="yes"/>
      <point x="133.667" y="-315.833"/>
      <point x="86.7931" y="-256.667"/>
      <point x="-2.83332" y="-256.667" type="curve" smooth="yes"/>
      <point x="-54.8297" y="-256.667"/>
      <point x="-76.1165" y="-276.437"/>
      <point x="-89.8333" y="-309.667" type="curve"/>
      <point x="-94" y="-308.667" type="line"/>
      <point x="-85.3333" y="-272.877"/>
      <point x="-82" y="-237.545"/>
      <point x="-82" y="-197.167" type="curve" smooth="yes"/>
      <point x="-82" y="-118.833" type="line"/>
    </contour>
  </outline>
</glyph>
<glyph name="Shunya.kn" format="2">
  <advance width="829"/>
  <unicode hex="0CE6"/>
  <outline>
    <contour>
      <point x="259" y="580" type="line"/>
      <point x="259" y="851" type="line" smooth="yes"/>
      <point x="259" y="990.337"/>
      <point x="310.667" y="1061"/>
      <point x="414" y="1061" type="curve" smooth="yes"/>
      <point x="518" y="1061"/>
      <point x="569" y="990.336"/>
      <point x="569" y="851" type="curve" smooth="yes"/>
      <point x="569" y="580" type="line"/>
      <point x="741" y="580" type="line"/>
      <point x="741" y="855" type="line" smooth="yes"/>
      <point x="741" y="1099"/>
      <point x="633" y="1219"/>
      <point x="414" y="1219" type="curve" smooth="yes"/>
      <point x="196" y="1219"/>
      <point x="87" y="1099"/>
      <point x="87" y="855" type="curve" smooth="yes"/>
      <point x="87" y="580" type="line"/>
    </contour>
    <contour>
      <point x="259" y="633" type="line"/>
      <point x="87" y="633" type="line"/>
      <point x="87" y="341" type="line" smooth="yes"/>
      <point x="87" y="97"/>
      <point x="196" y="-24"/>
      <point x="414" y="-24" type="curve" smooth="yes"/>
      <point x="633" y="-24"/>
      <point x="741" y="97"/>
      <point x="741" y="341" type="curve" smooth="yes"/>
      <point x="741" y="633" type="line"/>
      <point x="569" y="633" type="line"/>
      <point x="569" y="345" type="line" smooth="yes"/>
      <point x="569" y="205.66"/>
      <point x="518" y="134"/>
      <point x="414" y="134" type="curve" smooth="yes"/>
      <point x="310.667" y="134"/>
      <point x="259" y="205.66"/>
      <point x="259" y="345" type="curve" smooth="yes"/>
    </contour>
  </outline>
</glyph>
<glyph name="Ondu.kn" format="2">
  <advance width="829"/>
  <unicode hex="0CE7"/>
  <outline>
    <contour>
      <point x="414" y="1219" type="curve" smooth="yes"/>
      <point x="196" y="1219"/>
      <point x="87" y="1098"/>
      <point x="87" y="854" type="curve" smooth="yes"/>
      <point x="87" y="372" type="line" smooth="yes"/>
      <point x="87" y="207"/>
      <point x="109" y="82"/>
      <point x="150" y="0" type="curve"/>
      <point x="322" y="0" type="line"/>
      <point x="281.641" y="93"/>
      <point x="259" y="227"/>
      <point x="259" y="373" type="curve" smooth="yes"/>
      <point x="259" y="850" type="line" smooth="yes"/>
      <point x="259" y="990.335"/>
      <point x="310.667" y="1061"/>
      <point x="414" y="1061" type="curve" smooth="yes"/>
      <point x="518" y="1061"/>
      <point x="569" y="990.335"/>
      <point x="569" y="850" type="curve" smooth="yes"/>
      <point x="569" y="373" type="line" smooth="yes"/>
      <point x="569" y="227"/>
      <point x="547" y="93"/>
      <point x="506" y="0" type="curve"/>
      <point x="678" y="0" type="line"/>
      <point x="719" y="82"/>
      <point x="741" y="207"/>
      <point x="741" y="372" type="curve" smooth="yes"/>
      <point x="741" y="854" type="line" smooth="yes"/>
      <point x="741" y="1098"/>
      <point x="633" y="1219"/>
    </contour>
  </outline>
</glyph>
<glyph name="Eradu.kn" format="2">
  <advance width="1015"/>
  <unicode hex="0CE8"/>
  <outline>
    <contour>
      <point x="149" y="808.03" type="line"/>
      <point x="149" y="644.03" type="line" smooth="yes"/>
      <point x="149" y="450.472"/>
      <point x="233.307" y="357.03"/>
      <point x="398" y="357.03" type="curve" smooth="yes"/>
      <point x="560.328" y="357.03"/>
      <point x="641" y="446.397"/>
      <point x="641" y="627.03" type="curve" smooth="yes"/>
      <point x="641" y="721.03" type="line" smooth="yes"/>
      <point x="641" y="880.009"/>
      <point x="583" y="957.03"/>
      <point x="465" y="957.03" type="curve" smooth="yes"/>
      <point x="386.368" y="957.03"/>
      <point x="339" y="914.812"/>
      <point x="321" y="849.03" type="curve"/>
      <point x="296" y="849.03" type="line"/>
      <point x="298" y="697.03" type="line"/>
      <point x="309.345" y="774.111"/>
      <point x="341.491" y="815.03"/>
      <point x="402" y="815.03" type="curve" smooth="yes"/>
      <point x="446.444" y="815.03"/>
      <point x="474" y="787.543"/>
      <point x="474" y="706.03" type="curve" smooth="yes"/>
      <point x="474" y="637.03" type="line" smooth="yes"/>
      <point x="474" y="549.205"/>
      <point x="449.761" y="509.03"/>
      <point x="395" y="509.03" type="curve" smooth="yes"/>
      <point x="339.545" y="509.03"/>
      <point x="315" y="549.205"/>
      <point x="315" y="637.03" type="curve" smooth="yes"/>
      <point x="315" y="802.03" type="line"/>
    </contour>
    <contour>
      <point x="315" y="799" type="line"/>
      <point x="315" y="850" type="line" smooth="yes"/>
      <point x="315" y="993.155"/>
      <point x="389.336" y="1069"/>
      <point x="536" y="1069" type="curve" smooth="yes"/>
      <point x="688.991" y="1069"/>
      <point x="765" y="975.041"/>
      <point x="765" y="790" type="curve" smooth="yes"/>
      <point x="765" y="557" type="line" smooth="yes"/>
      <point x="765" y="274.853"/>
      <point x="650.617" y="150"/>
      <point x="394" y="150" type="curve" smooth="yes"/>
      <point x="0" y="150" type="line"/>
      <point x="18" y="0" type="line"/>
      <point x="417" y="0" type="line" smooth="yes"/>
      <point x="772" y="0"/>
      <point x="935" y="169"/>
      <point x="935" y="545" type="curve" smooth="yes"/>
      <point x="935" y="789" type="line" smooth="yes"/>
      <point x="935" y="1077"/>
      <point x="804" y="1219"/>
      <point x="536" y="1219" type="curve" smooth="yes"/>
      <point x="280" y="1219"/>
      <point x="149" y="1085"/>
      <point x="149" y="823" type="curve" smooth="yes"/>
      <point x="149" y="782" type="line"/>
    </contour>
  </outline>
</glyph>
<glyph name="Aidu.kn" format="2">
  <advance width="1258"/>
  <unicode hex="0CEB"/>
  <outline>
    <contour>
      <point x="338" y="1220" type="curve" smooth="yes"/>
      <point x="171" y="1220"/>
      <point x="82" y="1126"/>
      <point x="82" y="946" type="curve" smooth="yes"/>
      <point x="82" y="896" type="line" smooth="yes"/>
      <point x="82" y="810"/>
      <point x="95" y="744"/>
      <point x="118" y="697" type="curve"/>
      <point x="276" y="697" type="line"/>
      <point x="259" y="739"/>
      <point x="246" y="798"/>
      <point x="246" y="883" type="curve" smooth="yes"/>
      <point x="246" y="937" type="line" smooth="yes"/>
      <point x="246" y="1023.69"/>
      <point x="275.708" y="1069"/>
      <point x="338" y="1069" type="curve" smooth="yes"/>
      <point x="401.582" y="1069"/>
      <point x="431" y="1024.67"/>
      <point x="431" y="937" type="curve" smooth="yes"/>
      <point x="431" y="545" type="line"/>
      <point x="435" y="514" type="line"/>
      <point x="435" y="267" type="line" smooth="yes"/>
      <point x="435" y="172.694"/>
      <point x="402.604" y="127"/>
      <point x="334" y="127" type="curve" smooth="yes"/>
      <point x="265.364" y="127"/>
      <point x="232" y="172.676"/>
      <point x="232" y="265" type="curve" smooth="yes"/>
      <point x="232" y="328" type="line" smooth="yes"/>
      <point x="232" y="427.922"/>
      <point x="268.443" y="474"/>
      <point x="349" y="474" type="curve" smooth="yes"/>
      <point x="485" y="474" type="line"/>
      <point x="566" y="473" type="line"/>
      <point x="919" y="473" type="line" smooth="yes"/>
      <point x="936" y="473"/>
      <point x="948" y="474"/>
      <point x="964" y="474" type="curve"/>
      <point x="978" y="492" type="line"/>
      <point x="1108" y="507.328"/>
      <point x="1181" y="602.365"/>
      <point x="1181" y="772" type="curve" smooth="yes"/>
      <point x="1181" y="960" type="line" smooth="yes"/>
      <point x="1181" y="1131"/>
      <point x="1097" y="1220"/>
      <point x="934" y="1220" type="curve" smooth="yes"/>
      <point x="775" y="1220"/>
      <point x="692" y="1135"/>
      <point x="692" y="960" type="curve" smooth="yes"/>
      <point x="692" y="864" type="line" smooth="yes"/>
      <point x="692" y="721"/>
      <point x="735" y="650"/>
      <point x="802" y="589" type="curve"/>
      <point x="880" y="500" type="line"/>
      <point x="952.387" y="440.02"/>
      <point x="998" y="387.278"/>
      <point x="998" y="288" type="curve" smooth="yes"/>
      <point x="998" y="277" type="line" smooth="yes"/>
      <point x="998" y="176.048"/>
      <point x="959.341" y="137"/>
      <point x="874" y="137" type="curve" smooth="yes"/>
      <point x="820.797" y="137"/>
      <point x="757.876" y="152"/>
      <point x="711" y="181" type="curve"/>
      <point x="729" y="26" type="line"/>
      <point x="776.545" y="-1"/>
      <point x="840.909" y="-18"/>
      <point x="910" y="-18" type="curve" smooth="yes"/>
      <point x="1083.41" y="-18"/>
      <point x="1164" y="68.3158"/>
      <point x="1164" y="262" type="curve" smooth="yes"/>
      <point x="1164" y="276" type="line" smooth="yes"/>
      <point x="1164" y="409.074"/>
      <point x="1104.71" y="478.463"/>
      <point x="1013" y="545" type="curve"/>
      <point x="953" y="613" type="line"/>
      <point x="889.561" y="662"/>
      <point x="853" y="725"/>
      <point x="853" y="845" type="curve" smooth="yes"/>
      <point x="853" y="952" type="line" smooth="yes"/>
      <point x="853" y="1031.97"/>
      <point x="880.023" y="1070"/>
      <point x="935" y="1070" type="curve" smooth="yes"/>
      <point x="989.977" y="1070"/>
      <point x="1017" y="1031.98"/>
      <point x="1017" y="954" type="curve" smooth="yes"/>
      <point x="1017" y="782" type="line" smooth="yes"/>
      <point x="1017" y="661.335"/>
      <point x="980.664" y="615"/>
      <point x="886" y="615" type="curve" smooth="yes"/>
      <point x="560" y="615" type="line"/>
      <point x="467" y="616" type="line"/>
      <point x="324" y="616" type="line" smooth="yes"/>
      <point x="154" y="616"/>
      <point x="68" y="520.986"/>
      <point x="68" y="333" type="curve" smooth="yes"/>
      <point x="68" y="259" type="line" smooth="yes"/>
      <point x="68" y="76"/>
      <point x="157" y="-21"/>
      <point x="333" y="-21" type="curve" smooth="yes"/>
      <point x="507" y="-21"/>
      <point x="598" y="75"/>
      <point x="598" y="270" type="curve" smooth="yes"/>
      <point x="598" y="928" type="line" smooth="yes"/>
      <point x="598" y="1121"/>
      <point x="509" y="1220"/>
    </contour>
  </outline>
  <guideline angle="90" x="1844" y="0"/>
  <guideline angle="90" x="1217" y="0"/>
</glyph>
<glyph name="Aaru.kn" format="2">
  <advance width="806"/>
  <unicode hex="0CEC"/>
  <outline>
    <contour>
      <point x="244" y="329" type="curve" smooth="yes"/>
      <point x="244" y="377" type="line" smooth="yes"/>
      <point x="244" y="499.48"/>
      <point x="286.006" y="551.348"/>
      <point x="400" y="553" type="curve" smooth="yes"/>
      <point x="538" y="555" type="line"/>
      <point x="538" y="702" type="line"/>
      <point x="388" y="704" type="line" smooth="yes"/>
      <point x="285.005" y="705.373"/>
      <point x="247" y="754.434"/>
      <point x="247" y="865" type="curve" smooth="yes"/>
      <point x="247" y="905" type="line" smooth="yes"/>
      <point x="247" y="1021.13"/>
      <point x="291" y="1067"/>
      <point x="394" y="1067" type="curve" smooth="yes"/>
      <point x="434" y="1067"/>
      <point x="480" y="1061"/>
      <point x="513" y="1048" type="curve"/>
      <point x="498" y="1199" type="line"/>
      <point x="448" y="1214"/>
      <point x="402" y="1220"/>
      <point x="364" y="1220" type="curve" smooth="yes"/>
      <point x="169" y="1220"/>
      <point x="79" y="1127.95"/>
      <point x="79" y="918" type="curve" smooth="yes"/>
      <point x="79" y="874" type="line" smooth="yes"/>
      <point x="79" y="726.669"/>
      <point x="130.978" y="644.394"/>
      <point x="251" y="631" type="curve"/>
      <point x="251" y="625" type="line"/>
      <point x="128.027" y="611.486"/>
      <point x="76" y="523.126"/>
      <point x="76" y="362" type="curve" smooth="yes"/>
      <point x="76" y="310" type="line" smooth="yes"/>
      <point x="76" y="100.233"/>
      <point x="180.237" y="0"/>
      <point x="398" y="0" type="curve" smooth="yes"/>
      <point x="758" y="0" type="line"/>
      <point x="781" y="150" type="line"/>
      <point x="425" y="150" type="line" smooth="yes"/>
      <point x="301" y="150"/>
      <point x="244" y="204.602"/>
    </contour>
  </outline>
</glyph>
<glyph name="Yelu.kn" format="2">
  <advance width="817"/>
  <unicode hex="0CED"/>
  <outline>
    <contour>
      <point x="346" y="1220" type="curve" smooth="yes"/>
      <point x="177" y="1220"/>
      <point x="91" y="1128"/>
      <point x="91" y="952" type="curve" smooth="yes"/>
      <point x="91" y="901" type="line" smooth="yes"/>
      <point x="91" y="819.994"/>
      <point x="106" y="748"/>
      <point x="129" y="705" type="curve"/>
      <point x="288" y="705" type="line"/>
      <point x="270" y="752"/>
      <point x="256" y="815.994"/>
      <point x="256" y="898" type="curve" smooth="yes"/>
      <point x="256" y="942" type="line" smooth="yes"/>
      <point x="256" y="1026"/>
      <point x="287" y="1067"/>
      <point x="344" y="1067" type="curve" smooth="yes"/>
      <point x="405" y="1067"/>
      <point x="435" y="1026"/>
      <point x="435" y="942" type="curve" smooth="yes"/>
      <point x="435" y="896" type="line" smooth="yes"/>
      <point x="435" y="798"/>
      <point x="406" y="739"/>
      <point x="325" y="672" type="curve" smooth="yes"/>
      <point x="247" y="608" type="line" smooth="yes"/>
      <point x="126" y="509"/>
      <point x="64" y="427"/>
      <point x="64" y="288" type="curve" smooth="yes"/>
      <point x="64" y="278" type="line" smooth="yes"/>
      <point x="64" y="90"/>
      <point x="170" y="0"/>
      <point x="370" y="0" type="curve" smooth="yes"/>
      <point x="769" y="0" type="line"/>
      <point x="792" y="151" type="line"/>
      <point x="383" y="151" type="line" smooth="yes"/>
      <point x="287" y="151"/>
      <point x="234" y="194.323"/>
      <point x="234" y="279" type="curve" smooth="yes"/>
      <point x="234" y="287" type="line" smooth="yes"/>
      <point x="234" y="371"/>
      <point x="273" y="421"/>
      <point x="363" y="499" type="curve" smooth="yes"/>
      <point x="442" y="568" type="line" smooth="yes"/>
      <point x="548" y="660"/>
      <point x="602" y="755"/>
      <point x="602" y="894" type="curve" smooth="yes"/>
      <point x="602" y="946" type="line" smooth="yes"/>
      <point x="602" y="1127"/>
      <point x="515" y="1220"/>
    </contour>
  </outline>
</glyph>
<glyph name="Ombattu.kn" format="2">
  <advance width="791"/>
  <unicode hex="0CEF"/>
  <outline>
    <contour>
      <point x="243" y="876" type="line" smooth="yes"/>
      <point x="243" y="992.56"/>
      <point x="299" y="1043"/>
      <point x="420" y="1043" type="curve" smooth="yes"/>
      <point x="768" y="1043" type="line"/>
      <point x="768" y="1193" type="line"/>
      <point x="391" y="1193" type="line" smooth="yes"/>
      <point x="177.6" y="1193"/>
      <point x="76" y="1096.05"/>
      <point x="76" y="892" type="curve" smooth="yes"/>
      <point x="76" y="848" type="line" smooth="yes"/>
      <point x="76" y="691.711"/>
      <point x="126.744" y="606.686"/>
      <point x="250" y="592.866" type="curve"/>
      <point x="250" y="587.196" type="line"/>
      <point x="127.802" y="573.47"/>
      <point x="76" y="490.095"/>
      <point x="76" y="337" type="curve" smooth="yes"/>
      <point x="76" y="287" type="line" smooth="yes"/>
      <point x="76" y="87.85"/>
      <point x="167.25" y="0"/>
      <point x="365" y="0" type="curve" smooth="yes"/>
      <point x="472" y="0" type="line"/>
      <point x="491" y="148" type="line"/>
      <point x="391" y="148" type="line" smooth="yes"/>
      <point x="288" y="148"/>
      <point x="243" y="191.6"/>
      <point x="243" y="306" type="curve" smooth="yes"/>
      <point x="243" y="350" type="line" smooth="yes"/>
      <point x="243" y="463"/>
      <point x="283.4" y="511.509"/>
      <point x="390" y="513" type="curve" smooth="yes"/>
      <point x="533" y="515" type="line"/>
      <point x="533" y="663" type="line"/>
      <point x="404" y="665" type="line" smooth="yes"/>
      <point x="286.35" y="666.824"/>
      <point x="243" y="715.3"/>
      <point x="243" y="832" type="curve" smooth="yes"/>
    </contour>
  </outline>
  <guideline angle="0" x="0" y="589"/>
</glyph>
<glyph name="Jihvamuliya.kn" format="2">
  <advance width="788"/>
  <unicode hex="0CF1"/>
  <outline>
    <contour>
      <point x="50" y="1193" type="line"/>
      <point x="50" y="1041" type="line"/>
      <point x="291" y="603" type="line"/>
      <point x="50" y="152" type="line"/>
      <point x="50" y="0" type="line"/>
      <point x="733" y="0" type="line"/>
      <point x="733" y="152" type="line"/>
      <point x="493" y="603" type="line"/>
      <point x="733" y="1041" type="line"/>
      <point x="733" y="1193" type="line"/>
    </contour>
    <contour>
      <point x="229" y="1050" type="line"/>
      <point x="554" y="1050" type="line"/>
      <point x="392" y="735" type="line"/>
    </contour>
    <contour>
      <point x="229" y="143" type="line"/>
      <point x="392" y="470" type="line"/>
      <point x="555" y="143" type="line"/>
    </contour>
  </outline>
  <guideline angle="90" x="43" y="0"/>
</glyph>
<glyph name="Upadhmaniya.kn" format="2">
  <advance width="1160"/>
  <unicode hex="0CF2"/>
  <outline>
    <contour>
      <point x="296" y="929" type="curve" smooth="yes"/>
      <point x="137" y="929"/>
      <point x="58" y="842"/>
      <point x="58" y="659" type="curve" smooth="yes"/>
      <point x="58" y="471" type="line" smooth="yes"/>
      <point x="58" y="289"/>
      <point x="137" y="201"/>
      <point x="296" y="201" type="curve" smooth="yes"/>
      <point x="456" y="201"/>
      <point x="534" y="289"/>
      <point x="534" y="471" type="curve" smooth="yes"/>
      <point x="534" y="659" type="line" smooth="yes"/>
      <point x="534" y="842"/>
      <point x="456" y="929"/>
    </contour>
    <contour>
      <point x="296" y="784" type="curve" smooth="yes"/>
      <point x="350.835" y="784"/>
      <point x="375" y="743.615"/>
      <point x="375" y="659" type="curve" smooth="yes"/>
      <point x="375" y="471" type="line" smooth="yes"/>
      <point x="375" y="386.385"/>
      <point x="350.835" y="346"/>
      <point x="296" y="346" type="curve" smooth="yes"/>
      <point x="241.116" y="346"/>
      <point x="216.5" y="386.38"/>
      <point x="216.5" y="471" type="curve" smooth="yes"/>
      <point x="216.5" y="659" type="line" smooth="yes"/>
      <point x="216.5" y="743.62"/>
      <point x="241.802" y="784"/>
    </contour>
    <contour>
      <point x="865" y="929" type="curve" smooth="yes"/>
      <point x="706" y="929"/>
      <point x="627" y="842"/>
      <point x="627" y="659" type="curve" smooth="yes"/>
      <point x="627" y="471" type="line" smooth="yes"/>
      <point x="627" y="289"/>
      <point x="706" y="201"/>
      <point x="865" y="201" type="curve" smooth="yes"/>
      <point x="1025" y="201"/>
      <point x="1103" y="289"/>
      <point x="1103" y="471" type="curve" smooth="yes"/>
      <point x="1103" y="659" type="line" smooth="yes"/>
      <point x="1103" y="842"/>
      <point x="1025" y="929"/>
    </contour>
    <contour>
      <point x="865" y="784" type="curve" smooth="yes"/>
      <point x="919.835" y="784"/>
      <point x="944" y="743.615"/>
      <point x="944" y="659" type="curve" smooth="yes"/>
      <point x="944" y="471" type="line" smooth="yes"/>
      <point x="944" y="386.385"/>
      <point x="919.835" y="346"/>
      <point x="865" y="346" type="curve" smooth="yes"/>
      <point x="810.802" y="346"/>
      <point x="786" y="386.385"/>
      <point x="786" y="471" type="curve" smooth="yes"/>
      <point x="786" y="659" type="line" smooth="yes"/>
      <point x="786" y="743.615"/>
      <point x="810.802" y="784"/>
    </contour>
  </outline>
  <guideline angle="90" x="102" y="0"/>
</glyph>
<glyph name="emdash" format="2">
  <advance width="1182"/>
  <unicode hex="2014"/>
  <outline>
    <contour>
      <point x="1095" y="444" type="line"/>
      <point x="1095" y="591" type="line"/>
      <point x="87" y="591" type="line"/>
      <point x="87" y="444" type="line"/>
    </contour>
  </outline>
</glyph>
<glyph name="zerosuperior" format="2">
  <advance width="459"/>
  <unicode hex="2070"/>
  <outline>
    <contour>
      <point x="228" y="685" type="curve" smooth="yes"/>
      <point x="352" y="685"/>
      <point x="414" y="754"/>
      <point x="414" y="893" type="curve" smooth="yes"/>
      <point x="414" y="1185" type="line" smooth="yes"/>
      <point x="414" y="1324"/>
      <point x="352" y="1393"/>
      <point x="228" y="1393" type="curve" smooth="yes"/>
      <point x="106" y="1393"/>
      <point x="45" y="1324"/>
      <point x="45" y="1185" type="curve" smooth="yes"/>
      <point x="45" y="893" type="line" smooth="yes"/>
      <point x="45" y="753"/>
      <point x="106" y="685"/>
    </contour>
    <contour>
      <point x="229" y="789" type="curve" smooth="yes"/>
      <point x="186" y="789"/>
      <point x="167" y="817"/>
      <point x="167" y="876" type="curve" smooth="yes"/>
      <point x="167" y="1203" type="line" smooth="yes"/>
      <point x="167" y="1248"/>
      <point x="177" y="1289"/>
      <point x="229" y="1289" type="curve" smooth="yes"/>
      <point x="272" y="1289"/>
      <point x="292" y="1259"/>
      <point x="292" y="1203" type="curve" smooth="yes"/>
      <point x="292" y="876" type="line" smooth="yes"/>
      <point x="292" y="819"/>
      <point x="272" y="789"/>
    </contour>
  </outline>
</glyph>
<glyph name="BamatraAu.kn" format="2">
  <advance width="1621"/>
  <outline>
    <component base="matraAu.kn" xOffset="633"/>
    <contour>
      <point x="322" y="1220" type="curve" smooth="yes"/>
      <point x="161.322" y="1220"/>
      <point x="79" y="1126.15"/>
      <point x="79" y="949" type="curve" smooth="yes"/>
      <point x="79" y="901" type="line" smooth="yes"/>
      <point x="79" y="820"/>
      <point x="94" y="748"/>
      <point x="117" y="705" type="curve"/>
      <point x="275" y="705" type="line"/>
      <point x="257.042" y="752.492"/>
      <point x="243" y="816.152"/>
      <point x="243" y="898" type="curve" smooth="yes"/>
      <point x="243" y="948" type="line" smooth="yes"/>
      <point x="243" y="1029.64"/>
      <point x="269.957" y="1068"/>
      <point x="323" y="1068" type="curve" smooth="yes"/>
      <point x="376.043" y="1068"/>
      <point x="403" y="1028.66"/>
      <point x="403" y="948" type="curve" smooth="yes"/>
      <point x="403" y="906" type="line" smooth="yes"/>
      <point x="403" y="808.632"/>
      <point x="377.068" y="749.838"/>
      <point x="303" y="684" type="curve" smooth="yes"/>
      <point x="231" y="620" type="line" smooth="yes"/>
      <point x="118.452" y="519.957"/>
      <point x="61" y="429.893"/>
      <point x="61" y="285" type="curve" smooth="yes"/>
      <point x="61" y="262" type="line" smooth="yes"/>
      <point x="61" y="72"/>
      <point x="145.708" y="-21"/>
      <point x="309" y="-21" type="curve" smooth="yes"/>
      <point x="434.585" y="-21"/>
      <point x="506.208" y="37.8936"/>
      <point x="517" y="152" type="curve"/>
      <point x="523" y="152" type="line"/>
      <point x="534.7" y="37.8709"/>
      <point x="606" y="-21"/>
      <point x="732" y="-21" type="curve" smooth="yes"/>
      <point x="888.25" y="-21"/>
      <point x="971" y="78"/>
      <point x="971" y="279" type="curve" smooth="yes"/>
      <point x="971" y="765" type="line" smooth="yes"/>
      <point x="971" y="935.487"/>
      <point x="924.956" y="1018.47"/>
      <point x="832" y="1041" type="curve"/>
      <point x="832" y="1063" type="line"/>
      <point x="639" y="1063" type="line"/>
      <point x="639" y="1045" type="line"/>
      <point x="751.7" y="1045"/>
      <point x="799" y="975.7"/>
      <point x="799" y="813" type="curve" smooth="yes"/>
      <point x="799" y="282" type="line" smooth="yes"/>
      <point x="799" y="188"/>
      <point x="767.3" y="142"/>
      <point x="701" y="142" type="curve" smooth="yes"/>
      <point x="637.95" y="142"/>
      <point x="608.65" y="186.05"/>
      <point x="605" y="281" type="curve" smooth="yes"/>
      <point x="599" y="438" type="line"/>
      <point x="441" y="438" type="line"/>
      <point x="435" y="282" type="line" smooth="yes"/>
      <point x="431.31" y="186.051"/>
      <point x="399.686" y="142"/>
      <point x="332" y="142" type="curve" smooth="yes"/>
      <point x="264.667" y="142"/>
      <point x="231" y="185"/>
      <point x="231" y="277" type="curve" smooth="yes"/>
      <point x="231" y="294" type="line" smooth="yes"/>
      <point x="231" y="386.299"/>
      <point x="264.263" y="436.554"/>
      <point x="345" y="511" type="curve" smooth="yes"/>
      <point x="422" y="582" type="line" smooth="yes"/>
      <point x="519.222" y="671.646"/>
      <point x="569" y="768.044"/>
      <point x="569" y="904" type="curve" smooth="yes"/>
      <point x="569" y="946" type="line" smooth="yes"/>
      <point x="569" y="1127.28"/>
      <point x="485.322" y="1220"/>
    </contour>
    <contour>
      <point x="624" y="1045" type="line"/>
      <point x="798" y="1045" type="line"/>
      <point x="798" y="1193" type="line"/>
      <point x="624" y="1193" type="line"/>
    </contour>
  </outline>
</glyph>
<glyph name="BamatraI.kn" format="2">
  <advance width="1099"/>
  <outline>
    <contour>
      <point x="322" y="1220" type="curve" smooth="yes"/>
      <point x="161.322" y="1220"/>
      <point x="79" y="1126.15"/>
      <point x="79" y="949" type="curve" smooth="yes"/>
      <point x="79" y="901" type="line" smooth="yes"/>
      <point x="79" y="820"/>
      <point x="94" y="748"/>
      <point x="117" y="705" type="curve"/>
      <point x="275" y="705" type="line"/>
      <point x="257.042" y="752.492"/>
      <point x="243" y="816.152"/>
      <point x="243" y="898" type="curve" smooth="yes"/>
      <point x="243" y="948" type="line" smooth="yes"/>
      <point x="243" y="1029.64"/>
      <point x="269.957" y="1068"/>
      <point x="323" y="1068" type="curve" smooth="yes"/>
      <point x="376.043" y="1068"/>
      <point x="403" y="1028.66"/>
      <point x="403" y="948" type="curve" smooth="yes"/>
      <point x="403" y="906" type="line" smooth="yes"/>
      <point x="403" y="808.632"/>
      <point x="377.068" y="749.838"/>
      <point x="303" y="684" type="curve" smooth="yes"/>
      <point x="231" y="620" type="line" smooth="yes"/>
      <point x="118.452" y="519.957"/>
      <point x="61" y="429.893"/>
      <point x="61" y="285" type="curve" smooth="yes"/>
      <point x="61" y="272" type="line" smooth="yes"/>
      <point x="61" y="75.2862"/>
      <point x="148.782" y="-21"/>
      <point x="318" y="-21" type="curve" smooth="yes"/>
      <point x="448.415" y="-21"/>
      <point x="522.792" y="39.5958"/>
      <point x="534" y="157" type="curve"/>
      <point x="546" y="157" type="line"/>
      <point x="541" y="438" type="line"/>
      <point x="458" y="438" type="line"/>
      <point x="452" y="292" type="line" smooth="yes"/>
      <point x="447.776" y="189.205"/>
      <point x="413.943" y="142"/>
      <point x="341" y="142" type="curve" smooth="yes"/>
      <point x="267.667" y="142"/>
      <point x="231" y="188.185"/>
      <point x="231" y="287" type="curve" smooth="yes"/>
      <point x="231" y="294" type="line" smooth="yes"/>
      <point x="231" y="386.299"/>
      <point x="264.263" y="436.554"/>
      <point x="345" y="511" type="curve" smooth="yes"/>
      <point x="422" y="582" type="line" smooth="yes"/>
      <point x="519.222" y="671.646"/>
      <point x="569" y="768.044"/>
      <point x="569" y="904" type="curve" smooth="yes"/>
      <point x="569" y="946" type="line" smooth="yes"/>
      <point x="569" y="1127.28"/>
      <point x="485.322" y="1220"/>
    </contour>
    <contour>
      <point x="1004" y="289" type="curve" smooth="yes"/>
      <point x="1004" y="751" type="line" smooth="yes"/>
      <point x="1004" y="917"/>
      <point x="1004" y="1002"/>
      <point x="1004" y="1167" type="curve" smooth="yes"/>
      <point x="1004" y="1349.39"/>
      <point x="926.333" y="1436"/>
      <point x="771" y="1436" type="curve" smooth="yes"/>
      <point x="618.991" y="1436"/>
      <point x="544" y="1354.02"/>
      <point x="544" y="1185" type="curve" smooth="yes"/>
      <point x="544" y="1103" type="line" smooth="yes"/>
      <point x="544" y="961.9"/>
      <point x="602.311" y="891"/>
      <point x="716" y="891" type="curve" smooth="yes"/>
      <point x="784.975" y="891"/>
      <point x="821.901" y="922.146"/>
      <point x="835" y="968" type="curve"/>
      <point x="861" y="968" type="line"/>
      <point x="857" y="1118" type="line"/>
      <point x="846.567" y="1052.95"/>
      <point x="818.113" y="1018"/>
      <point x="765" y="1018" type="curve" smooth="yes"/>
      <point x="723.907" y="1018"/>
      <point x="698" y="1042"/>
      <point x="698" y="1112" type="curve" smooth="yes"/>
      <point x="698" y="1188" type="line" smooth="yes"/>
      <point x="698" y="1265.19"/>
      <point x="722.05" y="1298"/>
      <point x="772" y="1298" type="curve" smooth="yes"/>
      <point x="822.875" y="1298"/>
      <point x="846" y="1265.19"/>
      <point x="846" y="1188" type="curve" smooth="yes"/>
      <point x="846" y="1126"/>
      <point x="846" y="1096"/>
      <point x="846" y="1033" type="curve" smooth="yes"/>
      <point x="846" y="1028.69"/>
      <point x="848" y="1011.54"/>
      <point x="848" y="1001" type="curve"/>
      <point x="848" y="1000.25"/>
      <point x="848" y="984.748"/>
      <point x="848" y="984" type="curve"/>
      <point x="841" y="968" type="line"/>
      <point x="833.7" y="883.643"/>
      <point x="832" y="835.304"/>
      <point x="832" y="750" type="curve" smooth="yes"/>
      <point x="832" y="292" type="line" smooth="yes"/>
      <point x="832" y="191.286"/>
      <point x="797.737" y="142"/>
      <point x="726" y="142" type="curve" smooth="yes"/>
      <point x="657.717" y="142"/>
      <point x="626.154" y="189.226"/>
      <point x="622" y="291" type="curve" smooth="yes"/>
      <point x="616" y="438" type="line"/>
      <point x="533" y="438" type="line"/>
      <point x="540" y="157" type="line"/>
      <point x="552.168" y="39.5957"/>
      <point x="626.192" y="-21"/>
      <point x="757" y="-21" type="curve" smooth="yes"/>
      <point x="918.5" y="-21"/>
      <point x="1004" y="81.3"/>
    </contour>
  </outline>
</glyph>
<glyph name="BhaHalant.kn" format="2">
  <advance width="1557"/>
  <outline>
    <component base="BaHalant.kn"/>
    <contour>
      <point x="520" y="-393" type="curve" smooth="yes"/>
      <point x="578" y="-393"/>
      <point x="606" y="-355.667"/>
      <point x="606" y="-281" type="curve" smooth="yes"/>
      <point x="606" y="-265" type="line" smooth="yes"/>
      <point x="606" y="-146"/>
      <point x="571" y="-44"/>
      <point x="520" y="32" type="curve"/>
      <point x="470" y="-44"/>
      <point x="435" y="-146"/>
      <point x="435" y="-265" type="curve" smooth="yes"/>
      <point x="435" y="-281" type="line" smooth="yes"/>
      <point x="435" y="-355.667"/>
      <point x="463" y="-393"/>
    </contour>
  </outline>
</glyph>
<glyph name="BhamatraI.kn" format="2">
  <advance width="1099"/>
  <outline>
    <component base="BamatraI.kn"/>
    <contour>
      <point x="537" y="-393" type="curve" smooth="yes"/>
      <point x="595" y="-393"/>
      <point x="623" y="-355.667"/>
      <point x="623" y="-281" type="curve" smooth="yes"/>
      <point x="623" y="-265" type="line" smooth="yes"/>
      <point x="623" y="-146"/>
      <point x="588" y="-44"/>
      <point x="537" y="32" type="curve"/>
      <point x="487" y="-44"/>
      <point x="452" y="-146"/>
      <point x="452" y="-265" type="curve" smooth="yes"/>
      <point x="452" y="-281" type="line" smooth="yes"/>
      <point x="452" y="-355.667"/>
      <point x="480" y="-393"/>
    </contour>
  </outline>
</glyph>
<glyph name="Bhasmall1.kn" format="2">
  <outline>
    <component base="Basmall1.kn"/>
    <contour>
      <point x="-107" y="-709" type="curve"/>
      <point x="-143" y="-749"/>
      <point x="-169" y="-798"/>
      <point x="-169" y="-860" type="curve" smooth="yes"/>
      <point x="-169" y="-866" type="line" smooth="yes"/>
      <point x="-169" y="-917"/>
      <point x="-149" y="-941"/>
      <point x="-107" y="-941" type="curve" smooth="yes"/>
      <point x="-66" y="-941"/>
      <point x="-46" y="-917"/>
      <point x="-46" y="-866" type="curve" smooth="yes"/>
      <point x="-46" y="-860" type="line" smooth="yes"/>
      <point x="-46" y="-798"/>
      <point x="-72" y="-749"/>
    </contour>
  </outline>
</glyph>
